
<svg version="1.0" xmlns="http://www.w3.org/2000/svg"
 width="646.000000pt" height="225.000000pt" viewBox="0 0 646.000000 225.000000"
 preserveAspectRatio="xMidYMid meet">

<g transform="translate(0.000000,225.000000) scale(0.100000,-0.100000)"
fill="none" stroke="none">
<path d="M1068 2053 c7 -3 16 -2 19 1 4 3 -2 6 -13 5 -11 0 -14 -3 -6 -6z " fill="gray"/>
<path d="M1118 2034 c22 -15 60 -79 94 -159 9 -22 17 -32 17 -22 2 44 -94 197
-123 197 -6 0 0 -7 12 -16z" fill="gray"/>
<path d="M970 2020 c-19 -11 -30 -19 -25 -19 6 0 26 8 45 19 19 11 31 19 25
19 -5 0 -26 -8 -45 -19z" fill="gray"/>
<path d="M878 1983 c7 -3 16 -2 19 1 4 3 -2 6 -13 5 -11 0 -14 -3 -6 -6z" fill="gray"/>
<path d="M806 1964 c-9 -24 -2 -26 12 -4 7 11 8 20 3 20 -5 0 -12 -7 -15 -16z" fill="gray"/>
<path d="M322 1935 c6 -14 13 -24 14 -22 6 6 -9 47 -17 47 -5 0 -3 -11 3 -25z" fill="gray"/>
<path d="M299 1925 c17 -33 31 -51 31 -40 0 6 -10 21 -21 35 -13 17 -17 18
-10 5z" fill="gray"/>
<path d="M767 1832 c-16 -46 -27 -86 -25 -88 7 -6 59 138 56 155 -2 9 -16 -21
-31 -67z" fill="gray"/>
<path d="M463 1898 c-20 -27 -23 -37 -11 -44 7 -4 10 -3 5 1 -4 5 0 19 8 32
16 24 14 32 -2 11z" fill="gray"/>
<path d="M210 1810 c0 -5 7 -10 16 -10 8 0 12 5 9 10 -3 6 -10 10 -16 10 -5 0
-9 -4 -9 -10z" fill="gray"/>
<path d="M255 1803 c6 -5 24 -15 40 -22 26 -11 28 -11 15 2 -8 8 -26 18 -40
22 -15 4 -21 4 -15 -2z" fill="gray"/>
<path d="M5014 1785 c-166 -99 -80 -349 110 -321 92 14 146 79 146 178 0 128
-146 209 -256 143z m163 -18 c64 -36 91 -131 57 -202 -49 -104 -205 -108 -262
-6 -60 106 13 222 138 221 25 -1 55 -6 67 -13z" fill="#000000"/>
<path d="M5024 1717 c-3 -8 -4 -52 -2 -98 2 -67 6 -84 18 -84 11 0 15 11 15
39 0 22 5 41 12 43 12 4 43 -24 75 -68 11 -17 20 -21 27 -14 8 8 3 22 -15 49
l-26 38 21 14 c27 20 27 59 -1 78 -28 20 -116 22 -124 3z m114 -39 c4 -22 -33
-41 -64 -34 -17 5 -24 13 -24 32 0 23 3 25 42 22 31 -2 44 -8 46 -20z" fill="#000000"/>
<path d="M483 1785 c0 -8 4 -12 9 -9 4 3 8 9 8 15 0 5 -4 9 -8 9 -5 0 -9 -7
-9 -15z" fill="gray"/>
<path d="M368 1722 c23 -29 48 -76 57 -103 10 -28 19 -48 21 -46 12 12 -41
120 -77 159 l-41 43 40 -53z" fill="gray"/>
<path d="M430 1754 c0 -5 7 -18 15 -28 8 -11 15 -16 15 -10 0 5 -7 18 -15 28
-8 11 -15 16 -15 10z" fill="gray"/>
<path d="M889 1733 l-24 -28 28 24 c25 23 32 31 24 31 -2 0 -14 -12 -28 -27z" fill="gray"/>
<path d="M1205 1710 c-16 -36 -17 -48 -7 -85 19 -72 90 -211 116 -228 23 -15
26 -15 53 6 31 23 43 37 43 50 0 5 -12 -5 -26 -22 -48 -58 -81 -34 -139 97
-46 106 -52 142 -30 175 9 15 15 32 13 38 -2 6 -12 -7 -23 -31z" fill="gray"/>
<path d="M697 1688 c-21 -22 -30 -35 -20 -30 22 12 68 61 62 65 -2 2 -21 -14
-42 -35z" fill="gray"/>
<path d="M1484 1706 c-3 -8 -4 -25 -1 -38 3 -17 5 -14 6 11 1 25 5 32 16 27 8
-3 15 -1 15 4 0 15 -30 12 -36 -4z" fill="gray"/>
<path d="M1947 1711 c-44 -9 -104 -55 -131 -100 -11 -20 -21 -62 -25 -109 l-6
-77 -50 -5 -50 -5 -3 -112 -3 -113 28 -1 c15 -1 35 -1 45 0 9 1 19 -3 23 -8 3
-6 7 -129 8 -273 l2 -263 158 -3 157 -3 0 270 0 270 68 3 67 3 0 115 0 115
-67 3 c-68 3 -68 3 -68 32 0 17 9 39 21 51 18 18 31 20 82 17 l60 -3 18 90 c9
50 14 94 9 98 -10 11 -296 18 -343 8z" fill="#000000"/>
<path d="M480 1676 c23 -25 60 -52 60 -43 0 2 -19 19 -42 37 -38 29 -40 30
-18 6z" fill="gray"/>
<path d="M829 1663 c-13 -16 -12 -17 4 -4 9 7 17 15 17 17 0 8 -8 3 -21 -13z" fill="gray"/>
<path d="M1480 1600 c0 -16 2 -30 4 -30 2 0 6 14 8 30 3 17 1 30 -4 30 -4 0
-8 -13 -8 -30z" fill="gray"/>
<path d="M1619 1583 c-13 -16 -12 -17 4 -4 9 7 17 15 17 17 0 8 -8 3 -21 -13z" fill="gray"/>
<path d="M1644 1575 c-10 -8 -14 -15 -8 -15 6 0 17 7 24 15 16 19 9 19 -16 0z" fill="gray"/>
<path d="M1360 1570 c0 -5 10 -15 23 -21 22 -12 22 -12 3 10 -21 23 -26 26
-26 11z" fill="gray"/>
<path d="M450 1548 c0 -9 7 -22 17 -29 15 -13 15 -12 3 11 -17 34 -20 36 -20
18z" fill="gray"/>
<path d="M1575 1534 c-15 -16 -32 -38 -37 -49 -6 -11 8 0 31 24 22 24 39 46
37 49 -3 2 -17 -9 -31 -24z" fill="gray"/>
<path d="M572 1423 c-52 -111 -73 -165 -68 -170 2 -2 18 29 35 70 17 41 42 98
57 126 14 29 24 54 22 57 -3 2 -23 -35 -46 -83z" fill="gray"/>
<path d="M1367 1493 c-10 -9 -9 -23 1 -23 5 0 9 7 9 15 0 17 -1 18 -10 8z" fill="gray"/>
<path d="M1484 1386 c-25 -53 -53 -91 -88 -123 -28 -25 -42 -41 -31 -35 47 27
86 72 125 145 23 43 40 80 37 83 -3 3 -22 -28 -43 -70z" fill="gray"/>
<path d="M205 1420 c-3 -5 -1 -10 4 -10 6 0 11 5 11 10 0 6 -2 10 -4 10 -3 0
-8 -4 -11 -10z" fill="gray"/>
<path d="M2705 1411 c-16 -10 -39 -28 -49 -40 -26 -29 -34 -27 -38 12 l-3 32
-140 0 -140 0 -3 -387 -2 -388 155 0 155 0 0 195 c0 169 3 203 20 253 27 78
60 106 119 99 25 -2 53 -8 62 -11 12 -5 25 15 60 96 24 57 44 107 44 113 0 5
-16 18 -35 27 -50 24 -165 24 -205 -1z" fill="#000000"/>
<path d="M3249 1416 c-116 -45 -195 -115 -243 -216 -29 -60 -31 -73 -31 -175
0 -98 3 -116 27 -165 81 -172 273 -262 493 -232 153 20 264 95 332 223 26 51
28 62 28 174 0 110 -2 125 -28 180 -37 79 -96 139 -182 183 -70 36 -70 36
-215 39 -104 2 -155 -1 -181 -11z m251 -234 c34 -35 52 -94 49 -165 -3 -75
-14 -106 -51 -144 -26 -27 -39 -33 -74 -33 -92 0 -134 50 -142 164 -5 86 7
133 48 176 25 27 34 30 85 30 49 0 60 -4 85 -28z" fill="#000000"/>
<path d="M4135 1406 c-65 -30 -126 -98 -156 -172 -20 -50 -24 -76 -23 -174 0
-153 21 -210 109 -297 48 -47 75 -65 116 -77 94 -28 195 -14 273 39 46 31 51
22 41 -72 -10 -91 -32 -113 -115 -113 -61 0 -79 9 -105 54 -8 13 -38 19 -145
30 -158 16 -166 13 -156 -63 13 -96 87 -175 194 -208 44 -14 92 -18 212 -18
166 1 219 13 301 68 52 35 107 115 119 172 6 31 9 200 8 445 l-3 395 -129 3
c-141 3 -156 -2 -156 -49 0 -36 -7 -36 -50 0 -64 52 -92 61 -192 61 -76 0
-102 -4 -143 -24z m307 -220 c31 -19 53 -77 53 -141 0 -107 -38 -155 -123
-155 -56 0 -98 40 -107 104 -9 61 0 129 22 162 32 49 103 63 155 30z" fill="#000000"/>
<path d="M230 1364 c0 -5 14 -25 31 -44 l30 -35 -27 40 c-16 22 -29 42 -31 44
-2 2 -3 0 -3 -5z" fill="gray"/>
<path d="M1261 1295 c53 -68 69 -83 69 -66 0 6 -4 11 -9 11 -6 0 -29 27 -52
60 -23 33 -46 60 -51 60 -4 0 15 -29 43 -65z" fill="gray"/>
<path d="M375 1320 c-3 -5 -2 -10 4 -10 5 0 13 5 16 10 3 6 2 10 -4 10 -5 0
-13 -4 -16 -10z" fill="gray"/>
<path d="M1132 1232 c-27 -129 -56 -203 -98 -253 -19 -22 -34 -44 -34 -48 0
-9 29 -35 50 -45 8 -4 2 4 -15 18 l-29 25 25 28 c31 34 61 85 78 133 15 45 54
231 49 236 -3 2 -14 -40 -26 -94z" fill="gray"/>
<path d="M211 1300 c0 -8 4 -24 9 -35 5 -13 9 -14 9 -5 0 8 -4 24 -9 35 -5 13
-9 14 -9 5z" fill="gray"/>
<path d="M340 1300 c-9 -6 -10 -10 -3 -10 6 0 15 5 18 10 8 12 4 12 -15 0z" fill="gray"/>
<path d="M390 1291 c0 -4 8 -15 18 -24 21 -19 76 -41 67 -27 -3 6 -13 10 -21
10 -8 0 -26 11 -39 25 -14 13 -25 20 -25 16z" fill="gray"/>
<path d="M86 1247 c97 -71 124 -89 124 -83 0 8 -161 126 -172 126 -6 0 16 -19
48 -43z" fill="gray"/>
<path d="M10 1270 c0 -6 30 -30 68 -53 71 -46 110 -89 136 -150 9 -20 23 -53
32 -73 8 -20 17 -34 20 -31 13 12 -77 175 -114 208 -60 52 -142 109 -142 99z" fill="gray"/>
<path d="M232 1205 c0 -16 2 -22 5 -12 2 9 2 23 0 30 -3 6 -5 -1 -5 -18z" fill="gray"/>
<path d="M274 937 c10 -31 127 -217 136 -217 5 0 -8 26 -29 58 -22 31 -56 84
-76 117 -21 33 -35 52 -31 42z" fill="gray"/>
<path d="M440 943 c0 -5 5 -15 10 -23 8 -12 10 -11 10 8 0 12 -4 22 -10 22 -5
0 -10 -3 -10 -7z" fill="gray"/>
<path d="M490 942 c0 -6 12 -24 26 -39 l26 -28 -23 35 c-29 46 -29 45 -29 32z" fill="gray"/>
<path d="M465 870 c4 -19 11 -39 16 -44 4 -5 3 8 -2 30 -14 50 -24 60 -14 14z" fill="gray"/>
<path d="M1070 877 c0 -3 37 -27 83 -55 95 -59 165 -116 177 -146 7 -18 9 -18
9 -3 1 23 -55 76 -139 131 -67 44 -130 80 -130 73z" fill="gray"/>
<path d="M560 844 c24 -30 59 -59 64 -52 1 2 -18 21 -43 43 -40 35 -42 36 -21
9z" fill="gray"/>
<path d="M648 783 c7 -3 16 -2 19 1 4 3 -2 6 -13 5 -11 0 -14 -3 -6 -6z" fill="gray"/>
<path d="M481 768 c-1 -9 -8 -24 -17 -32 -8 -9 -11 -16 -5 -16 14 0 34 38 27
53 -2 7 -5 5 -5 -5z" fill="gray"/>
<path d="M795 719 c55 -27 105 -48 110 -48 6 0 -37 23 -94 50 -57 27 -106 49
-110 48 -3 0 39 -23 94 -50z" fill="gray"/>
<path d="M945 663 c17 -2 36 -12 43 -21 6 -8 12 -11 12 -6 0 19 -24 34 -54 33
l-31 -2 30 -4z" fill="gray"/>
<path d="M1323 622 c-12 -16 -37 -36 -56 -45 -19 -9 -40 -24 -48 -33 -8 -10
14 0 48 21 34 22 66 49 72 62 14 31 9 29 -16 -5z" fill="gray"/>
<path d="M915 600 c-13 -6 -15 -9 -5 -9 8 0 22 4 30 9 18 12 2 12 -25 0z" fill="gray"/>
<path d="M822 573 c-24 -8 -41 -17 -39 -19 2 -2 28 5 58 15 30 11 47 20 39 19
-8 0 -34 -6 -58 -15z" fill="gray"/>
<path d="M1386 575 c-11 -8 -15 -15 -10 -15 6 0 19 7 30 15 10 8 15 14 9 14
-5 0 -19 -6 -29 -14z" fill="gray"/>
<path d="M1303 539 c-18 -12 -31 -25 -28 -30 3 -4 13 -2 23 6 9 8 26 21 37 29
30 23 5 19 -32 -5z" fill="gray"/>
<path d="M723 533 c-85 -42 -36 -120 68 -110 l44 4 -50 1 c-98 4 -125 57 -50
99 46 26 36 30 -12 6z" fill="gray"/>
<path d="M1578 513 c16 -3 22 -9 18 -20 -5 -13 -4 -14 9 -3 24 20 18 30 -17
29 -25 -1 -27 -3 -10 -6z" fill="gray"/>
<path d="M1448 493 c7 -3 16 -2 19 1 4 3 -2 6 -13 5 -11 0 -14 -3 -6 -6z" fill="gray"/>
<path d="M1350 480 c-10 -6 -2 -7 25 -3 49 7 58 13 19 13 -16 0 -36 -5 -44
-10z" fill="gray"/>
<path d="M1498 483 c6 -2 18 -2 25 0 6 3 1 5 -13 5 -14 0 -19 -2 -12 -5z" fill="gray"/>
<path d="M868 413 c17 -2 47 -2 65 0 17 2 3 4 -33 4 -36 0 -50 -2 -32 -4z" fill="gray"/>
<path d="M1208 413 c12 -2 30 -2 40 0 9 3 -1 5 -23 4 -22 0 -30 -2 -17 -4z" fill="gray"/>
<path d="M1073 403 c9 -2 23 -2 30 0 6 3 -1 5 -18 5 -16 0 -22 -2 -12 -5z" fill="gray"/>
<path d="M1340 386 c0 -10 60 -36 82 -36 23 1 23 1 3 16 -12 9 -21 11 -23 4
-2 -6 -15 -4 -33 5 -16 9 -29 13 -29 11z" fill="gray"/>
</g>
</svg>
