
<svg version="1.0" xmlns="http://www.w3.org/2000/svg"
 width="750.000000pt" height="1000.000000pt" viewBox="0 0 750.000000 1000.000000"
 preserveAspectRatio="xMidYMid meet">

<g transform="translate(0.000000,1000.000000) scale(0.100000,-0.100000)"
fill="#000000" stroke="none">
<path d="M5641 6119 c-30 -10 -58 -25 -63 -32 -4 -6 -8 -8 -8 -4 0 16 -94 -45
-142 -91 -40 -38 -46 -49 -41 -74 5 -25 3 -28 -23 -29 -25 -1 -23 -3 16 -15
24 -8 54 -26 65 -41 13 -15 27 -23 33 -19 7 4 12 2 12 -4 0 -14 70 -9 140 10
28 7 73 9 120 5 l75 -6 20 43 c20 41 82 95 94 82 3 -4 0 -9 -7 -11 -21 -8 -52
-80 -52 -123 0 -114 106 -219 181 -180 13 7 36 23 50 37 l26 24 26 -78 c13
-43 35 -101 47 -129 31 -70 23 -89 -33 -80 -23 4 -67 15 -97 26 -166 56 -196
62 -355 71 -201 12 -337 11 -370 -1 -26 -10 -69 -85 -59 -102 7 -11 -4 -10
-27 2 -33 18 -23 54 29 102 27 25 58 51 70 57 27 14 84 12 137 -5 22 -7 117
-20 210 -28 184 -18 204 -22 310 -59 110 -39 115 -40 115 -24 0 19 -166 84
-246 97 -33 6 -126 16 -209 24 -82 8 -178 22 -213 31 -90 23 -115 15 -194 -67
-61 -62 -68 -66 -68 -43 0 14 -4 25 -10 25 -14 0 -12 -35 4 -74 13 -31 77 -76
109 -76 7 0 30 -9 51 -20 22 -10 43 -17 48 -14 11 7 66 -33 125 -89 55 -52 69
-40 17 14 -54 56 -161 126 -206 134 -36 7 -36 7 -26 38 19 58 27 61 150 61
168 0 386 -20 459 -43 263 -82 293 -85 451 -42 76 21 85 25 72 38 -12 13 -23
13 -67 3 -28 -7 -64 -19 -79 -26 l-26 -13 5 39 c5 35 1 44 -30 79 -19 22 -41
50 -48 62 -7 13 -18 30 -26 37 -35 35 6 108 54 95 14 -3 35 0 48 7 l23 12 -36
52 c-20 28 -40 53 -44 54 -5 2 -8 9 -8 16 0 15 -64 61 -100 71 -14 4 -36 16
-49 26 -13 11 -29 19 -36 19 -6 0 -22 9 -35 20 -12 11 -27 17 -32 14 -4 -3 -7
-2 -6 3 2 4 -7 18 -20 31 -18 18 -36 24 -78 25 -44 2 -51 4 -38 14 14 10 12
13 -13 26 -15 8 -41 17 -58 21 -16 4 -37 9 -45 11 -8 2 -39 -5 -69 -16z m159
-63 c0 -3 -4 -8 -10 -11 -5 -3 -10 -1 -10 4 0 6 5 11 10 11 6 0 10 -2 10 -4z
m263 -147 l31 -31 -52 -25 c-36 -17 -52 -30 -52 -43 0 -26 35 -43 81 -38 35 3
39 1 39 -20 0 -13 -13 -37 -29 -53 -77 -76 -171 10 -158 144 3 41 10 55 33 74
39 31 70 29 107 -8z m37 -89 c0 -5 -9 -10 -20 -10 -11 0 -20 5 -20 10 0 6 9
10 20 10 11 0 20 -4 20 -10z"/>
<path d="M5240 5906 c0 -2 9 -6 20 -9 11 -3 18 -1 14 4 -5 9 -34 13 -34 5z"/>
<path d="M5298 5893 c6 -2 18 -2 25 0 6 3 1 5 -13 5 -14 0 -19 -2 -12 -5z"/>
<path d="M5205 5881 c-4 -7 0 -23 9 -36 9 -13 16 -42 16 -63 0 -35 -24 -144
-36 -163 -8 -14 -43 9 -59 40 -14 28 -14 29 16 41 55 23 58 74 7 101 -15 8
-22 4 -38 -23 -11 -18 -20 -43 -20 -56 0 -37 38 -100 70 -117 17 -9 30 -23 31
-33 1 -37 59 176 59 218 -1 48 -40 114 -55 91z m-65 -141 c0 -5 -4 -10 -10
-10 -5 0 -10 5 -10 10 0 6 5 10 10 10 6 0 10 -4 10 -10z"/>
<path d="M5600 5748 c0 -22 17 -41 29 -34 17 11 13 24 -9 36 -15 8 -20 8 -20
-2z"/>
<path d="M5840 5750 c0 -21 45 -76 53 -63 3 5 -7 25 -23 44 -18 21 -29 28 -30
19z"/>
<path d="M5323 5636 c-21 -19 -35 -38 -31 -42 4 -4 17 5 29 20 12 15 31 31 42
35 13 5 16 10 9 15 -6 4 -28 -8 -49 -28z"/>
<path d="M5490 5637 c7 -7 181 -39 187 -34 8 8 -60 25 -127 32 -36 4 -63 5
-60 2z"/>
<path d="M5830 5570 c0 -5 5 -10 11 -10 5 0 7 5 4 10 -3 6 -8 10 -11 10 -2 0
-4 -4 -4 -10z"/>
<path d="M6515 5441 c-17 -8 -16 -10 13 -12 17 -1 35 -3 40 -4 4 -2 17 -6 29
-10 19 -6 22 -16 28 -98 12 -175 9 -447 -5 -492 -7 -21 -30 -44 -76 -75 -58
-39 -84 -65 -84 -84 0 -14 59 23 100 63 25 23 54 47 66 51 12 5 142 7 290 6
148 -2 258 0 244 4 -14 5 -37 8 -52 9 -15 1 -30 6 -33 12 -11 17 4 57 23 63
21 7 67 65 58 73 -3 3 -37 -26 -76 -66 -53 -53 -77 -71 -97 -71 l-27 0 39 40
c27 28 34 40 23 40 -9 0 -32 -18 -51 -40 -28 -34 -40 -40 -72 -40 -29 0 -36 3
-31 15 17 43 15 47 -11 17 -31 -36 -80 -46 -70 -14 3 9 9 28 13 42 6 23 6 24
-11 9 -9 -9 -18 -28 -18 -43 -2 -25 -5 -26 -55 -26 -58 0 -59 3 -15 52 91 101
98 104 175 63 57 -30 71 -31 113 -5 48 30 146 61 168 54 10 -3 30 -2 45 2 24
6 22 8 -21 15 -48 7 -105 -6 -214 -52 -29 -12 -37 -11 -80 11 l-48 25 50 5
c50 6 88 21 113 47 11 11 11 13 -2 13 -12 0 -16 10 -16 38 l0 37 -31 -52 c-24
-42 -36 -53 -56 -53 -13 0 -23 3 -21 8 2 4 22 47 46 96 24 48 41 90 39 93 -5
5 -47 -51 -47 -63 0 -4 -19 -36 -41 -71 -36 -55 -46 -64 -79 -69 -43 -7 -74
-33 -98 -83 -29 -59 -39 -49 -31 31 4 40 12 86 19 103 6 16 11 60 12 97 0 58
5 75 30 113 17 25 39 52 51 60 11 8 19 17 16 19 -2 3 -28 -13 -57 -36 -30 -22
-55 -38 -58 -36 -2 3 -8 33 -12 67 -6 40 -16 69 -29 82 -22 23 -87 33 -118 20z"/>
<path d="M6908 5393 c12 -2 30 -2 40 0 9 3 -1 5 -23 4 -22 0 -30 -2 -17 -4z"/>
<path d="M6045 5334 c-34 -27 -176 -89 -260 -113 -77 -23 -115 -41 -84 -41 63
0 296 95 354 144 32 27 23 36 -10 10z"/>
<path d="M7012 5241 c-12 -52 -20 -96 -17 -99 7 -7 25 46 25 74 0 14 5 34 11
45 5 11 9 32 7 47 -2 18 -11 -5 -26 -67z"/>
<path d="M6474 5304 c-14 -11 -16 -17 -6 -21 9 -3 3 -16 -20 -41 -18 -21 -43
-50 -55 -67 -18 -25 -25 -28 -40 -19 -10 6 -23 29 -29 50 -6 21 -16 39 -22 39
-7 0 -28 13 -48 29 -30 24 -34 25 -25 7 9 -16 46 -46 67 -55 1 -1 5 -12 9 -26
7 -22 6 -23 -9 -11 -9 7 -16 10 -16 5 0 -4 12 -18 28 -30 l27 -23 -75 6 c-68
5 -87 2 -195 -32 -144 -45 -138 -59 8 -17 108 31 167 44 167 37 0 -6 -149 -93
-240 -139 -89 -46 -84 -43 -72 -50 11 -6 168 68 256 122 63 38 136 55 173 41
20 -7 22 -15 22 -69 -1 -33 -5 -63 -10 -65 -4 -3 -7 10 -5 30 4 50 -18 39 -25
-14 -4 -33 -16 -52 -54 -91 l-49 -50 -192 0 c-249 0 -275 6 -353 82 -34 32
-61 60 -61 63 0 2 12 0 26 -5 14 -6 45 -10 69 -10 38 0 50 6 86 39 22 22 39
46 36 53 -6 17 -106 13 -154 -7 -44 -19 -126 -11 -163 15 -31 22 -54 25 -103
15 -24 -5 -42 -3 -51 4 -11 9 -15 9 -19 -1 -2 -7 -8 4 -12 25 -5 25 -2 53 9
88 10 28 16 52 14 54 -2 1 -21 -11 -42 -26 -21 -16 -35 -29 -30 -29 5 0 9 -26
9 -57 0 -32 3 -67 8 -79 6 -16 2 -23 -18 -32 -14 -6 -25 -18 -25 -27 0 -20 -3
-20 87 19 79 35 95 39 124 37 9 0 74 -55 145 -121 128 -119 161 -139 231 -144
13 0 25 -7 28 -13 9 -25 -8 -45 -54 -65 -53 -23 -42 -34 18 -18 47 12 76 48
66 80 -6 19 -2 20 59 20 38 0 68 -5 72 -11 8 -13 -33 -48 -57 -49 -8 0 -26
-11 -38 -24 -13 -13 -38 -27 -57 -30 -29 -6 -34 -11 -34 -36 0 -29 39 -70 67
-70 18 0 35 -47 27 -74 -3 -11 -8 -30 -11 -41 -9 -32 92 60 120 109 13 24 27
67 31 96 15 116 46 138 199 141 82 2 107 6 107 16 0 7 -7 13 -15 13 -27 0 -16
40 40 145 43 81 55 112 55 147 0 25 11 75 25 112 23 61 23 66 7 66 -10 0 -27
-7 -38 -16z m-36 -218 l-13 -31 -6 50 c-4 37 -2 57 10 75 l16 24 3 -43 c2 -24
-3 -58 -10 -75z m-628 -22 c0 -3 -28 -18 -63 -34 l-63 -28 -55 18 -54 19 43
-6 c24 -3 53 -1 65 5 12 5 45 14 72 20 28 5 51 10 53 11 1 0 2 -2 2 -5z m520
-204 c0 -5 -5 -10 -11 -10 -5 0 -7 5 -4 10 3 6 8 10 11 10 2 0 4 -4 4 -10z
m-229 -66 c-12 -15 -21 -32 -21 -38 0 -7 -14 -31 -31 -54 -17 -24 -37 -62 -44
-85 -14 -48 -35 -58 -50 -25 -6 14 -24 26 -48 31 -50 12 -47 39 4 48 38 6 95
46 161 112 44 43 59 49 29 11z m-43 -151 c-12 -46 -26 -73 -37 -73 -12 0 0 62
17 88 22 34 32 26 20 -15z"/>
<path d="M5377 5293 c-4 -6 0 -16 8 -23 21 -17 28 -8 11 15 -8 11 -15 14 -19
8z"/>
<path d="M5260 5181 c-12 -24 -13 -31 -1 -31 5 0 11 11 13 25 6 30 2 32 -12 6z"/>
<path d="M5176 5033 c-8 -67 -13 -78 -43 -87 -20 -6 -23 -4 -23 18 0 16 -6 26
-15 26 -8 0 -15 5 -15 11 0 8 -14 9 -42 5 -108 -17 -136 -41 -91 -79 15 -12
37 -32 50 -44 21 -20 33 -22 206 -25 159 -3 186 -5 201 -20 20 -20 26 -22 26
-8 0 5 -18 22 -40 36 -35 23 -47 26 -100 22 -36 -3 -64 0 -69 6 -16 22 -33
106 -27 138 3 18 2 39 -3 46 -5 9 -11 -7 -15 -45z m-96 -82 c0 -39 16 -63 29
-44 3 6 16 15 28 21 19 10 22 8 31 -17 13 -38 0 -43 -76 -34 -40 4 -68 15 -98
37 -24 17 -43 33 -43 36 -1 3 12 6 29 7 16 1 42 9 57 17 40 22 43 20 43 -23z"/>
<path d="M7075 5050 c-4 -6 10 -10 35 -10 25 0 39 4 35 10 -3 6 -19 10 -35 10
-16 0 -32 -4 -35 -10z"/>
<path d="M7174 5025 c11 -8 27 -15 35 -15 13 1 12 4 -3 15 -11 8 -27 15 -35
15 -13 -1 -12 -4 3 -15z"/>
<path d="M5345 5001 c-38 -8 -30 -27 9 -23 52 6 74 -7 120 -71 57 -79 175
-194 209 -202 17 -5 27 -14 27 -26 0 -12 7 -19 20 -19 11 0 20 6 20 14 0 29
-20 66 -35 66 -8 0 -15 9 -15 19 0 11 -12 31 -27 44 -16 14 -67 62 -115 108
-48 45 -93 86 -100 91 -15 9 -69 9 -113 -1z m185 -90 c44 -39 44 -40 18 -41
-24 0 -61 35 -93 88 -12 22 24 -1 75 -47z m99 -93 c22 -24 41 -46 41 -50 0
-18 -29 -5 -73 34 -35 30 -45 43 -35 49 20 13 23 12 67 -33z"/>
<path d="M6359 4788 c-29 -21 -65 -35 -104 -42 -58 -11 -61 -12 -87 -61 -14
-27 -32 -74 -38 -104 -9 -40 -21 -62 -47 -86 -25 -23 -36 -42 -40 -73 -7 -54
-21 -65 -57 -47 -16 8 -36 15 -46 15 -9 0 -34 11 -55 25 -35 25 -38 25 -56 9
-17 -16 -54 -17 -372 -18 -193 -1 -341 -3 -327 -4 26 -4 70 -38 70 -55 0 -5
20 -53 46 -106 33 -71 58 -108 96 -143 55 -52 90 -66 63 -25 -8 13 -33 36 -55
52 -31 23 -52 55 -93 135 -28 58 -53 108 -55 113 -2 4 14 7 35 6 l38 -1 51
-101 c27 -55 56 -103 62 -105 22 -7 12 20 -39 109 -29 49 -49 92 -47 95 3 3
27 1 54 -3 l48 -8 14 -55 c13 -54 42 -102 42 -70 0 8 -7 40 -15 70 -8 30 -15
56 -15 58 0 1 18 2 39 2 44 0 42 3 61 -103 16 -90 36 -102 26 -16 -13 122 -15
114 22 117 32 3 34 2 32 -30 -4 -71 0 -119 10 -113 6 3 10 37 10 76 l0 69 41
0 40 0 -7 -129 c-5 -101 -4 -130 7 -136 8 -5 14 -4 17 3 2 7 27 -8 60 -36 32
-27 77 -61 102 -77 25 -15 64 -46 87 -68 24 -22 45 -38 48 -35 10 10 -52 74
-112 114 -32 21 -86 63 -120 93 -62 52 -63 55 -63 103 l0 50 93 -83 c110 -101
143 -126 107 -84 -14 17 -40 49 -58 72 l-32 42 38 -5 c20 -3 57 -14 82 -24 25
-10 65 -21 90 -25 45 -7 104 -30 172 -66 20 -10 41 -19 47 -19 5 0 43 23 84
50 41 28 89 53 106 56 26 6 55 24 37 24 -21 0 -105 -37 -137 -59 -76 -56 -89
-57 -171 -18 -40 20 -102 43 -138 52 -36 9 -87 24 -115 35 -27 10 -74 24 -103
31 -62 15 -92 48 -92 102 l0 35 63 4 c55 5 64 3 82 -17 42 -49 111 -59 155
-25 26 21 70 27 70 10 0 -5 11 -17 25 -26 20 -13 31 -14 56 -5 21 7 36 8 43 1
7 -5 30 -12 52 -16 31 -4 45 -2 57 11 10 9 15 20 13 24 -2 3 165 8 372 9 207
1 378 5 381 7 2 3 -97 5 -220 6 -123 1 -253 4 -289 7 -36 3 -109 4 -162 3 -95
-2 -98 -1 -103 22 -4 13 -2 59 4 101 6 43 11 82 11 88 0 6 9 8 20 5 14 -3 26
3 40 20 21 27 19 46 -2 25 -7 -7 -22 -12 -34 -12 -12 0 -26 -6 -32 -13 -18
-21 -33 -105 -33 -183 l0 -74 -32 14 c-19 7 -40 10 -52 5 -25 -10 -95 -11 -95
-2 0 4 22 41 50 83 37 56 53 92 60 136 6 32 14 66 17 74 3 8 6 18 5 22 -1 4
34 33 78 64 44 32 80 61 80 65 0 20 -21 16 -61 -13z m-134 -185 c-12 -62 -26
-93 -63 -148 -53 -77 -92 -99 -92 -50 0 28 24 81 39 87 12 4 71 123 71 143 0
21 52 73 57 58 2 -6 -3 -47 -12 -90z"/>
<path d="M5490 4697 c0 -8 19 -33 85 -110 19 -22 40 -13 22 9 -30 38 -107 111
-107 101z"/>
<path d="M5669 4639 l-24 -20 28 17 c15 9 27 18 27 20 0 8 -8 4 -31 -17z"/>
<path d="M6582 4273 c-21 -21 -24 -26 -7 -10 17 15 36 27 42 27 7 0 15 5 18
10 15 24 -19 7 -53 -27z"/>
<path d="M6516 4204 c-5 -14 -4 -15 9 -4 17 14 19 20 6 20 -5 0 -12 -7 -15
-16z"/>
<path d="M6009 4022 c19 -15 55 -44 80 -66 25 -21 69 -54 98 -74 57 -38 63
-53 43 -122 -17 -60 -22 -63 -71 -52 -183 45 -315 89 -431 147 -70 35 -142 75
-160 89 -29 22 -88 50 -88 42 0 -8 186 -120 260 -156 71 -36 136 -63 165 -71
17 -4 64 -17 105 -27 41 -11 98 -28 127 -37 28 -10 59 -15 68 -11 18 7 65 106
65 137 0 35 -28 76 -60 87 -27 10 -158 97 -170 114 -3 4 -19 11 -35 17 l-30
11 34 -28z"/>
</g>
</svg>
