
<svg version="1.0" xmlns="http://www.w3.org/2000/svg"
 width="120pt" height="120pt" viewBox="0 0 750.000000 1000.000000"
 preserveAspectRatio="xMidYMid meet">

<g transform="translate(0.000000,1000.000000) scale(0.100000,-0.100000)"
fill="#000000" stroke="none">
<path d="M1998 6306 c-16 -5 -28 -13 -28 -18 0 -4 11 -3 24 2 14 5 74 10 135
11 61 1 108 5 105 10 -7 12 -202 8 -236 -5z"/>
<path d="M2250 6301 c0 -5 13 -11 29 -14 16 -4 45 -23 65 -43 38 -39 44 -54
24 -54 -7 -1 -24 -9 -36 -20 -22 -18 -23 -21 -7 -36 12 -12 13 -19 5 -24 -9
-6 -9 -9 1 -14 8 -3 -8 -5 -36 -4 -27 0 -57 0 -66 -1 -32 -2 -110 -64 -135
-107 -28 -47 -40 -56 -31 -24 4 14 -1 24 -15 31 -18 10 -20 9 -15 -5 4 -9 2
-16 -3 -16 -16 0 -11 30 5 36 21 8 20 54 -1 54 -13 0 -14 -3 -5 -14 10 -12 8
-17 -9 -26 -16 -9 -21 -8 -26 5 -3 8 -10 12 -16 9 -5 -3 -1 -12 9 -19 14 -11
16 -18 7 -32 -6 -10 -20 -23 -30 -28 -10 -6 -31 -18 -46 -28 -15 -11 -32 -16
-38 -12 -6 4 -17 2 -24 -5 -8 -6 -26 -8 -42 -4 l-27 7 21 18 c12 9 22 24 22
33 0 8 7 19 16 24 19 10 11 32 -12 32 -8 0 -14 4 -14 9 0 13 -46 1 -48 -12 -1
-7 -6 -32 -11 -57 -8 -43 -9 -44 -10 -10 0 19 6 60 15 90 26 94 25 97 -11 25
-26 -53 -36 -88 -41 -145 -4 -42 -13 -82 -21 -92 -13 -15 -12 -15 24 -3 21 8
76 14 123 15 47 0 115 7 153 14 l67 13 7 -26 c8 -35 51 -91 69 -91 13 0 12 4
-4 25 -26 33 -46 107 -38 147 8 42 39 93 69 112 34 23 115 36 165 26 42 -7
112 -60 112 -84 0 -5 -15 4 -32 21 -45 44 -82 56 -149 48 -94 -11 -153 -87
-134 -173 16 -74 99 -152 161 -152 41 0 127 32 148 55 34 36 122 49 216 30
145 -27 139 -27 91 -5 l-43 20 24 25 c29 29 64 102 54 112 -4 4 -20 2 -36 -4
-38 -14 -39 -8 -2 11 25 14 25 15 5 16 -14 0 -39 -20 -73 -59 -59 -68 -64 -70
-141 -80 l-55 -7 4 51 c3 32 -2 64 -11 88 -9 20 -13 37 -9 37 4 0 15 7 26 15
18 14 17 16 -18 69 -20 30 -36 58 -36 63 0 18 -91 118 -122 135 -37 19 -58 23
-58 9z m195 -221 c9 -32 2 -25 -20 20 -13 27 -14 32 -2 20 8 -8 18 -26 22 -40z
m-45 36 c0 -2 -7 -7 -16 -10 -8 -3 -12 -2 -9 4 6 10 25 14 25 6z m25 -64 c-3
-3 -11 0 -18 7 -9 10 -8 11 6 5 10 -3 15 -9 12 -12z m-64 -47 c28 -15 58 -40
69 -58 44 -72 10 -161 -70 -184 -113 -33 -210 41 -210 160 0 49 14 67 70 91
50 22 84 19 141 -9z m-551 -34 c0 -5 -9 -11 -20 -14 -22 -6 -29 18 -7 26 14 5
27 -1 27 -12z m107 -77 c39 -11 14 -24 -43 -24 -31 0 -53 4 -50 9 4 5 25 8 49
5 31 -2 37 -1 22 6 -23 10 -10 12 22 4z m60 -10 c-3 -3 -12 -4 -19 -1 -8 3 -5
6 6 6 11 1 17 -2 13 -5z m683 -44 c0 -5 -9 -10 -21 -10 -11 0 -17 5 -14 10 3
6 13 10 21 10 8 0 14 -4 14 -10z"/>
<path d="M2273 5963 c-12 -2 -27 -11 -33 -19 -26 -31 46 -74 122 -74 81 0 88
30 18 78 -31 21 -57 25 -107 15z m76 -44 c61 -21 25 -30 -57 -13 -26 5 -20 24
7 24 10 0 32 -5 50 -11z"/>
<path d="M2144 6265 c11 -8 23 -15 28 -15 4 0 21 -24 38 -52 25 -45 30 -49 30
-27 0 31 -68 109 -96 109 -19 -1 -19 -1 0 -15z"/>
<path d="M1971 6224 c-11 -14 -23 -40 -25 -58 -12 -80 -15 -132 -8 -144 5 -8
13 24 20 80 8 64 18 101 32 120 26 35 9 37 -19 2z"/>
<path d="M1834 6198 c-39 -45 -47 -62 -11 -25 34 35 43 47 34 47 -2 0 -12 -10
-23 -22z"/>
<path d="M2250 6130 c0 -5 -8 -10 -17 -10 -10 0 -24 -4 -31 -8 -7 -5 9 -8 40
-8 44 1 54 4 54 19 0 11 -8 17 -23 17 -13 0 -23 -4 -23 -10z"/>
<path d="M2620 6016 c0 -2 11 -6 25 -8 13 -3 22 -1 19 3 -5 9 -44 13 -44 5z"/>
<path d="M1914 5762 c-69 -65 -152 -178 -156 -212 -3 -26 7 -32 82 -55 30 -9
63 -24 72 -32 18 -16 43 -9 32 9 -3 5 -20 19 -38 30 -17 11 -22 17 -11 14 11
-3 27 -1 35 4 11 7 -3 10 -45 11 -33 0 -70 4 -82 7 -21 7 -21 8 17 72 21 36
68 97 104 135 36 39 66 71 66 73 0 11 -24 -7 -76 -56z"/>
<path d="M1620 5784 c-25 -14 -36 -22 -25 -19 57 19 75 28 75 36 0 11 3 12
-50 -17z"/>
<path d="M2665 5780 c-4 -7 -3 -16 2 -21 12 -12 45 0 40 15 -5 15 -34 19 -42
6z"/>
<path d="M2870 5721 c0 -5 7 -14 15 -21 19 -16 19 -49 -1 -71 -14 -16 -18 -15
-61 8 -75 40 -185 43 -303 8 -69 -20 -122 -28 -195 -30 -92 -3 -225 -18 -285
-33 -51 -13 63 -14 166 -2 68 8 113 8 136 2 26 -7 64 -4 144 9 172 30 288 36
319 15 14 -9 25 -22 25 -30 0 -21 -34 -46 -62 -46 -25 0 -131 -65 -253 -153
-78 -57 -131 -77 -205 -77 -33 0 -60 -3 -60 -6 0 -16 23 -44 36 -44 18 0 3
-21 -67 -97 -37 -41 -42 -43 -58 -29 -9 8 -41 20 -70 27 -44 9 -55 9 -62 -2
-12 -20 -11 -24 10 -50 22 -27 38 -21 22 9 -10 19 -8 20 32 15 31 -4 49 -13
70 -36 25 -29 26 -33 11 -44 -19 -14 -10 -35 12 -26 14 5 15 1 9 -26 -4 -18
-10 -57 -14 -87 -4 -29 -16 -63 -26 -74 -14 -16 -15 -19 -4 -15 22 8 59 78 59
110 0 15 5 45 12 67 9 31 9 47 -1 75 -11 30 -11 37 2 50 20 21 53 2 61 -34 14
-63 14 -72 1 -109 -18 -49 -19 -172 -3 -224 10 -31 18 -40 35 -40 42 0 55 118
22 195 -12 28 -13 29 -16 8 -3 -13 -9 -23 -15 -23 -6 0 -8 13 -4 33 3 17 9 51
12 74 7 49 21 63 66 72 31 6 34 5 55 -42 13 -27 23 -66 23 -87 0 -41 14 -61
24 -34 11 30 6 62 -21 120 -28 64 -40 76 -63 69 -8 -2 -32 -7 -52 -11 -34 -6
-39 -4 -47 19 -6 14 -19 31 -31 37 -20 11 -19 13 22 61 23 27 53 52 67 55 59
12 130 53 192 109 86 77 178 143 211 149 40 7 60 20 111 75 47 50 56 76 37
110 -10 20 -40 36 -40 22z m-533 -918 c-11 -64 -27 -58 -35 13 -5 45 -4 46 18
34 19 -10 21 -18 17 -47z"/>
<path d="M1380 5639 c-58 -54 -48 -56 12 -3 31 27 54 55 46 54 -2 -1 -28 -24
-58 -51z"/>
<path d="M2635 5593 c-11 -2 -71 -20 -133 -40 -104 -33 -123 -35 -247 -37 -73
-1 -137 -5 -141 -9 -4 -4 53 -7 127 -6 111 0 150 4 224 25 182 50 211 55 272
52 39 -2 62 1 60 7 -4 10 -126 17 -162 8z"/>
<path d="M1570 5553 c-36 -19 -54 -23 -88 -19 -24 3 -75 1 -114 -4 -60 -9 -81
-17 -124 -50 -63 -47 -68 -65 -68 -220 0 -71 7 -134 22 -195 12 -49 20 -91 18
-93 -2 -1 -41 -2 -86 0 l-83 3 48 53 c26 29 45 55 42 58 -6 7 -78 -70 -91 -97
-5 -10 -12 -19 -16 -19 -17 0 -38 38 -45 79 -4 25 -15 68 -25 97 l-18 52 35
58 34 59 -39 -44 c-21 -25 -43 -41 -49 -38 -6 4 -24 35 -41 70 -16 34 -39 73
-51 87 -16 18 -19 19 -12 5 47 -91 111 -310 111 -379 0 -33 -28 -41 -55 -16
-27 26 -55 25 -89 -1 -24 -19 -27 -19 -48 -5 -32 23 -73 20 -92 -6 -15 -22
-16 -10 -14 174 2 131 0 190 -7 175 -5 -12 -10 -105 -11 -207 l-2 -185 39 0
c32 0 36 2 24 11 -14 10 -14 13 1 25 13 11 23 9 61 -12 25 -13 54 -37 63 -52
10 -16 20 -23 22 -16 7 20 48 0 48 -23 0 -19 33 -101 60 -150 6 -10 10 -33 10
-52 0 -19 4 -37 9 -40 5 -3 12 -22 15 -41 6 -33 16 -41 41 -35 6 1 32 5 60 9
66 8 68 27 12 86 -32 33 -46 57 -50 83 -5 46 -3 48 26 29 22 -14 29 -14 68 -1
24 9 48 19 53 24 5 5 -10 27 -36 53 -50 48 -84 95 -75 103 3 3 44 8 91 10 83
5 85 5 91 -19 4 -13 5 -27 3 -33 -5 -17 34 -64 54 -64 10 0 31 -6 46 -14 15
-7 78 -17 142 -21 102 -6 145 -12 227 -30 12 -3 25 -14 28 -26 4 -11 9 -19 11
-16 10 9 -10 39 -35 51 -14 8 -62 17 -106 21 -78 6 -100 12 -158 41 -16 8 -40
14 -53 14 -29 0 -94 26 -94 37 0 4 -18 97 -40 206 -22 109 -40 219 -40 244 0
44 22 107 42 119 34 21 110 30 203 23 274 -21 357 -29 375 -39 27 -15 47 -2
23 15 -23 16 -105 32 -208 41 -103 8 -117 16 -76 40 17 10 31 22 31 26 0 10 3
11 -50 -19z m-721 -562 c36 -20 102 -121 141 -216 22 -54 52 -113 66 -132 14
-19 24 -35 23 -37 -7 -4 -83 -25 -84 -23 -1 1 -14 46 -29 101 -15 54 -36 117
-46 139 -11 23 -20 51 -20 64 0 26 -55 93 -77 93 -8 0 -11 5 -8 10 8 12 12 12
34 1z m220 -100 c50 -49 91 -91 91 -94 0 -2 -18 -7 -41 -11 -31 -5 -46 -2 -63
12 -28 21 -140 152 -135 156 9 7 45 25 50 26 4 0 48 -40 98 -89z"/>
<path d="M1233 5524 c-26 -25 -39 -41 -28 -35 21 10 93 81 83 81 -3 0 -28 -20
-55 -46z"/>
<path d="M1149 5443 l-24 -28 28 24 c25 23 32 31 24 31 -2 0 -14 -12 -28 -27z"/>
<path d="M2060 5440 c0 -5 7 -10 15 -10 23 0 76 -29 107 -58 33 -30 48 -23 25
12 -27 41 -147 87 -147 56z"/>
<path d="M705 5421 c-3 -6 10 -7 32 -4 50 8 55 13 10 13 -20 0 -38 -4 -42 -9z"/>
<path d="M659 5383 c-13 -16 -12 -17 4 -4 16 13 21 21 13 21 -2 0 -10 -8 -17
-17z"/>
<path d="M1044 5348 l-29 -33 33 29 c17 17 32 31 32 33 0 8 -8 1 -36 -29z"/>
<path d="M1420 5366 c0 -8 4 -17 9 -20 5 -3 43 -75 85 -160 74 -150 115 -206
153 -206 13 0 13 -2 2 -16 -10 -12 -25 -15 -56 -11 -43 5 -54 -2 -30 -20 11
-9 52 -18 179 -38 27 -4 42 -14 55 -35 13 -22 25 -30 45 -30 l29 0 -42 55
c-42 56 -53 61 -136 58 -27 -1 -11 14 25 26 51 17 77 4 162 -85 48 -50 66 -63
68 -50 3 13 10 16 33 11 45 -10 34 4 -23 30 -49 21 -145 105 -121 105 6 0 39
-9 73 -20 34 -11 89 -20 121 -20 33 0 59 -3 59 -7 0 -4 -9 -17 -21 -29 -12
-13 -19 -32 -17 -46 3 -22 4 -22 21 9 9 17 26 33 37 35 19 3 20 4 5 25 -9 12
-33 28 -54 34 l-39 12 20 33 c25 42 7 45 -23 4 -29 -38 -37 -41 -84 -23 -23 8
-84 16 -141 18 -105 3 -160 20 -195 61 -24 28 -110 196 -104 202 3 3 91 11
195 16 112 7 194 16 201 23 6 6 7 13 2 15 -13 7 -323 -10 -375 -20 -37 -7 -48
-7 -48 4 0 15 -48 74 -61 74 -5 0 -9 -6 -9 -14z"/>
<path d="M1070 5243 c-64 -45 -80 -60 -80 -77 0 -4 17 7 38 25 20 19 54 45 75
59 20 14 37 28 37 33 0 10 2 11 -70 -40z"/>
<path d="M2105 5251 c-6 -5 -48 -23 -95 -41 -95 -37 -125 -56 -70 -45 51 10
183 68 188 83 4 14 -10 16 -23 3z"/>
<path d="M711 5164 c-1 -31 37 -152 51 -160 7 -5 9 1 5 17 -7 29 -36 117 -47
144 -8 19 -9 19 -9 -1z"/>
<path d="M2075 5070 c-3 -5 0 -10 9 -10 8 0 23 -3 33 -6 16 -5 16 -4 -1 10
-23 19 -32 20 -41 6z"/>
<path d="M722 4880 c5 -25 7 -83 4 -131 -8 -103 1 -119 55 -95 19 8 52 18 74
23 39 8 60 37 37 52 -5 3 -19 26 -30 51 -24 50 -28 39 -10 -22 9 -32 9 -41 -2
-48 -8 -5 -17 -7 -21 -4 -4 2 -24 -5 -44 -16 -19 -11 -38 -20 -40 -20 -3 0 -5
49 -5 108 0 78 -4 114 -14 128 -13 17 -14 14 -4 -26z"/>
<path d="M821 4864 c0 -11 3 -14 6 -6 3 7 2 16 -1 19 -3 4 -6 -2 -5 -13z"/>
<path d="M1900 4805 c-1 -11 -2 -24 -1 -29 1 -6 5 -23 8 -39 6 -27 4 -30 -15
-25 -27 7 -27 3 -3 -30 11 -16 20 -51 23 -86 3 -40 10 -61 21 -68 23 -12 21
-28 -2 -28 -10 0 -30 -9 -45 -21 l-26 -20 0 49 c0 40 -8 64 -41 121 -22 39
-42 71 -44 71 -2 0 1 -15 7 -32 5 -18 12 -42 15 -53 4 -11 14 -31 25 -44 21
-27 24 -61 6 -62 -7 0 -240 -3 -518 -5 -278 -2 -563 -5 -635 -6 -71 -2 -186 0
-255 4 -73 3 -105 3 -78 -2 26 -5 102 -11 170 -15 130 -7 161 -12 154 -24 -3
-4 7 -6 22 -5 15 2 61 5 103 7 l76 4 7 -81 c3 -45 9 -100 12 -123 6 -39 5 -42
-19 -48 -15 -4 -31 -13 -38 -21 -19 -23 -39 -17 -39 12 0 14 -23 68 -51 120
-55 103 -79 124 -30 27 16 -33 36 -92 44 -132 9 -40 18 -75 21 -78 3 -4 29 1
57 10 28 10 66 17 85 17 33 0 135 -23 154 -35 6 -3 10 -2 10 4 0 10 -40 25
-96 36 -30 6 -32 9 -58 113 -14 59 -26 124 -26 145 l0 37 88 1 c48 1 98 3 112
4 143 12 681 -3 697 -19 3 -2 6 -27 8 -55 l4 -50 -72 -35 c-40 -19 -92 -49
-117 -66 -28 -18 -58 -30 -80 -30 -19 -1 -53 -7 -75 -15 -22 -8 -50 -15 -63
-15 -29 0 -78 -25 -120 -61 -32 -29 -69 -37 -87 -20 -11 9 -112 25 -103 15 3
-3 41 -14 84 -25 85 -21 139 -17 207 17 l32 15 -37 -35 c-21 -20 -45 -48 -55
-63 l-17 -28 24 20 c14 11 51 43 82 72 36 34 65 53 81 53 40 0 135 37 210 83
106 64 109 64 101 19 -8 -49 -32 -68 -161 -126 -141 -64 -302 -184 -291 -216
2 -7 22 3 48 25 111 93 186 138 330 198 47 19 100 70 100 96 0 12 8 33 17 47
15 24 15 29 0 72 -24 66 -22 80 7 75 13 -3 34 2 47 10 13 8 35 18 48 22 23 7
23 6 17 -29 -9 -46 9 -48 24 -2 9 30 31 45 62 46 4 0 -9 -34 -28 -76 -25 -53
-32 -80 -25 -87 7 -7 21 13 44 64 19 41 37 81 40 89 5 16 67 27 67 13 0 -5
-14 -32 -30 -62 -35 -63 -35 -62 -16 -55 8 3 29 30 47 60 l33 54 51 0 50 -1
-30 -16 c-42 -22 -69 -48 -131 -125 -66 -82 -75 -126 -11 -57 23 26 60 68 81
94 21 26 55 54 75 62 20 9 45 20 56 26 11 6 36 10 55 9 19 -1 51 2 70 7 31 8
27 9 -35 11 -38 2 -142 5 -230 9 l-160 6 0 25 c0 22 -5 25 -37 28 -34 3 -38 6
-44 38 -3 19 -4 58 -1 87 5 42 2 62 -18 102 -16 34 -24 44 -25 30z"/>
<path d="M2190 4735 c46 -18 50 -18 44 0 -4 10 -19 15 -43 14 l-36 -1 35 -13z"/>
<path d="M2250 4710 c0 -5 5 -10 10 -10 6 0 10 5 10 10 0 6 -4 10 -10 10 -5 0
-10 -4 -10 -10z"/>
<path d="M2370 4697 c13 -13 90 -33 101 -26 8 4 11 10 9 12 -7 7 -116 20 -110
14z"/>
<path d="M2066 4575 c-3 -8 -1 -15 3 -15 5 0 11 7 15 15 3 8 1 15 -3 15 -5 0
-11 -7 -15 -15z"/>
<path d="M2858 4473 c17 -2 47 -2 65 0 17 2 3 4 -33 4 -36 0 -50 -2 -32 -4z"/>
<path d="M2376 4422 c-3 -5 8 -6 25 -4 16 2 29 6 29 8 0 8 -49 4 -54 -4z"/>
<path d="M2150 4237 c-79 -83 -193 -164 -300 -216 -65 -31 -94 -47 -116 -66
-13 -11 -41 -31 -64 -45 -8 -5 -12 -11 -9 -15 3 -3 23 9 45 26 21 17 77 51
124 76 47 26 110 63 140 82 30 20 65 40 77 46 21 10 189 184 182 188 -2 1 -38
-33 -79 -76z"/>
<path d="M1246 3952 c-13 -25 -12 -31 10 -72 13 -25 24 -54 24 -66 0 -28 37
-67 88 -93 l41 -21 20 26 c12 15 21 35 21 46 0 14 22 29 82 58 45 22 73 40 62
40 -33 0 -148 -60 -174 -91 l-25 -30 -43 28 c-38 25 -42 30 -36 59 5 26 2 34
-16 44 -28 15 -43 56 -30 81 7 13 7 19 1 19 -6 0 -17 -12 -25 -28z"/>
</g>
</svg>
