
<svg version="1.0" xmlns="http://www.w3.org/2000/svg"
 width="120pt" height="120pt" viewBox="0 0 750.000000 1000.000000"
 preserveAspectRatio="xMidYMid meet">

<g transform="translate(0.000000,1000.000000) scale(0.100000,-0.100000)"
fill="#000000" stroke="none">
<path d="M2008 6330 c-7 -11 -21 -20 -32 -20 -29 0 -111 -56 -159 -110 -57
-64 -107 -182 -114 -274 -3 -39 -10 -77 -16 -84 -14 -18 -111 -67 -166 -83
-26 -8 -67 -34 -105 -68 -35 -31 -94 -81 -133 -111 -102 -80 -299 -267 -330
-314 l-26 -40 -10 24 c-32 78 -71 148 -95 167 -42 35 -107 32 -160 -9 -37 -29
-42 -37 -52 -99 -6 -37 -10 -131 -8 -208 l3 -141 -142 0 c-78 0 -148 -3 -157
-6 -44 -17 1 -23 175 -22 209 0 212 -1 222 -58 6 -31 5 -32 -34 -36 -22 -2
-61 2 -87 9 -75 21 -392 14 -392 -8 0 -5 70 -6 159 -3 118 5 172 4 206 -6 30
-8 42 -16 34 -21 -11 -7 27 -5 98 5 20 3 22 -1 21 -55 0 -33 -4 -59 -8 -59
-13 0 -4 -71 10 -81 8 -5 29 -8 47 -6 17 1 31 -1 30 -6 -1 -5 6 -11 17 -12 14
-3 16 -1 7 8 -6 6 -11 15 -11 21 0 5 3 7 6 3 3 -3 15 2 26 13 18 16 78 33 78
22 0 -3 -8 -14 -17 -25 -17 -19 -17 -20 0 -14 11 4 17 1 17 -9 0 -10 -6 -14
-14 -11 -14 6 -32 -21 -21 -31 3 -3 5 0 5 6 0 7 6 12 13 12 8 0 14 -6 14 -12
0 -7 3 -24 7 -37 5 -13 4 -21 0 -19 -5 3 -38 2 -74 -3 -36 -4 -103 -8 -150 -8
-97 -1 -84 -1 -250 10 -133 9 -160 6 -160 -17 0 -15 -1 -15 55 -18 329 -20
311 -18 321 -49 4 -12 22 -53 40 -90 19 -38 39 -98 46 -134 16 -89 27 -102 70
-84 78 32 104 35 165 21 32 -7 69 -20 83 -28 13 -9 52 -22 85 -30 115 -27 130
-26 200 6 36 17 65 30 65 28 0 -2 -40 -38 -89 -80 -103 -88 -117 -116 -81
-166 12 -17 24 -48 27 -70 6 -43 27 -67 88 -99 65 -34 89 -25 101 38 6 30 16
37 113 83 58 28 126 65 151 83 25 18 92 59 150 90 58 32 121 70 141 86 20 16
41 29 47 29 6 0 64 56 129 124 116 123 177 166 234 166 10 0 19 5 19 10 0 15
-36 12 -94 -7 -34 -12 -64 -32 -91 -61 -179 -195 -250 -252 -410 -330 -38 -19
-103 -58 -143 -88 -41 -30 -93 -59 -115 -65 -65 -17 -140 -58 -167 -90 l-25
-30 -43 28 c-38 25 -42 30 -36 59 5 26 2 34 -16 44 -32 17 -43 55 -25 91 9 16
19 29 23 29 4 0 45 34 90 75 53 48 91 75 106 75 39 0 134 38 209 83 106 64
109 64 101 19 -8 -49 -32 -68 -161 -126 -141 -64 -302 -184 -291 -216 2 -7 22
3 48 25 111 93 186 138 330 198 47 19 100 70 100 96 0 12 8 33 17 47 15 24 15
29 0 72 -24 66 -22 80 7 75 13 -3 34 2 47 10 13 8 35 18 48 22 23 7 23 6 17
-29 -9 -47 9 -47 24 -1 6 19 15 35 18 35 4 0 17 3 29 6 22 6 21 3 -13 -71 -25
-53 -32 -81 -25 -88 7 -7 21 13 44 64 19 41 37 81 40 89 5 16 67 27 67 13 0
-5 -14 -32 -30 -62 -35 -63 -35 -62 -16 -55 8 3 29 30 47 60 l33 54 51 0 50
-1 -30 -16 c-42 -22 -69 -48 -131 -125 -66 -82 -75 -126 -11 -57 23 26 60 68
81 94 21 26 55 54 75 62 20 9 46 20 58 26 12 5 151 10 324 11 l304 1 16 -34
c9 -18 45 -61 80 -95 35 -34 119 -125 186 -203 79 -91 144 -157 182 -182 44
-30 60 -48 63 -67 5 -46 30 -52 79 -18 106 73 136 123 106 177 -16 27 -16 28
3 22 11 -3 64 -8 117 -9 116 -4 159 -19 193 -69 26 -39 44 -47 102 -47 31 0
40 5 52 28 8 16 47 47 95 75 44 26 107 69 138 95 32 26 74 55 95 64 27 13 39
26 49 55 6 21 18 47 24 58 7 11 18 38 25 59 l13 39 279 -6 c244 -4 282 -7 298
-22 11 -10 46 -72 79 -139 61 -124 100 -175 152 -196 16 -7 29 -18 29 -24 0
-18 203 -149 315 -204 124 -60 137 -65 255 -96 52 -14 115 -32 139 -40 24 -9
59 -16 78 -16 31 0 36 4 55 48 31 71 35 141 9 173 -11 15 -33 30 -48 34 -15 3
-48 21 -73 40 -25 18 -76 52 -115 75 -73 44 -148 106 -173 141 -13 19 -12 19
15 13 15 -4 44 -15 64 -25 20 -10 66 -25 103 -33 37 -9 101 -32 143 -51 42
-19 82 -35 90 -35 20 0 72 28 116 62 21 17 59 37 85 44 33 10 63 31 104 72 31
31 69 68 84 81 l27 23 256 -6 c141 -4 278 -7 305 -9 32 -1 51 2 53 11 3 8 -8
12 -34 12 -22 0 -64 4 -94 10 -30 5 -171 12 -314 15 -143 3 -305 8 -360 10
l-100 5 3 32 c2 18 8 37 13 42 5 6 9 16 9 24 0 8 14 31 30 52 17 21 30 41 30
44 0 12 55 76 65 76 6 0 3 -5 -5 -11 -12 -8 -12 -10 -1 -7 8 2 15 14 16 26 2
29 8 34 45 38 22 3 29 0 24 -9 -3 -6 5 1 18 17 24 29 48 34 108 23 14 -2 35
-5 48 -6 12 0 22 -7 22 -15 0 -24 18 -28 52 -12 35 18 72 21 63 6 -4 -6 -11
-7 -17 -4 -7 4 -8 2 -4 -5 5 -8 15 -6 33 9 21 16 29 18 41 8 12 -10 14 -10 9
-1 -5 7 4 25 20 43 27 30 29 31 88 25 33 -4 70 -13 82 -21 20 -12 22 -12 17 1
-5 12 0 14 26 9 30 -7 49 5 50 29 0 4 -39 7 -87 7 -49 0 -94 4 -101 9 -10 6 3
26 50 80 34 40 75 79 90 87 43 22 34 41 -29 70 -49 22 -68 25 -123 21 -36 -3
-73 -8 -82 -12 -15 -6 -15 -2 3 45 24 62 49 179 49 225 0 18 -9 43 -19 56 -17
22 -27 24 -103 24 -76 0 -87 -3 -134 -33 -29 -18 -64 -48 -79 -67 -14 -19 -30
-35 -36 -35 -5 0 -9 27 -9 60 0 106 -33 137 -138 127 -52 -4 -59 -2 -87 23
-25 24 -124 80 -233 134 -55 27 -28 86 40 86 45 0 78 15 78 34 0 17 -63 99
-114 148 -21 20 -59 45 -85 54 -25 10 -55 25 -66 34 -11 9 -42 29 -70 45 -63
35 -60 32 -46 49 13 16 7 36 -11 36 -6 0 -16 -7 -22 -15 -10 -14 -21 -11 -84
22 -104 53 -149 52 -275 -9 -53 -26 -117 -66 -142 -89 -41 -38 -46 -47 -43
-77 4 -33 3 -34 -26 -27 -104 21 -112 20 -161 -21 -116 -97 -127 -234 -25
-292 29 -17 30 -19 24 -73 -10 -85 6 -121 64 -147 27 -12 53 -22 58 -22 17 0
56 -60 50 -76 -3 -8 -26 -24 -51 -35 -26 -11 -49 -28 -52 -37 -3 -9 -22 -33
-41 -54 -35 -37 -51 -85 -52 -159 0 -31 -4 -37 -25 -41 -21 -4 -24 -2 -20 12
17 53 -28 74 -116 53 -71 -16 -89 -27 -89 -53 0 -20 44 -60 66 -60 22 0 16 26
-8 38 -22 10 -22 11 7 11 17 1 43 10 59 20 37 25 46 19 46 -28 0 -51 7 -55 43
-25 l30 26 12 -29 12 -28 -93 -5 c-71 -4 -98 -9 -111 -23 -16 -16 -12 -17 101
-17 108 0 118 -2 112 -17 -4 -10 -4 -14 0 -10 8 8 44 -21 44 -35 0 -14 -18 -9
-23 7 -3 11 -4 10 -3 -2 1 -13 9 -17 29 -15 15 2 27 -2 27 -9 0 -6 7 -9 15 -5
8 3 15 2 15 -3 0 -5 9 -11 21 -14 12 -3 18 -10 14 -16 -4 -7 3 -11 16 -11 12
0 20 -3 16 -6 -3 -4 -77 4 -164 17 -136 21 -194 24 -415 23 -142 0 -254 2
-250 5 5 3 15 34 23 69 13 63 14 64 42 58 16 -3 34 -6 39 -6 5 0 7 -4 3 -9 -3
-5 0 -13 6 -17 8 -5 9 -3 4 6 -6 10 1 12 39 7 109 -15 269 -20 262 -9 -4 7
-22 12 -41 12 -44 0 -85 16 -85 33 0 8 -9 22 -20 32 -24 22 -25 41 -5 89 17
40 12 77 -13 99 -17 14 -147 57 -175 57 -8 0 -29 -13 -46 -29 l-31 -29 -30 98
c-17 54 -37 104 -46 111 -9 7 -31 12 -49 12 -31 -1 -33 1 -32 33 1 40 14 47
85 44 122 -4 284 87 365 205 48 71 65 123 53 169 -9 36 -161 106 -329 151 -71
20 -139 41 -150 47 -12 6 -42 16 -67 23 l-45 11 -6 84 -7 85 -45 41 c-25 23
-61 48 -80 57 -40 19 -184 36 -174 20 4 -6 32 -13 63 -16 67 -7 179 -60 203
-96 14 -23 34 -145 21 -138 -26 16 -90 40 -137 53 -109 28 -404 -2 -461 -48
-21 -18 -24 -2 -12 57 7 35 22 67 38 86 35 38 136 89 176 89 17 0 38 5 46 10
11 7 1 10 -35 10 -84 0 -215 -76 -228 -133 -3 -12 -10 -47 -17 -78 l-11 -57
-52 -6 c-29 -4 -86 -13 -127 -21 -41 -8 -135 -24 -209 -35 -73 -12 -145 -27
-160 -35 -34 -17 -78 -64 -89 -95 -20 -54 26 -160 99 -227 30 -28 65 -46 137
-70 53 -18 107 -32 120 -33 24 0 26 -7 13 -43 -9 -23 -11 -23 -70 -13 -57 9
-62 8 -87 -15 -35 -33 -48 -59 -78 -164 -14 -49 -38 -115 -53 -147 -24 -53
-28 -57 -43 -43 -21 19 -54 19 -70 0 -6 -8 -32 -26 -56 -40 -49 -29 -94 -91
-94 -130 l0 -25 -155 0 -155 0 0 35 c0 20 -9 53 -20 75 -11 22 -20 46 -20 54
0 33 -64 43 -124 20 -7 -3 -19 11 -29 31 -9 19 -21 35 -27 35 -15 0 1 27 43
73 22 23 44 37 59 37 38 0 124 48 166 92 50 53 201 158 228 158 47 0 154 113
154 162 0 38 -80 114 -130 123 -19 3 -48 11 -63 17 -27 11 -28 11 -7 25 35 25
80 94 80 124 0 24 -5 30 -37 38 -71 19 -184 41 -212 41 -33 0 -60 27 -92 95
-13 27 -50 77 -82 111 -66 71 -100 84 -221 84 -41 0 -78 5 -81 10 -11 17 -54
11 -67 -10z m57 0 c4 -6 -5 -10 -20 -10 -15 0 -24 4 -20 10 3 6 12 10 20 10 8
0 17 -4 20 -10z m281 -88 c36 -37 42 -52 22 -52 -7 -1 -24 -9 -36 -20 -23 -19
-23 -21 -7 -37 13 -12 14 -18 5 -21 -9 -3 -9 -7 1 -14 9 -6 -3 -8 -36 -7 -27
1 -57 1 -66 0 -32 -2 -110 -64 -135 -107 -28 -47 -40 -56 -31 -24 4 14 -1 24
-15 31 -18 10 -20 9 -15 -5 4 -9 2 -16 -3 -16 -16 0 -11 30 5 36 21 8 20 54
-1 54 -13 0 -14 -3 -5 -14 10 -12 8 -17 -9 -26 -16 -9 -21 -8 -26 5 -3 8 -10
12 -16 9 -5 -3 -1 -12 9 -19 14 -11 16 -18 7 -32 -6 -10 -20 -23 -30 -28 -10
-6 -31 -18 -46 -28 -15 -11 -32 -16 -38 -12 -6 4 -17 2 -24 -5 -8 -6 -26 -8
-42 -4 l-27 7 21 18 c12 9 22 24 22 33 0 8 7 19 16 24 19 10 11 32 -12 32 -8
0 -14 4 -14 9 0 13 -46 1 -48 -12 -1 -7 -6 -32 -11 -57 l-10 -45 3 55 c8 114
70 227 156 283 51 34 73 39 200 46 136 7 185 -5 236 -57z m99 -162 c9 -32 2
-25 -20 20 -13 27 -14 32 -2 20 8 -8 18 -26 22 -40z m-45 36 c0 -2 -7 -7 -16
-10 -8 -3 -12 -2 -9 4 6 10 25 14 25 6z m3435 -46 c-3 -5 -11 -10 -16 -10 -6
0 -7 5 -4 10 3 6 11 10 16 10 6 0 7 -4 4 -10z m-3498 -10 c24 0 103 -64 103
-83 0 -6 -15 3 -32 20 -45 44 -82 56 -149 48 -94 -11 -153 -87 -134 -173 16
-74 99 -152 161 -152 41 0 127 32 148 55 15 16 41 27 81 34 59 11 96 7 253
-27 18 -4 55 -26 82 -50 52 -45 61 -71 36 -104 -12 -17 -16 -16 -61 8 -78 41
-185 44 -305 9 -69 -20 -122 -28 -195 -30 -92 -3 -225 -18 -285 -33 -51 -13
63 -14 166 -2 68 8 113 8 136 2 26 -7 64 -4 144 9 172 30 288 36 319 15 14 -9
25 -22 25 -28 0 -22 -33 -48 -60 -48 -27 0 -129 -62 -255 -153 -78 -57 -131
-77 -205 -77 -33 0 -60 -3 -60 -6 0 -16 23 -44 36 -44 18 0 3 -21 -67 -97 -37
-40 -42 -43 -58 -29 -14 13 -86 35 -117 36 -7 0 -15 -7 -18 -16 -7 -19 30 -84
49 -84 7 0 -7 -20 -31 -44 -39 -40 -47 -44 -74 -36 -16 5 -35 12 -42 16 -7 4
-58 9 -114 10 -105 2 -159 19 -195 60 -24 28 -110 196 -104 202 3 3 90 11 193
17 176 10 225 18 205 34 -10 9 -313 -5 -375 -17 -38 -8 -48 -7 -48 4 0 20 -57
80 -66 71 -5 -4 0 -20 9 -35 9 -15 48 -90 86 -168 68 -138 111 -194 148 -194
13 0 13 -2 2 -16 -10 -12 -25 -15 -56 -11 -43 5 -54 -2 -30 -20 11 -9 53 -18
179 -38 44 -7 68 -40 93 -130 10 -33 25 -71 35 -85 10 -14 20 -51 22 -84 3
-40 10 -61 21 -68 23 -12 21 -28 -2 -28 -10 0 -30 -9 -45 -21 l-26 -20 0 50
c0 42 -8 64 -49 133 -26 46 -52 93 -55 106 -11 33 -51 49 -141 57 -78 6 -100
12 -158 41 -16 8 -40 14 -53 14 -29 0 -94 26 -94 37 0 4 -18 97 -40 206 -22
109 -40 219 -40 244 0 44 22 107 42 119 34 21 110 30 203 23 274 -21 357 -29
375 -39 27 -15 47 -2 23 15 -23 16 -105 32 -208 41 -103 8 -117 16 -76 40 50
29 36 36 -16 8 -38 -20 -57 -24 -91 -20 -24 3 -75 1 -114 -4 -60 -9 -81 -17
-124 -50 -63 -47 -68 -65 -68 -220 0 -71 7 -134 22 -195 12 -49 20 -91 18 -93
-2 -1 -41 -2 -86 0 l-83 3 48 53 c26 29 45 55 42 58 -6 7 -78 -70 -91 -97 -5
-10 -12 -19 -16 -19 -17 0 -38 38 -45 79 -4 25 -16 69 -26 98 l-18 53 37 53
c41 60 229 240 337 322 39 29 95 76 125 104 30 28 59 51 63 51 19 0 162 62
189 82 26 18 52 23 162 29 72 5 148 13 169 18 35 8 37 8 43 -18 9 -35 51 -91
70 -91 13 0 12 4 -4 25 -26 33 -46 107 -38 147 8 43 39 93 69 113 28 18 103
35 132 29 11 -2 30 -4 42 -4z m88 -8 c-3 -3 -11 0 -18 7 -9 10 -8 11 6 5 10
-3 15 -9 12 -12z m3375 4 c0 -3 -4 -8 -10 -11 -5 -3 -10 -1 -10 4 0 6 5 11 10
11 6 0 10 -2 10 -4z m-1685 -22 c55 -9 161 -36 235 -59 74 -24 173 -53 220
-64 121 -31 276 -99 289 -127 22 -49 -33 -151 -127 -235 -68 -61 -178 -110
-257 -117 -60 -4 -65 -3 -65 16 0 11 -8 30 -18 43 -16 19 -17 29 -9 63 6 23
18 51 27 63 10 12 23 42 30 67 7 25 21 53 31 62 26 23 24 59 -3 76 -47 29
-166 78 -248 101 -101 29 -140 36 -244 42 -56 3 -82 9 -90 20 -9 13 -17 14
-40 5 -16 -6 -31 -9 -33 -6 -12 11 81 30 149 31 43 0 78 3 78 7 0 25 -152 21
-250 -8 -30 -8 -71 -19 -90 -24 -34 -9 -328 -14 -319 -6 4 4 229 41 334 54
110 15 300 13 400 -4z m-1754 -29 c28 -15 58 -40 69 -58 44 -72 10 -161 -70
-184 -113 -33 -210 41 -210 160 0 49 14 67 70 91 50 22 84 19 141 -9z m234 11
c44 -8 94 -18 110 -21 l30 -7 -66 -68 c-66 -69 -72 -72 -165 -83 l-30 -3 4 51
c3 31 -2 64 -11 86 -13 32 -13 37 2 47 21 15 33 14 126 -2z m-785 -45 c0 -5
-9 -11 -20 -14 -22 -6 -29 18 -7 26 14 5 27 -1 27 -12z m980 -11 c0 -4 -9 -6
-19 -3 -10 3 -28 0 -40 -6 -12 -7 -21 -9 -21 -6 0 9 64 34 72 29 5 -3 8 -9 8
-14z m757 -8 c7 -4 -19 -6 -58 -4 -60 4 -72 2 -84 -14 -14 -19 -11 -34 6 -34
5 0 9 9 9 20 0 24 16 26 36 6 12 -13 9 -17 -29 -34 -55 -24 -79 -49 -72 -73 9
-28 18 -116 19 -194 l1 -70 -31 -3 c-47 -5 -214 53 -251 87 -44 40 -79 98 -93
149 -10 38 -9 47 10 76 24 40 59 65 115 82 44 14 401 19 422 6z m2385 -19
c-21 -8 -52 -80 -52 -123 0 -114 106 -219 181 -180 13 7 36 23 50 37 l26 24
26 -78 c13 -43 35 -101 47 -129 31 -70 23 -89 -33 -80 -23 4 -67 15 -97 26
-166 56 -196 62 -355 71 -201 12 -337 11 -370 -1 -26 -10 -69 -85 -59 -102 7
-11 -4 -10 -27 2 -33 18 -23 54 29 102 27 25 58 51 70 57 27 14 84 12 137 -5
22 -7 117 -20 210 -28 184 -18 204 -22 310 -59 110 -39 115 -40 115 -24 0 19
-166 84 -246 97 -33 6 -126 16 -209 24 -82 8 -178 22 -213 31 -91 23 -115 15
-195 -67 l-68 -70 2 68 c1 37 13 102 26 143 29 95 30 154 3 189 -29 36 -13 45
54 33 103 -19 133 -30 151 -57 10 -15 22 -23 31 -20 8 3 14 1 14 -5 0 -13 73
-7 140 11 28 7 73 9 120 5 l75 -6 20 43 c20 41 82 95 94 82 3 -4 0 -9 -7 -11z
m131 -24 l31 -31 -52 -25 c-36 -17 -52 -30 -52 -43 0 -26 35 -43 81 -38 35 3
39 1 39 -20 0 -13 -13 -37 -29 -53 -77 -76 -171 10 -158 144 3 41 10 55 33 74
39 31 70 29 107 -8z m-2418 -20 c17 -10 41 -30 55 -44 25 -26 26 -26 120 -20
52 4 107 9 121 10 14 2 52 -4 83 -13 l57 -15 37 35 c62 59 83 65 165 42 16 -5
16 -7 -2 -30 -30 -38 -37 -106 -16 -162 20 -55 61 -102 87 -102 21 0 22 -6 7
-49 -9 -25 -8 -36 5 -56 18 -27 20 -44 7 -63 -6 -11 -27 -4 -92 32 -46 25
-133 61 -194 81 -99 33 -117 36 -183 31 -41 -3 -104 -14 -140 -25 -37 -10
-101 -25 -142 -32 -41 -7 -87 -18 -102 -26 -15 -7 -38 -13 -53 -13 -14 0 -25
-4 -25 -10 0 -15 36 -12 136 10 156 35 184 40 288 46 79 4 111 2 145 -10 24
-9 58 -16 75 -16 52 0 130 -28 185 -65 28 -19 55 -35 60 -35 5 0 12 -4 15 -9
8 -12 -89 -108 -117 -116 -12 -4 -37 -13 -55 -21 -18 -8 -64 -21 -103 -28 -39
-8 -73 -17 -76 -20 -12 -11 63 -6 120 9 32 8 70 15 85 15 15 0 45 9 66 19 l38
20 -15 -22 c-7 -12 -48 -40 -90 -62 -41 -22 -96 -55 -121 -73 -55 -40 -76 -41
-179 -12 -109 30 -107 19 3 -13 109 -33 131 -33 167 -3 36 30 160 98 181 100
30 2 59 30 67 66 12 55 22 69 48 64 12 -2 35 -5 50 -6 36 -3 41 -13 72 -140
32 -133 34 -255 5 -321 l-20 -46 -63 1 c-89 0 -122 -19 -154 -90 -22 -49 -24
-67 -20 -124 5 -55 3 -68 -9 -68 -8 0 -14 4 -14 8 0 13 -42 30 -94 37 -35 6
-50 13 -56 29 -6 17 3 32 55 86 40 42 67 80 73 104 6 20 25 60 42 87 30 46 34
49 76 49 52 0 134 20 134 33 0 6 -20 7 -46 3 -26 -3 -66 -6 -89 -6 -49 0 -135
-51 -222 -132 -28 -26 -56 -48 -61 -48 -12 0 -29 -42 -40 -95 l-8 -39 -23 34
c-13 19 -39 51 -57 70 -18 19 -34 44 -36 55 -3 18 2 20 52 17 52 -3 58 -1 87
30 17 18 43 41 57 51 14 10 35 35 45 55 10 20 41 52 67 71 47 32 48 33 76 17
15 -10 52 -23 80 -31 29 -8 64 -18 77 -21 21 -6 22 -5 12 13 -6 13 -25 23 -51
27 -46 7 -46 5 -10 101 21 57 34 145 21 145 -10 0 -21 -34 -21 -65 0 -11 -13
-46 -28 -77 -22 -45 -30 -54 -38 -41 -6 9 -30 17 -62 21 -47 4 -58 1 -119 -35
-105 -62 -148 -82 -203 -94 -31 -6 -56 -19 -63 -30 -7 -12 -23 -19 -43 -19
-30 0 -31 2 -30 38 1 36 0 37 -37 37 -25 0 -36 4 -33 12 3 7 -15 34 -39 61
-51 56 -157 112 -263 139 -91 23 -122 53 -122 122 0 50 -14 69 -24 34 -3 -10
-8 -64 -12 -120 -6 -99 -6 -102 20 -136 l27 -35 -31 -7 c-16 -4 -30 -11 -30
-16 0 -13 56 -39 87 -39 33 -1 143 -58 153 -80 87 -177 94 -200 78 -252 -9
-32 -9 -41 5 -56 16 -18 15 -20 -28 -51 -45 -32 -75 -35 -75 -8 0 7 14 34 30
60 22 35 30 60 30 92 0 40 -6 52 -55 108 -117 133 -115 133 -239 97 -73 -21
-80 -20 -96 10 -9 17 -6 22 22 33 31 13 33 17 33 63 l0 49 -43 3 c-43 3 -43 3
-36 35 3 18 13 44 20 59 7 14 25 64 38 110 33 112 40 130 64 151 18 17 23 17
89 2 52 -12 78 -24 98 -45 16 -17 32 -30 37 -30 20 0 5 35 -27 64 -41 38 -42
43 -14 90 15 26 20 49 17 80 l-3 45 21 -20 c27 -25 63 -24 104 4 57 38 75 72
73 133 -1 41 -9 67 -32 104 -26 43 -28 49 -13 53 23 6 51 -2 87 -24z m-1728 5
c39 -11 14 -24 -43 -24 -31 0 -53 4 -50 9 4 5 25 8 49 5 31 -2 37 -1 22 6 -23
10 -10 12 22 4z m60 -10 c-3 -3 -12 -4 -19 -1 -8 3 -5 6 6 6 11 1 17 -2 13 -5z
m1569 -33 c34 -51 41 -108 20 -153 -17 -35 -61 -68 -92 -68 -31 0 -64 40 -64
79 0 27 3 32 12 23 17 -17 43 -15 88 8 68 35 44 74 -46 74 -30 1 -54 4 -54 7
0 20 65 69 92 69 10 0 29 -18 44 -39z m824 4 c17 -9 30 -20 30 -24 0 -5 3 -16
6 -25 4 -11 -4 -15 -37 -18 -81 -6 -74 -68 8 -68 36 0 41 -12 22 -54 -23 -50
-58 -36 -99 41 -26 48 -22 95 11 137 24 31 22 30 59 11z m846 -12 c7 -10 14
-36 14 -58 0 -38 -23 -146 -36 -166 -8 -14 -37 6 -56 39 l-18 30 31 12 c17 7
35 25 41 39 8 22 6 29 -17 48 -21 19 -24 26 -16 42 9 16 23 27 40 30 2 1 10
-7 17 -16z m-2556 -3 c0 -5 -9 -10 -21 -10 -11 0 -17 5 -14 10 3 6 13 10 21
10 8 0 14 -4 14 -10z m3440 -20 c0 -5 -9 -10 -20 -10 -11 0 -20 5 -20 10 0 6
9 10 20 10 11 0 20 -4 20 -10z m-2613 -41 c26 -10 27 -12 8 -19 -28 -12 -57
-12 -75 0 -13 9 -13 11 0 20 19 13 33 12 67 -1z m906 -19 c16 0 18 -3 10 -11
-14 -14 -63 -4 -63 12 0 6 7 8 16 5 9 -3 25 -6 37 -6z m747 -20 c0 -5 -4 -10
-10 -10 -5 0 -10 5 -10 10 0 6 5 10 10 10 6 0 10 -4 10 -10z m1193 -215 c28
-14 65 -36 81 -49 l30 -23 -55 -13 c-30 -7 -66 -19 -81 -26 l-26 -13 5 39 c5
35 1 44 -30 79 -19 22 -41 49 -47 61 -11 20 -9 20 29 -5 23 -14 65 -36 94 -50z
m-603 -54 c77 -6 162 -18 200 -30 234 -71 234 -71 305 -68 39 2 112 16 164 31
91 26 143 29 198 11 19 -6 22 -16 28 -98 12 -175 9 -447 -5 -492 -7 -21 -30
-44 -76 -75 -36 -24 -72 -57 -80 -71 -17 -33 -65 -69 -92 -69 -11 0 -24 -6
-30 -13 -18 -21 -33 -105 -33 -183 l0 -74 -32 14 c-19 7 -40 10 -52 5 -25 -10
-95 -11 -95 -2 0 4 22 41 50 83 37 56 53 92 60 136 6 32 14 66 17 74 3 8 6 18
5 22 -1 4 34 33 78 64 44 32 80 61 80 65 0 20 -21 16 -61 -13 -29 -21 -65 -35
-104 -42 -58 -11 -61 -12 -87 -61 -14 -27 -32 -74 -38 -104 -9 -40 -21 -62
-47 -86 -25 -23 -36 -42 -40 -73 -7 -54 -21 -65 -57 -47 -16 8 -36 15 -45 15
-22 0 -81 37 -81 51 0 6 7 8 16 5 8 -3 26 1 40 10 13 9 24 13 24 9 0 -4 22 12
49 34 61 51 96 111 105 181 15 116 46 138 199 141 82 2 107 6 107 16 0 7 -7
13 -15 13 -27 0 -16 40 40 145 43 81 55 112 55 147 0 25 11 75 25 112 23 61
23 66 7 66 -25 0 -61 -30 -44 -37 9 -3 3 -16 -20 -41 -18 -21 -43 -50 -55 -67
-18 -25 -25 -28 -40 -19 -10 6 -23 29 -29 50 -6 21 -16 39 -22 39 -7 0 -28 13
-48 29 -30 24 -34 25 -25 7 9 -16 46 -46 67 -55 1 -1 5 -12 9 -26 7 -22 6 -23
-9 -11 -9 7 -16 10 -16 5 0 -4 12 -18 28 -30 l27 -23 -75 6 c-68 5 -87 2 -195
-32 -144 -45 -138 -59 8 -17 108 31 167 44 167 37 0 -6 -149 -93 -240 -139
-89 -46 -84 -43 -72 -50 11 -6 168 68 256 122 63 38 136 55 173 41 20 -7 22
-15 22 -69 -1 -33 -5 -63 -10 -65 -4 -3 -7 10 -5 30 4 50 -18 39 -25 -14 -4
-33 -16 -52 -54 -91 l-49 -50 -192 0 c-249 0 -275 6 -353 82 -34 32 -61 60
-61 63 0 2 12 0 26 -5 14 -6 45 -10 69 -10 38 0 50 6 86 39 22 22 39 46 36 53
-6 17 -106 13 -154 -7 -44 -19 -126 -11 -163 15 -31 22 -54 25 -103 15 -25 -5
-42 -3 -52 5 -12 10 -15 10 -16 -1 0 -8 -5 -3 -10 11 -20 49 15 165 46 154 24
-10 18 3 -21 41 -40 40 -39 57 1 31 14 -9 30 -14 36 -11 11 8 65 -30 126 -88
55 -52 69 -40 17 14 -54 56 -161 126 -206 134 -36 7 -36 7 -26 38 15 46 25 55
61 60 41 6 176 1 347 -12z m-4925 -66 c33 -26 108 -246 121 -353 5 -51 4 -60
-11 -66 -12 -4 -26 1 -40 14 -27 26 -55 25 -89 -1 -24 -19 -27 -19 -48 -5 -33
23 -73 20 -91 -6 -15 -21 -16 -11 -16 137 -1 214 2 228 52 265 45 33 90 38
122 15z m6209 -42 c19 -25 19 -27 -2 -122 -12 -53 -37 -125 -55 -161 -28 -54
-39 -66 -61 -68 -16 -2 -27 0 -25 5 2 4 23 48 47 97 24 48 41 90 39 93 -5 5
-47 -51 -47 -63 0 -4 -19 -36 -41 -71 -36 -55 -46 -64 -79 -69 -43 -7 -74 -33
-98 -83 -29 -59 -39 -49 -31 31 4 40 12 86 19 103 6 16 11 60 12 97 0 58 5 75
30 112 53 81 131 125 223 125 42 0 53 -4 69 -26z m-3694 -176 c0 -5 -4 -5 -10
-2 -5 3 -18 -8 -29 -25 -15 -25 -20 -28 -25 -15 -8 21 -8 70 0 77 7 8 64 -24
64 -35z m1985 -34 c0 -32 3 -67 8 -79 6 -16 2 -23 -18 -32 -14 -6 -25 -18 -25
-27 0 -20 -3 -20 87 19 79 35 95 39 124 37 9 0 74 -55 145 -121 128 -119 161
-139 231 -144 51 -3 37 -51 -23 -76 -23 -10 -45 -27 -48 -38 -12 -36 -33 -34
-41 5 -4 23 -13 37 -26 40 -10 3 -19 14 -19 24 0 18 -15 34 -99 106 -27 23
-42 31 -38 21 9 -26 -31 -23 -60 4 -13 12 -23 16 -23 10 0 -22 161 -181 196
-194 38 -13 46 -43 14 -53 -11 -3 -29 -19 -40 -36 -24 -33 -56 -38 -65 -10 -3
11 -22 32 -42 47 -21 16 -45 48 -59 81 -53 119 -103 158 -195 151 -36 -3 -63
0 -68 6 -18 24 -32 104 -26 156 4 43 11 59 33 77 15 12 30 22 35 23 4 0 7 8 7
18 0 17 18 42 30 42 3 0 5 -26 5 -57z m1133 -67 l-13 -31 -6 50 c-4 37 -2 57
10 75 l16 24 3 -43 c2 -24 -3 -58 -10 -75z m-2958 54 c30 -12 84 -42 119 -68
63 -47 63 -47 33 -50 -37 -4 -102 22 -102 41 0 8 -9 22 -20 32 -18 17 -23 17
-84 1 -81 -20 -100 -20 -120 -1 -15 15 -12 38 7 63 13 17 97 8 167 -18z m1219
-14 c72 -21 78 -27 62 -74 -30 -89 -32 -92 -51 -82 -25 14 -63 13 -78 -2 -6
-6 -15 -8 -19 -4 -4 4 -2 11 6 15 7 5 11 21 9 37 l-4 29 -18 -36 c-26 -51 -52
-43 -59 19 -5 50 10 93 40 112 19 11 27 10 112 -14z m-2536 -39 c25 -29 26
-33 10 -44 -24 -18 -34 -16 -40 7 -3 10 -13 22 -22 25 -10 3 -28 16 -40 29
l-23 24 44 -5 c32 -4 50 -13 71 -36z m99 31 c16 -13 35 -68 33 -98 0 -8 -7
-35 -14 -59 -13 -44 -11 -169 4 -225 7 -26 6 -28 -16 -21 -13 4 -29 13 -35 21
-6 8 -23 14 -37 14 -55 0 -76 31 -41 61 23 19 54 85 54 115 0 15 5 44 12 66 9
31 9 47 -1 74 -10 27 -10 38 -1 49 15 18 22 19 42 3z m752 -49 c14 -11 26 -26
26 -34 0 -12 55 -44 82 -46 15 -2 -38 -16 -64 -18 -10 0 -39 18 -66 42 -40 36
-47 46 -38 60 14 22 28 21 60 -4z m-558 -202 c-5 -86 -3 -113 9 -137 20 -38 9
-43 -65 -32 -47 7 -55 11 -52 27 9 52 5 153 -8 180 -13 28 -14 29 -17 8 -3
-13 -9 -23 -15 -23 -6 0 -8 13 -4 33 3 17 9 51 12 74 7 49 21 63 66 72 31 6
34 5 56 -44 22 -46 24 -58 18 -158z m1057 159 c10 -27 16 -51 13 -53 -2 -2
-39 12 -81 31 -50 23 -94 36 -124 37 -45 1 -45 2 16 10 34 5 72 14 85 19 48
20 71 9 91 -44z m675 29 c-28 -16 -72 -10 -46 6 7 5 27 9 43 8 l30 0 -27 -14z
m1622 9 c0 -3 -28 -18 -63 -34 l-63 -28 -55 18 -54 19 43 -6 c24 -3 53 -1 65
5 12 5 45 14 72 20 28 5 51 10 53 11 1 0 2 -2 2 -5z m-2670 -24 c-12 -23 -28
-25 -67 -7 l-27 12 44 6 c25 3 49 7 53 7 4 1 3 -7 -3 -18z m-240 -16 c-8 -8
-23 -20 -34 -25 -15 -7 -13 -3 7 15 31 29 47 35 27 10z m4281 -1 c52 -24 49
-37 -8 -30 -45 5 -109 -12 -210 -54 -29 -12 -37 -11 -80 11 l-48 25 50 5 c50
6 88 21 113 47 20 20 137 17 183 -4z m-5015 -8 c36 6 36 6 30 -20 -4 -15 -10
-40 -13 -56 -7 -34 -43 -42 -43 -9 0 19 -32 44 -43 33 -3 -3 -19 -2 -34 2
l-28 7 33 29 c27 24 36 28 48 18 9 -7 27 -9 50 -4z m1960 2 c-97 -63 -124 -88
-130 -122 -11 -58 -42 -62 -93 -12 -23 22 -40 43 -38 47 3 4 24 10 47 14 24 4
68 21 98 38 30 17 71 35 90 39 48 9 47 9 26 -4z m-1168 -19 c2 -11 -10 -24
-37 -37 -22 -12 -43 -21 -46 -21 -12 0 -3 20 21 50 28 33 57 36 62 8z m708
-16 c8 -11 20 -13 44 -9 32 7 32 7 26 -25 -8 -42 -14 -46 -31 -21 -10 15 -30
22 -76 27 -34 3 -63 7 -64 9 -2 1 -5 11 -9 22 -5 19 -2 20 46 16 32 -2 57 -9
64 -19z m-2817 9 c36 -20 102 -121 141 -216 22 -54 52 -113 66 -132 14 -19 24
-35 23 -37 -7 -4 -83 -25 -84 -23 -1 1 -14 46 -29 101 -15 54 -36 117 -46 139
-11 23 -20 51 -20 64 0 26 -55 93 -77 93 -8 0 -11 5 -8 10 8 12 12 12 34 1z
m-103 -27 c53 -31 58 -39 91 -155 21 -74 23 -93 12 -99 -7 -5 -16 -7 -20 -4
-4 2 -24 -5 -44 -16 -19 -11 -38 -20 -40 -20 -3 0 -5 48 -5 108 0 116 -16 163
-60 177 -17 5 -19 10 -9 21 16 19 24 18 75 -12z m323 -73 c50 -49 91 -91 91
-94 0 -2 -18 -7 -41 -11 -31 -5 -46 -2 -63 12 -28 21 -140 152 -135 156 9 7
45 25 50 26 4 0 48 -40 98 -89z m739 75 c45 -23 147 -137 177 -196 15 -30 45
-79 67 -108 l40 -53 -26 -34 c-24 -31 -29 -33 -68 -28 -24 3 -45 8 -48 10 -3
3 -5 44 -6 91 0 104 -12 133 -85 225 -55 69 -62 73 -146 70 -22 -1 -14 13 15
24 38 15 49 15 80 -1z m122 -6 c34 -11 89 -20 121 -20 63 0 70 -7 39 -35 -11
-10 -20 -31 -20 -46 l0 -28 -67 31 c-62 28 -173 118 -147 118 6 0 40 -9 74
-20z m5227 14 c20 -6 18 -9 -27 -45 -26 -21 -63 -56 -81 -79 -25 -31 -39 -40
-63 -40 l-30 0 39 40 c27 28 34 40 23 40 -9 0 -32 -18 -51 -40 -28 -34 -40
-40 -72 -40 -29 0 -36 3 -31 15 17 43 15 47 -11 17 -34 -39 -80 -46 -69 -9 20
64 20 63 1 46 -9 -9 -18 -28 -18 -43 -2 -25 -5 -26 -55 -26 -58 0 -59 3 -13
54 90 100 96 102 173 61 55 -29 75 -31 108 -8 20 14 133 61 150 62 3 1 15 -2
27 -5z m-4130 -24 c52 -23 49 -38 -11 -45 -61 -8 -98 -4 -103 10 -3 9 66 55
77 51 3 -2 20 -9 37 -16z m473 1 c5 -11 10 -28 10 -38 0 -13 -6 -8 -20 15 -23
37 -24 42 -10 42 5 0 14 -9 20 -19z m-662 -40 c-15 -5 -18 3 -11 29 l7 25 6
-25 c3 -14 2 -27 -2 -29z m783 -68 c22 -24 39 -49 39 -57 0 -8 12 -29 27 -46
33 -40 24 -60 -35 -75 -22 -5 -44 -13 -48 -17 -4 -5 -15 -8 -24 -8 -15 0 -16
6 -7 56 6 39 6 63 -2 80 -6 14 -11 35 -11 47 0 12 -7 40 -15 62 -23 66 -19 83
11 39 15 -21 44 -58 65 -81z m450 99 c-13 -25 -50 -56 -57 -49 -4 4 8 20 26
37 37 34 45 38 31 12z m513 8 c35 -13 36 -50 1 -50 -15 0 -25 6 -25 14 0 8 -3
21 -6 30 -7 19 -4 19 30 6z m146 -16 c48 -16 79 -39 67 -50 -3 -4 -43 -1 -87
7 -62 10 -79 16 -75 27 3 7 5 18 5 23 0 14 35 11 90 -7z m-3600 -5 c0 -5 -5
-7 -12 -3 -6 4 -8 3 -5 -4 4 -5 17 -8 28 -5 14 4 25 0 31 -11 5 -9 18 -16 29
-16 12 0 17 -4 14 -11 -4 -6 -13 -8 -21 -5 -8 3 -14 1 -14 -5 0 -6 9 -9 19 -7
12 2 33 -11 54 -34 22 -24 37 -33 40 -25 3 9 8 9 23 -1 11 -7 27 -15 37 -18
19 -7 22 -20 7 -29 -5 -3 -10 0 -11 7 0 7 -4 4 -9 -7 -14 -33 -11 -37 12 -16
17 17 24 18 37 8 14 -11 14 -10 2 6 -13 16 -12 18 12 13 69 -12 149 -45 141
-58 -3 -4 -11 -5 -17 -1 -7 4 -6 0 2 -10 15 -18 26 -23 16 -7 -3 6 -1 10 4 10
6 0 11 -4 11 -8 0 -5 13 -9 30 -10 36 -1 102 -31 94 -43 -3 -5 -10 -6 -16 -3
-7 4 -8 2 -4 -4 11 -17 -9 -15 -24 3 -10 12 -10 15 0 15 8 0 11 2 8 5 -3 3
-12 3 -21 -1 -14 -5 -11 -10 12 -30 32 -27 42 -30 39 -12 -2 7 10 12 30 13 19
0 32 -5 32 -12 0 -7 9 -22 19 -32 10 -10 22 -28 26 -40 6 -20 3 -21 -67 -22
-40 -1 -77 -1 -81 0 -4 1 -117 3 -250 5 -133 2 -246 5 -252 6 -5 1 -12 1 -15
0 -3 -1 -34 -4 -70 -6 -76 -6 -66 9 17 26 33 7 58 19 67 32 17 23 14 27 -49
88 -33 33 -38 41 -26 52 10 10 15 10 18 1 5 -13 47 1 71 24 8 7 22 18 33 23
10 6 19 20 19 31 0 13 4 18 13 13 7 -4 9 -3 4 2 -5 5 -13 10 -18 10 -22 3 -23
6 -4 15 17 8 16 9 -6 4 -20 -4 -35 5 -74 45 l-49 50 32 0 c18 0 32 -5 32 -11z
m2521 -9 c16 0 29 -3 29 -8 0 -11 -79 -2 -87 11 -4 7 0 8 11 4 10 -4 31 -7 47
-7z m-321 -10 c0 -5 -15 -10 -32 -9 -28 0 -30 2 -13 9 28 12 45 12 45 0z
m-1177 -49 c-6 -23 -30 -35 -30 -15 0 8 4 14 9 14 5 0 6 5 3 10 -3 6 0 10 8
10 10 0 13 -7 10 -19z m686 -8 c22 -11 44 -16 49 -11 8 8 60 -4 94 -22 11 -6
19 -6 23 0 4 6 11 8 16 4 5 -3 7 -10 3 -16 -6 -9 34 10 69 35 14 10 20 9 28
-3 9 -12 10 -10 6 8 -3 13 0 22 6 22 7 0 23 3 37 5 20 4 21 4 6 -3 -11 -5 -20
-15 -22 -24 -1 -13 4 -14 34 -7 23 5 39 4 43 -2 3 -6 9 -10 13 -10 23 3 27 -2
6 -9 -17 -5 -19 -8 -7 -9 9 -1 20 -1 23 0 4 0 11 -5 16 -13 7 -10 8 -8 6 6 -5
33 18 28 60 -11 41 -39 69 -98 51 -108 -5 -4 -9 3 -9 14 0 28 -15 34 -31 13
-13 -15 -12 -16 4 -3 15 12 17 11 17 -12 0 -14 7 -30 16 -35 12 -7 14 -15 8
-33 -10 -29 -11 -35 -13 -77 -1 -31 -2 -32 -17 -17 -19 19 -29 13 -20 -11 4
-9 9 -14 13 -11 3 4 13 1 21 -6 11 -8 14 -9 9 0 -5 8 0 11 13 10 11 -1 20 -8
20 -17 0 -10 12 -16 40 -18 48 -3 84 13 76 34 -3 8 2 18 11 21 9 4 25 15 36
26 10 10 25 16 33 13 8 -3 13 -2 10 2 -2 4 2 18 10 32 13 22 14 23 12 4 -2
-11 2 -20 7 -20 6 1 9 8 8 16 -1 10 8 16 30 17 18 2 33 7 35 13 2 6 10 7 22 0
13 -7 21 -7 25 0 4 6 1 9 -7 8 -8 -2 -12 5 -10 17 7 42 7 93 0 89 -11 -7 -38
8 -32 17 3 5 -1 9 -9 9 -9 0 -14 11 -14 30 0 23 4 29 14 25 8 -3 19 -5 24 -5
6 0 7 -6 3 -12 -6 -10 -5 -10 8 -1 8 7 19 9 24 5 4 -4 3 0 -3 9 -10 12 -8 15
10 15 17 0 22 -6 23 -29 1 -17 -3 -26 -10 -24 -13 5 -21 -100 -11 -133 7 -23
53 -50 73 -43 7 3 24 -5 37 -17 18 -17 33 -21 59 -18 20 2 36 0 36 -5 0 -9
-61 -5 -115 8 -27 6 -69 8 -132 6 -13 -1 -23 -5 -23 -11 0 -6 28 -10 65 -10
77 0 168 -18 159 -32 -3 -5 3 -4 14 3 21 13 23 12 77 -39 31 -29 128 -42 118
-16 -6 15 -4 15 18 1 13 -9 39 -15 57 -15 38 1 53 26 45 71 -3 17 -1 27 6 27
7 0 9 -5 5 -12 -6 -9 -3 -9 9 0 12 11 49 13 154 10 76 -1 144 -7 152 -12 15
-10 128 -11 178 -2 19 4 35 1 39 -5 4 -8 9 -7 15 2 6 10 10 7 18 -11 7 -18 10
-20 10 -7 1 17 16 23 24 10 2 -5 2 -1 -1 7 -3 8 -5 23 -6 32 0 9 -4 14 -9 11
-5 -3 -6 -11 -3 -19 4 -11 1 -12 -13 -5 -10 6 -43 9 -72 9 -30 -1 -61 2 -68 7
-10 5 -12 4 -7 -3 5 -9 -8 -12 -43 -12 -28 0 -51 4 -51 8 0 4 -75 9 -167 11
-114 2 -170 6 -175 14 -14 21 -8 59 13 93 21 34 46 43 66 23 8 -8 13 -7 18 2
5 8 4 10 -3 5 -7 -4 -12 -2 -12 3 0 18 17 12 32 -11 14 -21 16 -22 73 -8 43
10 133 14 331 15 261 0 274 -1 288 -20 8 -11 12 -23 10 -27 -3 -5 0 -8 7 -8 6
0 9 8 6 20 -3 11 -2 20 1 20 4 0 50 -7 102 -15 52 -8 115 -15 140 -15 28 0 40
-3 32 -9 -11 -7 -10 -9 3 -14 12 -5 14 -11 5 -26 -15 -29 -12 -38 5 -15 8 11
15 14 15 7 0 -25 2 -28 16 -36 10 -6 14 -22 12 -48 -2 -46 5 -54 52 -63 21 -4
30 -3 21 3 -8 5 -9 11 -3 15 6 4 15 0 19 -9 7 -12 14 -7 33 25 16 25 32 40 46
40 11 0 37 16 57 35 35 34 65 47 51 23 -4 -8 -3 -10 2 -5 5 5 9 14 9 20 0 7 7
12 15 13 8 1 25 2 38 2 14 1 26 11 32 27 5 14 20 27 35 31 13 3 37 20 52 38
18 19 39 32 58 34 25 2 27 1 13 -8 -10 -6 -20 -9 -24 -8 -3 2 -12 -8 -19 -21
-8 -15 -28 -29 -51 -36 -28 -8 -40 -17 -47 -40 -7 -21 -7 -30 2 -33 6 -2 11
-8 11 -14 0 -6 -7 -8 -15 -4 -8 3 -15 1 -15 -4 0 -6 7 -10 15 -10 18 0 56 -40
49 -52 -9 -14 -24 -9 -24 9 0 13 -4 11 -20 -7 -14 -16 -20 -18 -20 -9 0 8 6
21 13 29 6 8 2 6 -10 -4 -16 -14 -20 -23 -13 -31 6 -7 8 -19 4 -28 -3 -8 0
-18 7 -23 8 -4 10 -3 5 4 -7 12 13 52 27 52 4 0 5 -4 2 -10 -3 -5 -2 -10 4
-10 5 0 13 5 16 10 8 12 25 13 25 2 0 -5 -10 -14 -22 -20 l-23 -10 22 1 c12 1
25 7 28 15 3 7 10 10 15 7 16 -10 -29 -45 -57 -45 -12 0 -32 -9 -44 -21 -20
-20 -29 -20 -397 -20 -224 0 -396 4 -424 10 -26 6 -168 10 -330 10 -155 0
-317 2 -358 5 -41 3 -246 7 -455 10 -368 5 -598 12 -660 21 -101 13 -602 26
-1060 27 -33 0 -37 2 -24 11 25 19 52 76 29 62 -6 -3 -7 1 -4 10 4 9 -10 36
-35 70 -45 59 -48 67 -26 59 8 -3 13 -11 12 -17 -1 -6 4 -12 11 -13 6 -1 15
-3 20 -4 4 -1 11 -2 16 -1 5 1 5 -6 2 -16 -6 -14 -5 -15 5 -6 7 7 18 9 28 4
22 -12 74 -17 88 -8 7 5 21 -1 33 -13 19 -19 33 -25 54 -21 49 9 100 9 116 -1
17 -11 22 -9 37 12 18 24 36 93 23 85 -3 -2 -12 5 -19 17 -11 17 -10 19 6 15
35 -10 110 -16 263 -22 165 -6 249 -13 265 -23 11 -7 18 -8 78 -10 21 -1 36
-5 34 -9 -3 -5 41 -6 96 -4 102 3 114 19 16 20 -25 1 -74 4 -108 8 -59 6 -62
7 -58 29 2 13 0 21 -4 18 -5 -3 -9 -12 -9 -21 0 -12 -7 -14 -27 -9 -16 3 -69
9 -120 12 -51 4 -90 11 -87 15 3 5 0 9 -5 9 -6 0 -11 -4 -11 -10 0 -5 -12 -10
-26 -10 -14 0 -23 4 -19 10 3 6 4 10 1 10 -2 0 -13 3 -23 6 -15 5 -16 4 -3 -6
12 -9 -11 -10 -100 -6 -145 7 -170 13 -170 37 0 11 4 19 9 19 4 0 6 11 4 24
-5 23 -2 25 43 28 27 2 97 2 156 2 85 -1 115 -5 147 -21z m3491 7 c0 -5 -5
-10 -11 -10 -5 0 -7 5 -4 10 3 6 8 10 11 10 2 0 4 -4 4 -10z m-3997 -60 c-6
-24 -23 -37 -24 -18 0 7 -2 29 -4 48 l-5 35 19 -22 c11 -14 17 -31 14 -43z
m1201 44 c3 -8 2 -12 -4 -9 -6 3 -10 10 -10 16 0 14 7 11 14 -7z m-1481 -69
c12 2 17 -3 17 -20 0 -38 -32 -24 -58 26 l-24 44 24 -26 c13 -15 31 -25 41
-24z m4048 19 c-12 -15 -21 -32 -21 -38 0 -7 -14 -31 -31 -54 -17 -24 -37 -62
-44 -85 -14 -48 -35 -58 -50 -25 -6 14 -24 26 -48 31 -50 12 -47 39 4 48 38 6
95 46 161 112 44 43 59 49 29 11z m-2023 -65 c-6 -17 -17 -33 -24 -36 -8 -3
-14 -11 -14 -18 0 -8 -4 -16 -9 -20 -6 -3 -8 7 -6 22 2 16 4 34 4 42 1 9 8 11
22 8 12 -3 18 -3 15 0 -5 5 11 33 20 33 1 0 -2 -14 -8 -31z m2137 -147 c-7
-34 -25 -81 -40 -103 -35 -49 -50 -60 -40 -28 4 13 13 27 21 32 16 9 44 64 44
87 0 19 21 83 25 78 2 -2 -2 -31 -10 -66z m-5238 -58 c-3 -3 -12 -4 -19 -1 -8
3 -5 6 6 6 11 1 17 -2 13 -5z m642 -54 c96 -5 176 -12 178 -14 3 -2 6 -27 8
-55 l4 -50 -72 -35 c-40 -19 -92 -49 -117 -66 -28 -18 -58 -30 -80 -30 -19 -1
-53 -7 -75 -15 -22 -8 -50 -15 -63 -15 -30 0 -78 -25 -121 -62 -26 -23 -40
-28 -60 -23 -14 3 -47 10 -73 15 -25 5 -57 15 -70 24 -13 8 -46 20 -74 26
l-51 11 -27 107 c-14 59 -26 124 -26 145 0 37 0 37 43 37 103 0 402 13 407 17
3 3 25 2 50 -1 25 -3 123 -10 219 -16z m-746 -82 c4 -46 10 -102 13 -125 6
-39 5 -42 -19 -48 -15 -4 -31 -13 -38 -21 -18 -22 -39 -17 -39 11 0 14 -27 77
-61 140 l-60 114 88 4 c48 1 93 4 99 5 7 1 13 -29 17 -80z m2170 63 c13 -5 48
-39 77 -75 53 -66 81 -86 59 -43 -6 12 -29 43 -51 70 l-39 47 28 0 c17 0 33
-8 41 -20 7 -11 17 -20 22 -20 7 0 7 7 0 20 -15 29 12 27 34 -2 13 -18 16 -19
12 -5 -5 15 -1 18 20 15 21 -2 30 -12 43 -47 9 -24 22 -46 29 -49 16 -5 15 11
-3 55 -8 19 -15 36 -15 37 0 1 18 0 39 -2 l39 -4 8 -71 c5 -40 7 -85 6 -102
-2 -22 10 -48 43 -95 25 -36 61 -89 81 -118 20 -30 38 -51 41 -48 3 3 -14 36
-38 73 -83 126 -101 166 -97 213 l3 35 35 -51 c19 -27 53 -77 75 -110 22 -32
53 -76 69 -97 24 -31 28 -43 23 -75 -4 -20 -12 -39 -18 -41 -6 -2 -26 -16 -44
-32 -38 -34 -45 -35 -45 -11 0 10 -29 36 -74 65 -100 65 -266 250 -266 296 0
11 -8 22 -17 25 -18 6 -115 95 -162 149 -24 26 -24 27 -3 27 11 0 31 -4 45 -9z
m1197 -26 c0 -1 -23 -25 -51 -55 -28 -30 -65 -75 -81 -100 -70 -102 -121 -139
-251 -179 -58 -18 -78 -19 -133 -12 -73 11 -112 35 -166 103 -19 24 -60 75
-91 114 -56 71 -63 86 -50 119 6 16 37 17 415 14 224 -2 408 -4 408 -4z m243
-16 c60 2 75 -12 42 -39 -8 -7 -30 -40 -47 -72 -25 -46 -51 -76 -117 -129 -47
-38 -99 -75 -116 -84 -16 -8 -50 -28 -75 -45 -25 -16 -50 -30 -56 -30 -7 0
-14 -9 -17 -20 -4 -15 -14 -20 -36 -20 -26 0 -33 6 -46 38 -9 20 -27 49 -41
63 l-25 26 41 18 c46 21 95 71 144 148 18 29 56 76 84 106 l51 54 78 -8 c43
-4 104 -7 136 -6z m843 -132 c27 -55 56 -103 62 -105 22 -7 12 20 -39 109 -29
49 -49 92 -47 95 3 3 27 1 54 -3 l48 -8 14 -55 c13 -54 42 -102 42 -70 0 8 -7
40 -15 70 -8 30 -15 56 -15 58 0 1 18 2 39 2 44 0 42 3 61 -103 16 -90 36
-102 26 -16 -13 122 -15 114 22 117 32 3 34 2 32 -30 -4 -71 0 -119 10 -113 6
3 10 37 10 76 l0 69 41 0 40 0 -7 -129 c-5 -101 -4 -130 7 -136 8 -5 14 -4 17
3 2 7 27 -8 60 -36 32 -27 77 -61 102 -77 25 -15 64 -46 87 -68 24 -22 45 -38
48 -35 10 10 -52 74 -112 114 -32 21 -86 63 -120 93 -62 52 -63 55 -63 103 l0
50 101 -92 c55 -50 124 -106 154 -125 29 -19 75 -53 101 -76 27 -23 72 -57
101 -77 42 -27 53 -40 53 -61 0 -30 -16 -89 -29 -110 -10 -15 -21 -13 -225 44
-208 58 -478 205 -576 312 -25 27 -56 58 -70 68 -33 26 -51 55 -99 159 l-40
86 37 -1 c37 -1 37 -2 88 -102z m554 83 c26 -48 115 -65 160 -30 26 21 70 27
70 10 0 -5 11 -17 25 -26 20 -13 31 -14 56 -5 21 7 36 8 43 1 7 -5 30 -12 52
-16 31 -4 45 -2 57 11 10 9 14 21 11 27 -6 9 284 3 294 -7 2 -2 -9 -10 -25
-18 -15 -8 -50 -38 -76 -66 -33 -35 -61 -54 -90 -62 -23 -6 -68 -28 -100 -49
-83 -56 -87 -56 -169 -16 -40 19 -104 43 -143 52 -38 9 -81 23 -95 29 -14 7
-56 20 -95 30 -83 20 -115 49 -115 107 l0 37 53 4 c28 2 57 4 64 5 7 1 17 -7
23 -18z"/>
<path d="M2144 6265 c11 -8 23 -15 28 -15 4 0 21 -24 38 -52 25 -45 30 -49 30
-27 0 31 -68 109 -96 109 -19 -1 -19 -1 0 -15z"/>
<path d="M1971 6224 c-11 -14 -23 -40 -25 -58 -12 -80 -15 -132 -8 -144 5 -8
13 24 20 80 8 64 18 101 32 120 26 35 9 37 -19 2z"/>
<path d="M2250 6130 c0 -5 -8 -10 -17 -10 -10 0 -24 -4 -31 -8 -7 -5 9 -8 40
-8 44 1 54 4 54 19 0 11 -8 17 -23 17 -13 0 -23 -4 -23 -10z"/>
<path d="M1914 5762 c-69 -65 -152 -178 -156 -212 -3 -26 7 -32 82 -55 30 -9
63 -24 72 -32 18 -16 43 -9 32 9 -3 5 -20 19 -38 30 -17 11 -22 17 -11 14 11
-3 27 -1 35 4 11 7 -3 10 -45 11 -33 0 -70 4 -82 7 -21 7 -21 8 17 72 21 36
68 97 104 135 36 39 66 71 66 73 0 11 -24 -7 -76 -56z"/>
<path d="M2665 5780 c-4 -7 -3 -16 2 -21 12 -12 45 0 40 15 -5 15 -34 19 -42
6z"/>
<path d="M2635 5593 c-11 -2 -71 -20 -133 -40 -104 -33 -123 -35 -247 -37 -73
-1 -137 -5 -141 -9 -4 -4 53 -7 127 -6 111 0 150 4 224 25 182 50 211 55 272
52 39 -2 62 1 60 7 -4 10 -126 17 -162 8z"/>
<path d="M2060 5440 c0 -5 7 -10 15 -10 23 0 76 -29 107 -58 33 -30 48 -23 25
12 -27 41 -147 87 -147 56z"/>
<path d="M1070 5243 c-64 -45 -80 -60 -80 -77 0 -4 17 7 38 25 20 19 54 45 75
59 20 14 37 28 37 33 0 10 2 11 -70 -40z"/>
<path d="M2105 5251 c-6 -5 -48 -23 -95 -41 -95 -37 -125 -56 -70 -45 51 10
183 68 188 83 4 14 -10 16 -23 3z"/>
<path d="M4473 5733 c-7 -2 -13 -9 -13 -14 0 -6 5 -7 10 -4 6 4 17 2 24 -4 9
-7 17 -5 29 9 16 19 16 20 -11 19 -15 0 -33 -3 -39 -6z"/>
<path d="M2273 5963 c-12 -2 -27 -11 -33 -19 -26 -31 46 -74 122 -74 81 0 88
30 18 78 -31 21 -57 25 -107 15z m76 -44 c61 -21 25 -30 -57 -13 -26 5 -20 24
7 24 10 0 32 -5 50 -11z"/>
<path d="M5600 5748 c0 -22 17 -41 29 -34 17 11 13 24 -9 36 -15 8 -20 8 -20
-2z"/>
<path d="M5840 5750 c0 -21 45 -76 53 -63 3 5 -7 25 -23 44 -18 21 -29 28 -30
19z"/>
<path d="M5323 5636 c-21 -19 -35 -38 -31 -42 4 -4 17 5 29 20 12 15 31 31 42
35 13 5 16 10 9 15 -6 4 -28 -8 -49 -28z"/>
<path d="M5490 5637 c7 -7 181 -39 187 -34 8 8 -60 25 -127 32 -36 4 -63 5
-60 2z"/>
<path d="M5830 5570 c0 -5 5 -10 11 -10 5 0 7 5 4 10 -3 6 -8 10 -11 10 -2 0
-4 -4 -4 -10z"/>
<path d="M3773 5709 c-28 -10 -30 -39 -3 -39 20 0 46 35 33 43 -5 3 -18 1 -30
-4z"/>
<path d="M3883 5707 c-18 -10 -7 -12 73 -12 90 0 113 6 78 19 -27 10 -128 6
-151 -7z"/>
<path d="M4100 5695 c0 -16 27 -32 37 -21 7 7 -16 36 -28 36 -5 0 -9 -7 -9
-15z"/>
<path d="M3800 5459 c-48 -14 -54 -17 -25 -14 176 21 164 22 306 -35 72 -28
133 -49 136 -46 3 3 -3 9 -13 13 -10 3 -66 26 -123 50 -124 51 -186 58 -281
32z"/>
<path d="M3536 5309 c9 -14 159 -84 199 -92 17 -4 -19 18 -80 48 -114 57 -131
63 -119 44z"/>
<path d="M3831 4993 c-24 -3 -30 -7 -21 -13 15 -9 80 -2 95 11 9 9 -10 9 -74
2z"/>
<path d="M6045 5334 c-34 -27 -176 -89 -260 -113 -77 -23 -115 -41 -84 -41 63
0 296 95 354 144 32 27 23 36 -10 10z"/>
<path d="M711 5164 c-1 -31 37 -152 51 -160 7 -5 9 1 5 17 -7 29 -36 117 -47
144 -8 19 -9 19 -9 -1z"/>
<path d="M5393 5003 c9 -2 23 -2 30 0 6 3 -1 5 -18 5 -16 0 -22 -2 -12 -5z"/>
<path d="M5500 4952 c0 -4 10 -13 23 -21 22 -14 22 -14 3 8 -20 22 -26 25 -26
13z"/>
<path d="M1203 4763 c-3 -10 -8 -22 -11 -27 -3 -5 1 -6 8 -1 10 6 12 4 7 -8
-3 -10 -2 -17 3 -17 5 0 8 16 7 35 -2 39 -5 43 -14 18z"/>
<path d="M1240 4773 c0 -5 5 -15 10 -23 8 -12 10 -11 10 8 0 12 -4 22 -10 22
-5 0 -10 -3 -10 -7z"/>
<path d="M1271 4763 c-1 -12 4 -25 9 -28 12 -7 12 2 0 30 -8 19 -9 19 -9 -2z"/>
<path d="M1300 4771 c0 -10 19 -25 25 -20 1 2 -3 10 -11 17 -8 7 -14 8 -14 3z"/>
<path d="M1231 4734 c0 -11 3 -14 6 -6 3 7 2 16 -1 19 -3 4 -6 -2 -5 -13z"/>
<path d="M1365 4730 c-8 -13 9 -20 24 -11 10 6 9 10 -3 14 -8 3 -18 2 -21 -3z"/>
<path d="M1416 4728 c3 -4 10 -6 15 -2 6 3 19 -2 30 -12 17 -16 19 -16 19 -1
0 10 -6 18 -12 18 -7 1 -23 3 -35 4 -12 1 -20 -2 -17 -7z"/>
<path d="M1308 4703 c5 -21 7 -23 10 -9 2 10 0 22 -6 28 -6 6 -7 0 -4 -19z"/>
<path d="M1145 4709 c-4 -6 -14 -8 -24 -4 -12 5 -13 4 -4 -6 10 -10 15 -9 27
0 8 7 21 9 27 5 8 -4 9 -3 5 4 -9 15 -23 15 -31 1z"/>
<path d="M1435 4701 c-3 -5 -2 -12 3 -15 5 -3 9 1 9 9 0 17 -3 19 -12 6z"/>
<path d="M1257 4680 c3 -11 7 -20 9 -20 2 0 4 9 4 20 0 11 -4 20 -9 20 -5 0
-7 -9 -4 -20z"/>
<path d="M1291 4684 c0 -11 3 -14 6 -6 3 7 2 16 -1 19 -3 4 -6 -2 -5 -13z"/>
<path d="M1370 4676 c0 -31 6 -34 13 -6 3 11 1 23 -4 26 -5 3 -9 -6 -9 -20z"/>
<path d="M1400 4695 c0 -5 5 -17 10 -25 5 -8 10 -10 10 -5 0 6 -5 17 -10 25
-5 8 -10 11 -10 5z"/>
<path d="M1127 4669 c7 -7 15 -10 18 -7 3 3 -2 9 -12 12 -14 6 -15 5 -6 -5z"/>
<path d="M1323 4650 c2 -8 9 -15 15 -15 7 0 12 -4 11 -10 -1 -5 -4 -9 -7 -9
-9 2 -98 14 -138 18 -17 2 -42 7 -55 10 -23 7 -23 6 -5 -8 10 -8 24 -26 30
-38 6 -13 16 -23 21 -23 6 0 16 -4 23 -9 21 -13 21 -3 0 17 -10 9 -18 12 -18
6 0 -5 -4 -7 -10 -4 -5 3 -10 13 -10 21 0 8 4 13 9 10 8 -6 92 -17 140 -20 14
-1 31 -5 38 -9 6 -4 14 -3 18 3 3 5 31 8 63 5 31 -3 89 -7 127 -10 39 -2 81
-7 95 -11 20 -5 18 -1 -12 20 -32 22 -41 25 -59 15 -17 -8 -20 -8 -14 1 5 8 3
11 -6 8 -8 -3 -19 2 -26 11 -10 14 -11 13 -6 -6 5 -21 -10 -33 -20 -15 -3 4
-39 6 -81 6 -42 -1 -76 2 -76 8 0 5 5 6 12 2 7 -5 8 -3 4 5 -5 7 -10 10 -14 7
-3 -3 -11 2 -18 12 -11 14 -13 14 -14 2 0 -13 -1 -13 -11 0 -9 13 -10 13 -6 0z"/>
<path d="M1238 4583 c7 -3 16 -2 19 1 4 3 -2 6 -13 5 -11 0 -14 -3 -6 -6z"/>
<path d="M1145 4570 c-3 -6 1 -7 9 -4 18 7 21 14 7 14 -6 0 -13 -4 -16 -10z"/>
<path d="M1455 4570 c3 -5 8 -10 11 -10 2 0 4 5 4 10 0 6 -5 10 -11 10 -5 0
-7 -4 -4 -10z"/>
<path d="M1740 4566 c0 -2 8 -10 18 -17 15 -13 16 -12 3 4 -13 16 -21 21 -21
13z"/>
<path d="M1523 4545 c0 -8 4 -12 9 -9 5 3 6 10 3 15 -9 13 -12 11 -12 -6z"/>
<path d="M1570 4556 c0 -2 7 -7 16 -10 8 -3 12 -2 9 4 -6 10 -25 14 -25 6z"/>
<path d="M1633 4545 c0 -8 4 -12 9 -9 5 3 6 10 3 15 -9 13 -12 11 -12 -6z"/>
<path d="M1686 4543 c-6 -14 -5 -15 5 -6 7 7 10 15 7 18 -3 3 -9 -2 -12 -12z"/>
<path d="M1450 4546 c0 -2 7 -7 16 -10 8 -3 12 -2 9 4 -6 10 -25 14 -25 6z"/>
<path d="M1490 4539 c0 -5 5 -7 10 -4 6 3 10 8 10 11 0 2 -4 4 -10 4 -5 0 -10
-5 -10 -11z"/>
<path d="M2500 4851 c0 -6 4 -12 8 -15 5 -3 9 1 9 9 0 8 -4 15 -9 15 -4 0 -8
-4 -8 -9z"/>
<path d="M2667 4853 c-4 -3 -7 -13 -7 -22 0 -13 2 -13 13 1 6 9 19 18 27 21
10 4 8 6 -6 6 -11 1 -24 -2 -27 -6z"/>
<path d="M2610 4846 c0 -3 9 -10 20 -16 11 -6 20 -8 20 -6 0 3 -9 10 -20 16
-11 6 -20 8 -20 6z"/>
<path d="M2765 4839 c-11 -16 -1 -19 13 -3 7 8 8 14 3 14 -5 0 -13 -5 -16 -11z"/>
<path d="M2685 4830 c-3 -5 -1 -10 4 -10 6 0 11 5 11 10 0 6 -2 10 -4 10 -3 0
-8 -4 -11 -10z"/>
<path d="M2557 4813 c3 -7 6 -13 8 -13 2 0 5 6 8 13 3 8 -1 14 -8 14 -7 0 -11
-6 -8 -14z"/>
<path d="M2518 4813 c7 -3 16 -2 19 1 4 3 -2 6 -13 5 -11 0 -14 -3 -6 -6z"/>
<path d="M2599 4803 c-13 -16 -12 -17 3 -5 9 8 23 10 29 6 8 -4 9 -3 5 4 -10
17 -21 15 -37 -5z"/>
<path d="M3141 4812 c-1 -8 -6 -10 -13 -6 -10 5 -10 4 -1 -6 15 -16 28 -8 20
12 -4 11 -6 11 -6 0z"/>
<path d="M2765 4800 c3 -5 8 -10 11 -10 2 0 4 5 4 10 0 6 -5 10 -11 10 -5 0
-7 -4 -4 -10z"/>
<path d="M2943 4798 c2 -7 11 -13 21 -13 9 0 21 -6 25 -14 6 -9 11 -10 15 -2
4 6 2 11 -4 11 -6 0 -8 5 -4 12 4 6 3 8 -4 4 -5 -3 -13 0 -15 6 -4 10 -6 10
-6 1 -1 -7 -6 -13 -12 -13 -5 0 -7 5 -4 10 3 6 1 10 -5 10 -7 0 -10 -6 -7 -12z"/>
<path d="M3067 4803 c-10 -9 -9 -23 1 -23 5 0 9 7 9 15 0 17 -1 18 -10 8z"/>
<path d="M2500 4796 c0 -2 7 -7 16 -10 8 -3 12 -2 9 4 -6 10 -25 14 -25 6z"/>
<path d="M2703 4785 c0 -7 6 -11 14 -8 7 3 13 6 13 8 0 2 -6 5 -13 8 -8 3 -14
-1 -14 -8z"/>
<path d="M2906 4788 c3 -4 -5 -8 -17 -8 -12 0 -19 -3 -15 -7 14 -14 36 -11 46
6 6 13 5 18 -5 18 -8 0 -12 -4 -9 -9z"/>
<path d="M3021 4772 c-8 -15 -5 -18 17 -19 16 0 19 1 9 4 -11 3 -16 11 -13 19
8 20 -2 17 -13 -4z"/>
<path d="M3183 4774 c-14 -15 -3 -27 14 -16 7 4 9 13 5 19 -5 8 -11 7 -19 -3z"/>
<path d="M3310 4779 c0 -5 5 -7 10 -4 6 3 10 8 10 11 0 2 -4 4 -10 4 -5 0 -10
-5 -10 -11z"/>
<path d="M3339 4763 c-13 -16 -12 -17 4 -4 9 7 17 15 17 17 0 8 -8 3 -21 -13z"/>
<path d="M3280 4759 c0 -5 5 -7 10 -4 6 3 10 8 10 11 0 2 -4 4 -10 4 -5 0 -10
-5 -10 -11z"/>
<path d="M3354 4745 c-4 -8 -10 -12 -15 -9 -5 3 -9 0 -9 -5 0 -18 19 -12 30 9
6 11 8 20 5 20 -3 0 -8 -7 -11 -15z"/>
<path d="M3108 4733 c7 -3 16 -2 19 1 4 3 -2 6 -13 5 -11 0 -14 -3 -6 -6z"/>
<path d="M3180 4730 c-8 -5 -10 -10 -5 -10 6 0 17 5 25 10 8 5 11 10 5 10 -5
0 -17 -5 -25 -10z"/>
<path d="M2647 4713 c3 -7 6 -13 8 -13 2 0 5 6 8 13 3 8 -1 14 -8 14 -7 0 -11
-6 -8 -14z"/>
<path d="M2726 4717 c3 -10 9 -15 12 -12 3 3 0 11 -7 18 -10 9 -11 8 -5 -6z"/>
<path d="M2816 4704 c-9 -8 -20 -12 -26 -9 -5 3 -10 1 -10 -4 0 -16 26 -13 44
5 9 8 16 17 16 20 0 8 -9 4 -24 -12z"/>
<path d="M2854 4688 c-16 -18 -20 -26 -9 -18 11 8 25 21 31 29 9 11 14 10 27
-10 10 -13 17 -18 17 -12 0 10 -26 43 -34 43 -1 0 -15 -14 -32 -32z"/>
<path d="M2936 4713 c-11 -11 -6 -23 9 -23 8 0 15 -6 15 -12 0 -8 5 -6 10 4 8
14 15 14 40 5 23 -9 33 -8 42 1 11 11 10 12 -5 6 -9 -3 -23 -2 -30 3 -16 13
-73 24 -81 16z m29 -13 c3 -6 -1 -7 -9 -4 -18 7 -21 14 -7 14 6 0 13 -4 16
-10z"/>
<path d="M4685 4710 l-40 -7 43 -2 c23 0 42 4 42 9 0 6 -1 9 -2 9 -2 -1 -21
-5 -43 -9z"/>
<path d="M4745 4710 c3 -5 8 -10 11 -10 2 0 4 5 4 10 0 6 -5 10 -11 10 -5 0
-7 -4 -4 -10z"/>
<path d="M4780 4712 c0 -5 7 -9 15 -9 8 0 15 4 15 9 0 4 -7 8 -15 8 -8 0 -15
-4 -15 -8z"/>
<path d="M4578 4703 c7 -3 16 -2 19 1 4 3 -2 6 -13 5 -11 0 -14 -3 -6 -6z"/>
<path d="M4976 4700 c-17 -6 -18 -7 -3 -13 9 -3 19 -2 23 4 9 15 2 18 -20 9z"/>
<path d="M5017 4693 c3 -7 6 -13 8 -13 2 0 5 6 8 13 3 8 -1 14 -8 14 -7 0 -11
-6 -8 -14z"/>
<path d="M2535 4690 c-3 -5 -1 -10 4 -10 6 0 11 5 11 10 0 6 -2 10 -4 10 -3 0
-8 -4 -11 -10z"/>
<path d="M4305 4690 c-3 -5 -1 -10 4 -10 6 0 11 5 11 10 0 6 -2 10 -4 10 -3 0
-8 -4 -11 -10z"/>
<path d="M4492 4680 c0 -14 2 -19 5 -12 2 6 2 18 0 25 -3 6 -5 1 -5 -13z"/>
<path d="M4897 4693 c-13 -12 -7 -26 6 -14 10 8 17 7 25 -1 8 -8 12 -9 12 -1
0 6 -7 14 -16 17 -19 7 -19 7 -27 -1z"/>
<path d="M4580 4686 c0 -2 11 -6 25 -8 13 -3 22 -1 19 3 -5 9 -44 13 -44 5z"/>
<path d="M5048 4683 c7 -3 16 -2 19 1 4 3 -2 6 -13 5 -11 0 -14 -3 -6 -6z"/>
<path d="M2637 4651 c-22 -24 -24 -31 -13 -40 11 -9 16 -9 22 0 4 8 3 9 -4 5
-7 -4 -12 -2 -12 3 0 6 3 11 8 11 8 0 35 40 30 46 -2 2 -16 -10 -31 -25z"/>
<path d="M3168 4673 c6 -3 10 -9 6 -14 -8 -14 2 -11 14 4 8 10 6 13 -11 14
-12 0 -16 -1 -9 -4z"/>
<path d="M3265 4670 c-3 -5 -2 -10 4 -10 5 0 13 5 16 10 3 6 2 10 -4 10 -5 0
-13 -4 -16 -10z"/>
<path d="M4663 4673 c9 -2 25 -2 35 0 9 3 1 5 -18 5 -19 0 -27 -2 -17 -5z"/>
<path d="M4745 4670 c-3 -5 -1 -10 4 -10 6 0 11 5 11 10 0 6 -2 10 -4 10 -3 0
-8 -4 -11 -10z"/>
<path d="M5218 4673 c7 -3 16 -2 19 1 4 3 -2 6 -13 5 -11 0 -14 -3 -6 -6z"/>
<path d="M2723 4662 c-13 -2 -23 -8 -23 -13 0 -6 5 -7 10 -4 6 3 10 2 10 -4 0
-5 -8 -15 -17 -20 -10 -6 -13 -11 -7 -11 10 0 59 50 52 54 -2 1 -13 0 -25 -2z"/>
<path d="M2889 4658 c0 -7 -2 -26 -4 -42 -2 -15 -1 -26 2 -22 8 7 15 76 8 76
-3 0 -5 -6 -6 -12z"/>
<path d="M3228 4663 c7 -3 16 -2 19 1 4 3 -2 6 -13 5 -11 0 -14 -3 -6 -6z"/>
<path d="M4300 4655 c9 -11 9 -15 1 -15 -7 0 -3 -9 8 -21 11 -12 25 -19 33
-16 9 4 7 6 -4 6 -18 1 -21 8 -21 44 0 9 -6 17 -15 17 -12 0 -12 -3 -2 -15z"/>
<path d="M4950 4661 c0 -5 7 -11 14 -14 10 -4 13 -1 9 9 -6 15 -23 19 -23 5z"/>
<path d="M5059 4668 c-1 -5 -2 -14 -3 -20 -1 -7 -7 -12 -14 -11 -6 2 -9 -4 -6
-15 5 -14 3 -14 -10 2 -9 11 -16 15 -16 9 0 -13 30 -39 30 -27 0 5 5 2 11 -6
8 -12 9 -10 4 7 -4 14 -1 25 9 30 11 6 12 13 6 23 -5 8 -10 12 -11 8z"/>
<path d="M5310 4659 c0 -5 5 -7 10 -4 6 3 10 8 10 11 0 2 -4 4 -10 4 -5 0 -10
-5 -10 -11z"/>
<path d="M2915 4650 c3 -5 8 -10 11 -10 2 0 4 5 4 10 0 6 -5 10 -11 10 -5 0
-7 -4 -4 -10z"/>
<path d="M2954 4625 c-6 -19 -7 -35 -3 -35 5 0 9 6 9 14 0 8 8 13 18 11 9 -1
11 0 4 2 -8 3 -12 13 -9 24 9 34 -8 20 -19 -16z"/>
<path d="M3302 4646 c7 -8 15 -12 17 -11 5 6 -10 25 -20 25 -5 0 -4 -6 3 -14z"/>
<path d="M4388 4653 c7 -3 16 -2 19 1 4 3 -2 6 -13 5 -11 0 -14 -3 -6 -6z"/>
<path d="M4895 4650 c3 -4 16 -10 30 -12 13 -3 22 -2 20 2 -3 4 -16 10 -30 12
-13 3 -22 2 -20 -2z"/>
<path d="M2180 4640 c0 -5 5 -10 11 -10 5 0 7 5 4 10 -3 6 -8 10 -11 10 -2 0
-4 -4 -4 -10z"/>
<path d="M2510 4636 c0 -7 -10 -21 -22 -30 -23 -16 -23 -16 5 -4 15 6 27 19
27 30 0 10 -2 18 -5 18 -3 0 -5 -6 -5 -14z"/>
<path d="M2665 4640 c3 -5 8 -10 11 -10 2 0 4 5 4 10 0 6 -5 10 -11 10 -5 0
-7 -4 -4 -10z"/>
<path d="M3076 4638 c3 -5 10 -6 15 -3 13 9 11 12 -6 12 -8 0 -12 -4 -9 -9z"/>
<path d="M4425 4639 c-4 -6 -14 -8 -23 -4 -9 3 -13 3 -9 -1 4 -4 2 -13 -4 -21
-9 -10 -7 -13 6 -13 10 0 15 3 12 7 -10 10 31 35 45 27 7 -4 8 -3 4 4 -9 15
-23 15 -31 1z"/>
<path d="M4515 4639 c-4 -6 -13 -8 -21 -5 -7 3 -16 1 -19 -5 -4 -5 -3 -9 2 -8
24 4 34 -4 13 -11 l-25 -8 26 -1 c15 -1 32 6 39 14 11 13 10 14 -6 8 -17 -6
-17 -5 -5 10 7 9 11 17 8 17 -3 0 -9 -5 -12 -11z"/>
<path d="M5370 4640 c-9 -6 -10 -10 -3 -10 6 0 15 5 18 10 8 12 4 12 -15 0z"/>
<path d="M2558 4621 c-10 -13 -10 -14 1 -4 7 6 20 9 27 6 8 -3 14 -1 14 4 0
15 -29 11 -42 -6z"/>
<path d="M2925 4630 c-16 -7 -17 -9 -3 -9 9 -1 20 4 23 9 7 11 7 11 -20 0z"/>
<path d="M4630 4630 c0 -5 5 -10 11 -10 5 0 7 5 4 10 -3 6 -8 10 -11 10 -2 0
-4 -4 -4 -10z"/>
<path d="M4680 4629 c0 -5 -4 -8 -8 -5 -5 3 -9 -1 -9 -8 0 -8 6 -12 14 -9 12
5 19 33 8 33 -3 0 -5 -5 -5 -11z"/>
<path d="M4822 4633 c-10 -4 -10 -8 -1 -20 11 -12 8 -13 -17 -8 -25 5 -26 5
-10 -5 14 -10 24 -9 45 1 23 11 24 13 7 17 -15 3 -16 6 -5 13 15 9 3 11 -19 2z"/>
<path d="M3745 4620 c-16 -6 -14 -8 15 -12 41 -7 49 -3 23 10 -10 5 -27 6 -38
2z"/>
<path d="M4967 4609 c4 -13 8 -18 11 -10 2 7 -1 18 -6 23 -8 8 -9 4 -5 -13z"/>
<path d="M5130 4621 c0 -18 18 -21 30 -6 10 13 9 15 -9 15 -11 0 -21 -4 -21
-9z"/>
<path d="M3013 4604 c-3 -8 0 -21 6 -27 9 -9 11 -8 5 7 -6 16 -4 18 11 13 15
-6 16 -5 5 8 -16 19 -19 19 -27 -1z"/>
<path d="M3306 4607 c3 -10 9 -15 12 -12 3 3 0 11 -7 18 -10 9 -11 8 -5 -6z"/>
<path d="M3346 4606 c10 -8 21 -12 24 -10 5 6 -21 24 -34 24 -6 0 -1 -6 10
-14z"/>
<path d="M4580 4610 c-8 -5 -10 -10 -5 -10 6 0 17 5 25 10 8 5 11 10 5 10 -5
0 -17 -5 -25 -10z"/>
<path d="M4710 4610 c8 -5 26 -10 39 -10 32 0 24 6 -19 14 -25 4 -31 3 -20 -4z"/>
<path d="M2290 4599 c0 -5 5 -7 10 -4 6 3 10 8 10 11 0 2 -4 4 -10 4 -5 0 -10
-5 -10 -11z"/>
<path d="M2799 4603 c-1 -5 -1 -11 0 -15 0 -5 -21 -8 -49 -8 -27 0 -50 -4 -50
-9 0 -15 239 -28 274 -15 36 14 12 21 -68 21 -89 1 -125 10 -90 24 17 7 17 8
2 8 -10 1 -19 -2 -19 -6z"/>
<path d="M2905 4601 c-3 -5 -1 -12 4 -15 5 -3 11 1 15 9 6 16 -9 21 -19 6z"/>
<path d="M3154 4594 c-16 -13 -16 -15 -2 -10 21 6 51 -21 42 -37 -4 -7 3 -2
16 11 12 13 19 26 15 30 -3 3 -9 1 -13 -5 -5 -8 -12 -8 -24 1 -10 7 -15 16
-11 19 13 13 -4 7 -23 -9z"/>
<path d="M4626 4595 c4 -8 7 -15 9 -15 2 0 5 7 9 15 3 9 0 15 -9 15 -9 0 -12
-6 -9 -15z"/>
<path d="M2260 4589 c0 -5 5 -7 10 -4 6 3 10 8 10 11 0 2 -4 4 -10 4 -5 0 -10
-5 -10 -11z"/>
<path d="M2566 4588 c3 -4 11 -5 19 -1 21 7 19 12 -4 10 -11 0 -18 -5 -15 -9z"/>
<path d="M5185 4590 c-3 -5 -1 -10 4 -10 6 0 11 5 11 10 0 6 -2 10 -4 10 -3 0
-8 -4 -11 -10z"/>
<path d="M5687 4585 c-4 -9 -1 -12 9 -8 12 5 13 1 2 -22 -11 -25 -13 -25 -25
-9 -7 10 -13 13 -13 7 0 -7 5 -15 10 -18 6 -3 10 -11 10 -17 0 -7 -5 -6 -15 2
-8 6 -20 8 -27 4 -8 -5 -8 -1 2 11 14 17 13 17 -10 10 -14 -4 -32 -13 -40 -21
-12 -12 -12 -14 3 -14 10 0 15 5 12 10 -12 19 8 10 28 -12 15 -17 18 -18 14
-5 -4 9 -2 17 3 17 17 0 22 -21 8 -37 -12 -15 -11 -15 9 -3 12 8 21 16 21 19
-2 12 24 66 34 72 7 4 3 11 -10 18 -15 8 -21 7 -25 -4z"/>
<path d="M5736 4588 c3 -5 10 -6 15 -3 13 9 11 12 -6 12 -8 0 -12 -4 -9 -9z"/>
<path d="M2430 4579 c0 -5 5 -7 10 -4 6 3 10 8 10 11 0 2 -4 4 -10 4 -5 0 -10
-5 -10 -11z"/>
<path d="M2525 4580 c-3 -5 -1 -10 4 -10 6 0 11 5 11 10 0 6 -2 10 -4 10 -3 0
-8 -4 -11 -10z"/>
<path d="M3085 4570 c9 -10 14 -24 10 -29 -3 -6 -1 -11 4 -11 19 0 8 49 -12
54 -18 4 -18 4 -2 -14z"/>
<path d="M5116 4577 c3 -10 9 -15 12 -12 3 3 0 11 -7 18 -10 9 -11 8 -5 -6z"/>
<path d="M5791 4575 c-1 -17 -3 -18 -12 -5 -9 13 -10 12 -5 -2 3 -10 1 -18 -5
-18 -6 0 -7 -5 -4 -11 9 -14 38 27 32 44 -3 6 -6 3 -6 -8z"/>
<path d="M2185 4570 c-3 -5 -2 -10 4 -10 5 0 13 5 16 10 3 6 2 10 -4 10 -5 0
-13 -4 -16 -10z"/>
<path d="M2650 4565 c0 -8 4 -15 8 -15 5 0 9 7 9 15 0 8 -4 15 -9 15 -4 0 -8
-7 -8 -15z"/>
<path d="M3040 4561 c-6 -11 -6 -22 -1 -25 5 -3 11 5 13 19 6 30 2 32 -12 6z"/>
<path d="M3267 4563 c3 -7 9 -13 15 -13 5 0 7 4 4 9 -4 5 0 11 6 14 7 3 3 4
-8 4 -14 -1 -20 -6 -17 -14z"/>
<path d="M2357 4563 c-25 -24 9 -31 39 -7 18 15 18 15 -3 5 -27 -14 -36 -14
-28 -1 7 11 2 13 -8 3z"/>
<path d="M3165 4560 c3 -5 8 -10 11 -10 2 0 4 5 4 10 0 6 -5 10 -11 10 -5 0
-7 -4 -4 -10z"/>
<path d="M3607 4556 c-3 -8 1 -17 10 -20 12 -5 13 -9 3 -21 -15 -18 -7 -30 15
-21 13 5 14 9 3 28 -7 13 -12 26 -13 30 0 15 -13 18 -18 4z"/>
<path d="M3665 4561 c-3 -5 -1 -12 5 -16 6 -4 7 -12 3 -18 -4 -7 0 -6 10 2 20
16 22 22 5 19 -7 -2 -12 3 -10 10 2 14 -4 16 -13 3z"/>
<path d="M3700 4566 c0 -2 7 -7 16 -10 8 -3 12 -2 9 4 -6 10 -25 14 -25 6z"/>
<path d="M5046 4555 c-9 -24 -7 -32 4 -15 8 12 10 12 10 1 0 -10 3 -11 13 -2
8 6 17 8 20 4 4 -3 7 -1 7 6 0 7 -6 11 -14 8 -7 -3 -18 -1 -23 4 -7 7 -13 5
-17 -6z"/>
<path d="M2210 4553 c0 -5 4 -14 9 -21 7 -11 9 -11 14 1 3 8 3 18 0 21 -9 8
-23 7 -23 -1z"/>
<path d="M3746 4552 c5 -4 12 -11 15 -15 3 -5 9 -2 12 5 3 9 -3 14 -15 15 -11
1 -16 -1 -12 -5z"/>
<path d="M3865 4550 c3 -5 8 -10 11 -10 2 0 4 5 4 10 0 6 -5 10 -11 10 -5 0
-7 -4 -4 -10z"/>
<path d="M2308 4543 c7 -3 16 -2 19 1 4 3 -2 6 -13 5 -11 0 -14 -3 -6 -6z"/>
<path d="M2552 4537 c-8 -10 -6 -13 11 -14 12 0 16 1 9 4 -6 3 -10 9 -6 14 8
14 -2 11 -14 -4z"/>
<path d="M2685 4539 c-4 -6 -5 -12 -2 -15 2 -3 7 2 10 11 7 17 1 20 -8 4z"/>
<path d="M2766 4536 c-27 -11 -26 -11 18 -12 47 0 61 10 28 18 -11 3 -31 0
-46 -6z"/>
<path d="M3902 4539 c2 -7 12 -13 21 -15 23 -3 21 3 -4 17 -17 8 -20 8 -17 -2z"/>
<path d="M4340 4536 c0 -8 4 -17 9 -20 5 -4 7 3 4 14 -6 23 -13 26 -13 6z"/>
<path d="M4580 4546 c0 -2 7 -7 16 -10 8 -3 12 -2 9 4 -6 10 -25 14 -25 6z"/>
<path d="M5158 4543 c7 -3 16 -2 19 1 4 3 -2 6 -13 5 -11 0 -14 -3 -6 -6z"/>
<path d="M5284 4525 c2 -16 5 -32 6 -35 1 -3 2 -9 1 -13 -1 -5 3 -6 8 -2 6 3
8 12 4 20 -3 9 1 23 8 32 12 14 12 16 0 9 -8 -5 -17 -3 -22 5 -7 10 -8 4 -5
-16z"/>
<path d="M2410 4531 c0 -10 19 -25 25 -20 1 2 -3 10 -11 17 -8 7 -14 8 -14 3z"/>
<path d="M2908 4528 c5 -5 16 -8 23 -6 8 3 3 7 -10 11 -17 4 -21 3 -13 -5z"/>
<path d="M2967 4533 c-14 -13 -6 -19 26 -20 18 -1 23 1 12 4 -11 3 -23 9 -26
14 -3 5 -8 6 -12 2z"/>
<path d="M3267 4527 c-4 -10 3 -12 24 -9 16 2 29 8 29 13 0 14 -47 10 -53 -4z"/>
<path d="M3790 4533 c0 -6 8 -19 18 -31 18 -20 18 -20 30 -1 7 11 8 19 2 19
-5 0 -10 -6 -10 -12 -1 -7 -10 -2 -20 11 -11 13 -20 19 -20 14z"/>
<path d="M3975 4530 c-3 -5 0 -19 8 -31 8 -11 18 -16 21 -11 3 6 -1 13 -10 16
-9 4 -14 13 -10 21 6 17 0 20 -9 5z"/>
<path d="M4455 4519 c-30 -14 -34 -18 -15 -16 27 3 68 23 60 30 -3 2 -23 -4
-45 -14z"/>
<path d="M4696 4525 c4 -8 10 -15 15 -15 4 0 6 7 3 15 -4 8 -10 15 -15 15 -4
0 -6 -7 -3 -15z"/>
<path d="M4775 4530 c-3 -5 -1 -10 4 -10 6 0 11 5 11 10 0 6 -2 10 -4 10 -3 0
-8 -4 -11 -10z"/>
<path d="M4910 4530 c0 -5 5 -10 10 -10 6 0 10 5 10 10 0 6 -4 10 -10 10 -5 0
-10 -4 -10 -10z"/>
<path d="M4964 4528 c1 -7 12 -14 24 -14 12 -1 19 3 16 8 -3 5 -12 7 -19 4 -8
-3 -16 -1 -19 5 -2 5 -3 4 -2 -3z"/>
<path d="M5340 4530 c8 -5 20 -10 25 -10 6 0 3 5 -5 10 -8 5 -19 10 -25 10 -5
0 -3 -5 5 -10z"/>
<path d="M3077 4519 c7 -7 15 -10 18 -7 3 3 -2 9 -12 12 -14 6 -15 5 -6 -5z"/>
<path d="M3181 4523 c-1 -6 -9 -14 -18 -16 -10 -2 -3 -3 16 -1 18 1 38 8 45
14 9 10 6 10 -11 1 -16 -8 -23 -8 -26 2 -4 8 -6 9 -6 0z"/>
<path d="M4546 4515 c4 -8 8 -15 10 -15 2 0 4 7 4 15 0 8 -4 15 -10 15 -5 0
-7 -7 -4 -15z"/>
<path d="M4750 4521 c0 -6 4 -13 10 -16 6 -3 7 1 4 9 -7 18 -14 21 -14 7z"/>
<path d="M5098 4523 c6 -2 18 -2 25 0 6 3 1 5 -13 5 -14 0 -19 -2 -12 -5z"/>
<path d="M3570 4510 c-9 -6 -10 -10 -3 -10 6 0 15 5 18 10 8 12 4 12 -15 0z"/>
<path d="M3671 4500 l-24 -20 23 3 c13 2 24 11 26 20 3 20 4 21 -25 -3z"/>
<path d="M4790 4510 c-12 -7 -10 -9 7 -7 12 0 19 5 17 9 -6 10 -6 10 -24 -2z"/>
<path d="M5170 4509 c0 -5 5 -7 10 -4 6 3 10 8 10 11 0 2 -4 4 -10 4 -5 0 -10
-5 -10 -11z"/>
<path d="M5314 4509 c-6 -10 22 -19 61 -19 19 0 35 6 38 14 4 11 -6 13 -44 13
-28 0 -52 -4 -55 -8z"/>
<path d="M3276 4502 c-3 -4 4 -9 15 -9 23 -2 25 3 4 10 -8 4 -16 3 -19 -1z"/>
<path d="M3893 4497 c0 -8 6 -14 14 -14 9 0 10 4 2 14 -6 7 -12 13 -14 13 -1
0 -2 -6 -2 -13z"/>
<path d="M4360 4490 c-8 -5 -12 -12 -9 -15 4 -3 12 1 19 10 14 17 11 19 -10 5z"/>
<path d="M5746 4491 c-4 -6 -4 -15 -1 -21 11 -17 -7 -11 -22 8 -12 15 -12 13
-1 -11 l12 -28 20 20 c15 15 17 24 9 32 -8 8 -13 8 -17 0z"/>
<path d="M4310 4480 c0 -6 7 -10 15 -10 8 0 15 2 15 4 0 2 -7 6 -15 10 -8 3
-15 1 -15 -4z"/>
<path d="M4727 4473 c3 -7 6 -13 8 -13 2 0 5 6 8 13 3 8 -1 14 -8 14 -7 0 -11
-6 -8 -14z"/>
<path d="M5170 4482 c0 -5 7 -9 15 -9 8 0 12 4 9 9 -3 4 -9 8 -15 8 -5 0 -9
-4 -9 -8z"/>
<path d="M5617 4479 c7 -7 15 -10 18 -7 3 3 -2 9 -12 12 -14 6 -15 5 -6 -5z"/>
<path d="M4388 4468 c6 -6 18 -8 28 -6 14 3 12 5 -9 10 -19 3 -25 2 -19 -4z"/>
<path d="M4760 4470 c-9 -6 -10 -10 -3 -10 6 0 15 5 18 10 8 12 4 12 -15 0z"/>
<path d="M4816 4472 c-3 -4 4 -9 15 -9 23 -2 25 3 4 10 -8 4 -16 3 -19 -1z"/>
<path d="M4867 4469 c7 -7 15 -10 18 -7 3 3 -2 9 -12 12 -14 6 -15 5 -6 -5z"/>
<path d="M5095 4470 c3 -5 11 -10 16 -10 6 0 7 5 4 10 -3 6 -11 10 -16 10 -6
0 -7 -4 -4 -10z"/>
<path d="M5146 4467 c3 -10 9 -15 12 -12 3 3 0 11 -7 18 -10 9 -11 8 -5 -6z"/>
<path d="M5214 4458 l-19 -23 23 19 c12 11 22 21 22 23 0 8 -8 2 -26 -19z"/>
<path d="M5354 4458 l-19 -23 23 19 c12 11 22 21 22 23 0 8 -8 2 -26 -19z"/>
<path d="M5422 4474 c4 -4 3 -15 -3 -25 -13 -24 -8 -24 13 0 15 18 15 20 0 26
-9 3 -13 3 -10 -1z"/>
<path d="M5310 4460 c0 -5 5 -10 11 -10 5 0 7 5 4 10 -3 6 -8 10 -11 10 -2 0
-4 -4 -4 -10z"/>
<path d="M5270 4449 c0 -5 5 -7 10 -4 6 3 10 8 10 11 0 2 -4 4 -10 4 -5 0 -10
-5 -10 -11z"/>
<path d="M5470 4450 c-21 -7 -21 -8 -5 -9 11 0 27 4 35 9 18 11 5 11 -30 0z"/>
<path d="M5576 4448 c3 -5 10 -6 15 -3 13 9 11 12 -6 12 -8 0 -12 -4 -9 -9z"/>
<path d="M5063 4443 c9 -2 23 -2 30 0 6 3 -1 5 -18 5 -16 0 -22 -2 -12 -5z"/>
<path d="M3500 4125 c0 -3 18 -34 40 -67 22 -34 40 -54 40 -45 0 9 -16 39 -36
67 -34 47 -44 57 -44 45z"/>
<path d="M4275 4308 c-22 -18 -72 -61 -110 -97 -39 -37 -92 -82 -117 -101 -26
-19 -48 -38 -48 -42 -1 -20 33 -2 114 62 48 39 91 70 95 70 13 0 131 115 131
128 0 21 -24 13 -65 -20z"/>
<path d="M394 4911 c7 -11 46 -35 46 -28 0 3 -12 12 -26 22 -15 9 -23 12 -20
6z"/>
<path d="M440 4909 c0 -5 5 -7 10 -4 6 3 10 8 10 11 0 2 -4 4 -10 4 -5 0 -10
-5 -10 -11z"/>
<path d="M538 4913 c7 -3 16 -2 19 1 4 3 -2 6 -13 5 -11 0 -14 -3 -6 -6z"/>
<path d="M295 4900 c3 -5 11 -10 16 -10 6 0 7 5 4 10 -3 6 -11 10 -16 10 -6 0
-7 -4 -4 -10z"/>
<path d="M515 4901 c6 -11 4 -13 -9 -8 -11 4 -15 3 -11 -4 4 -6 13 -8 20 -5 8
3 15 0 17 -6 2 -5 10 -2 18 8 10 12 11 15 2 10 -7 -4 -20 -2 -29 6 -14 11 -16
11 -8 -1z"/>
<path d="M380 4891 c0 -6 4 -13 10 -16 6 -3 7 1 4 9 -7 18 -14 21 -14 7z"/>
<path d="M591 4884 c0 -11 3 -14 6 -6 3 7 2 16 -1 19 -3 4 -6 -2 -5 -13z"/>
<path d="M626 4892 c-3 -5 4 -18 17 -28 12 -10 19 -15 15 -10 -4 5 -2 16 4 25
7 9 8 13 4 9 -5 -4 -15 -3 -22 3 -7 6 -15 6 -18 1z"/>
<path d="M458 4883 c7 -3 16 -2 19 1 4 3 -2 6 -13 5 -11 0 -14 -3 -6 -6z"/>
<path d="M328 4873 c7 -3 16 -2 19 1 4 3 -2 6 -13 5 -11 0 -14 -3 -6 -6z"/>
<path d="M4590 4826 c0 -8 -7 -17 -16 -20 -8 -3 -13 -10 -9 -15 10 -17 31 -2
33 24 1 14 0 25 -3 25 -3 0 -5 -6 -5 -14z"/>
<path d="M4750 4830 c0 -5 5 -10 10 -10 6 0 10 5 10 10 0 6 -4 10 -10 10 -5 0
-10 -4 -10 -10z"/>
<path d="M403 4823 c9 -2 25 -2 35 0 9 3 1 5 -18 5 -19 0 -27 -2 -17 -5z"/>
<path d="M493 4810 c-1 -11 2 -20 7 -20 5 0 7 -8 4 -17 -5 -16 -4 -16 10 1 11
14 13 24 5 37 -13 25 -24 24 -26 -1z"/>
<path d="M184 4808 c-4 -6 -2 -14 4 -16 7 -2 12 -10 12 -17 0 -8 4 -17 10 -20
12 -7 2 23 -14 44 -9 12 -7 13 7 8 11 -4 16 -3 12 3 -8 13 -22 13 -31 -2z"/>
<path d="M273 4813 c9 -2 25 -2 35 0 9 3 1 5 -18 5 -19 0 -27 -2 -17 -5z"/>
<path d="M5000 4816 c0 -3 9 -10 20 -16 11 -6 20 -8 20 -6 0 3 -9 10 -20 16
-11 6 -20 8 -20 6z"/>
<path d="M395 4801 c-3 -5 -2 -12 3 -15 5 -3 9 1 9 9 0 17 -3 19 -12 6z"/>
<path d="M4616 4793 c-6 -14 -5 -15 5 -6 7 7 10 15 7 18 -3 3 -9 -2 -12 -12z"/>
<path d="M4750 4799 c0 -5 5 -7 10 -4 6 3 10 8 10 11 0 2 -4 4 -10 4 -5 0 -10
-5 -10 -11z"/>
<path d="M5050 4799 c0 -5 5 -7 10 -4 6 3 10 8 10 11 0 2 -4 4 -10 4 -5 0 -10
-5 -10 -11z"/>
<path d="M266 4777 c8 -29 25 -46 18 -19 -4 13 -1 20 8 19 7 -1 15 2 18 7 3 5
-8 10 -23 12 -25 2 -27 0 -21 -19z"/>
<path d="M4897 4787 c3 -5 18 -5 34 -2 21 5 29 3 27 -6 -5 -22 29 -22 35 1 3
11 1 20 -4 20 -5 0 -9 -7 -9 -15 0 -8 -4 -15 -10 -15 -5 0 -7 7 -4 15 5 12 -2
14 -34 12 -22 -1 -38 -6 -35 -10z"/>
<path d="M430 4780 c0 -5 5 -10 11 -10 5 0 7 5 4 10 -3 6 -8 10 -11 10 -2 0
-4 -4 -4 -10z"/>
<path d="M4714 4782 c5 -8 -1 -12 -16 -13 -18 -1 -19 -2 -4 -6 23 -6 43 12 25
22 -8 5 -10 4 -5 -3z"/>
<path d="M5162 4776 c10 -7 17 -15 15 -17 -1 -2 2 -1 8 4 6 5 4 11 -5 17 -23
15 -37 11 -18 -4z"/>
<path d="M230 4772 c0 -5 7 -9 15 -9 8 0 12 4 9 9 -3 4 -9 8 -15 8 -5 0 -9 -4
-9 -8z"/>
<path d="M470 4770 c0 -5 5 -10 10 -10 6 0 10 5 10 10 0 6 -4 10 -10 10 -5 0
-10 -4 -10 -10z"/>
<path d="M651 4773 c0 -6 -4 -20 -7 -30 -5 -14 -4 -15 5 -7 7 7 11 20 8 30 -3
11 -5 14 -6 7z"/>
<path d="M4550 4768 c0 -10 7 -15 18 -13 9 2 20 4 25 4 4 1 7 6 7 12 0 8 -4 8
-13 0 -10 -8 -17 -7 -25 1 -9 9 -12 8 -12 -4z"/>
<path d="M4760 4768 c0 -4 14 -8 30 -8 17 0 30 2 30 4 0 2 -13 6 -30 8 -16 3
-30 1 -30 -4z"/>
<path d="M5037 4774 c-4 -4 -4 -11 -1 -15 7 -11 64 -12 64 -1 0 5 -14 6 -31 4
-22 -3 -30 -1 -25 7 8 12 3 15 -7 5z"/>
<path d="M540 4746 c0 -8 4 -17 9 -20 5 -4 7 3 4 14 -6 23 -13 26 -13 6z"/>
<path d="M7055 4750 c-8 -13 5 -13 25 0 13 8 13 10 -2 10 -9 0 -20 -4 -23 -10z"/>
<path d="M462 4736 c10 -7 14 -17 10 -21 -4 -5 -2 -5 5 -2 6 4 13 4 16 0 2 -5
2 -2 1 5 -2 6 1 12 6 12 6 0 10 5 10 11 0 8 -4 8 -14 0 -10 -8 -16 -9 -21 -1
-3 5 -12 10 -18 10 -7 0 -4 -6 5 -14z"/>
<path d="M5175 4740 c-16 -7 -17 -9 -3 -9 9 -1 20 4 23 9 7 11 7 11 -20 0z"/>
<path d="M5235 4741 c-3 -5 -2 -12 3 -15 5 -3 9 1 9 9 0 17 -3 19 -12 6z"/>
<path d="M5260 4732 c0 -5 7 -9 15 -9 8 0 15 4 15 9 0 4 -7 8 -15 8 -8 0 -15
-4 -15 -8z"/>
<path d="M515 4720 c-3 -5 -1 -10 4 -10 6 0 11 5 11 10 0 6 -2 10 -4 10 -3 0
-8 -4 -11 -10z"/>
<path d="M650 4715 c-9 -10 -9 -15 -1 -15 6 0 11 6 11 13 0 8 4 7 10 -3 6 -9
10 -10 10 -3 0 19 -17 24 -30 8z"/>
<path d="M7130 4719 c0 -5 5 -7 10 -4 6 3 10 8 10 11 0 2 -4 4 -10 4 -5 0 -10
-5 -10 -11z"/>
<path d="M135 4710 c-7 -12 19 -24 37 -17 7 3 3 6 -10 6 -13 1 -20 5 -17 11 3
6 4 10 1 10 -3 0 -8 -5 -11 -10z"/>
<path d="M6650 4700 c0 -6 7 -10 15 -10 8 0 15 2 15 4 0 2 -7 6 -15 10 -8 3
-15 1 -15 -4z"/>
<path d="M7146 4695 c-3 -8 -16 -15 -28 -16 -29 -1 28 -18 87 -26 22 -3 45 -9
51 -14 7 -6 16 -4 24 5 10 13 7 16 -13 21 -14 4 -40 8 -58 9 -19 2 -39 4 -46
5 -7 0 -10 8 -7 16 4 8 4 15 1 15 -3 0 -7 -7 -11 -15z"/>
<path d="M7180 4706 c0 -2 7 -7 16 -10 8 -3 12 -2 9 4 -6 10 -25 14 -25 6z"/>
<path d="M6886 4683 c-6 -14 -5 -15 5 -6 7 7 10 15 7 18 -3 3 -9 -2 -12 -12z"/>
<path d="M7321 4697 c2 -1 12 -9 22 -16 15 -12 17 -12 11 3 -3 9 -13 16 -22
16 -8 0 -13 -1 -11 -3z"/>
<path d="M247 4670 c3 -11 9 -20 15 -20 5 0 4 9 -2 20 -6 11 -12 20 -14 20 -2
0 -2 -9 1 -20z"/>
<path d="M7238 4683 c7 -3 16 -2 19 1 4 3 -2 6 -13 5 -11 0 -14 -3 -6 -6z"/>
<path d="M185 4670 c-9 -15 4 -30 20 -23 8 3 15 1 15 -5 0 -6 -6 -13 -12 -15
-7 -3 4 -4 25 -3 21 1 42 8 46 15 5 7 11 12 15 11 4 -1 10 0 14 3 4 2 1 2 -5
1 -7 -2 -13 4 -13 12 0 8 -5 12 -10 9 -6 -4 -8 -10 -5 -15 3 -5 -4 -14 -16
-21 -17 -9 -23 -8 -30 2 -13 20 -11 31 4 23 6 -4 9 -3 4 1 -11 13 -45 16 -52
5z m25 -4 c0 -3 -4 -8 -10 -11 -5 -3 -10 -1 -10 4 0 6 5 11 10 11 6 0 10 -2
10 -4z"/>
<path d="M648 4673 c7 -3 16 -2 19 1 4 3 -2 6 -13 5 -11 0 -14 -3 -6 -6z"/>
<path d="M7027 4666 c4 -5 -4 -7 -17 -3 -13 3 -19 2 -14 -2 14 -13 83 -21 89
-10 3 5 -1 6 -10 3 -11 -5 -14 -2 -9 10 5 12 0 15 -19 14 -14 -1 -23 -6 -20
-12z"/>
<path d="M6785 4660 c3 -5 8 -10 11 -10 2 0 4 5 4 10 0 6 -5 10 -11 10 -5 0
-7 -4 -4 -10z"/>
<path d="M650 4652 c0 -5 7 -15 15 -22 8 -7 15 -9 15 -6 0 4 -7 14 -15 22 -8
9 -15 11 -15 6z"/>
<path d="M7308 4653 c7 -3 16 -2 19 1 4 3 -2 6 -13 5 -11 0 -14 -3 -6 -6z"/>
<path d="M840 4635 c-6 -8 -10 -19 -8 -24 1 -6 8 1 15 14 13 28 11 31 -7 10z"/>
<path d="M6697 4644 c-3 -5 1 -15 9 -22 16 -14 18 -5 5 17 -5 7 -11 9 -14 5z"/>
<path d="M7144 4639 c-4 -7 -3 -9 4 -5 6 3 13 2 16 -3 3 -5 -1 -11 -8 -14 -19
-7 -14 -60 5 -65 9 -2 10 0 4 5 -16 13 -15 46 2 58 13 10 13 12 0 24 -12 9
-17 9 -23 0z"/>
<path d="M554 4628 c-4 -7 -4 -10 1 -6 4 4 15 2 24 -5 14 -11 14 -10 2 6 -16
20 -18 21 -27 5z"/>
<path d="M610 4636 c0 -3 9 -10 20 -16 11 -6 20 -8 20 -6 0 3 -9 10 -20 16
-11 6 -20 8 -20 6z"/>
<path d="M6880 4631 c-8 -6 -18 -7 -24 -4 -5 4 -7 0 -3 -9 3 -9 2 -20 -1 -24
-4 -5 0 -1 10 8 18 20 33 24 22 6 -4 -7 -3 -8 4 -4 6 3 16 -3 22 -14 6 -11 17
-20 25 -20 13 0 17 -6 14 -26 -1 -9 23 -24 40 -24 11 0 9 4 -5 14 -10 8 -19
20 -19 28 0 7 -10 14 -22 16 -22 3 -27 11 -24 42 2 13 1 13 -8 0 -10 -13 -15
-7 -12 13 1 9 -1 9 -19 -2z"/>
<path d="M6820 4619 c0 -5 -6 -7 -12 -3 -7 4 -9 3 -5 -1 13 -15 36 -14 30 1
-6 17 -13 18 -13 3z"/>
<path d="M7023 4615 c-3 -9 -3 -18 -1 -21 3 -3 8 4 11 16 6 23 -1 27 -10 5z"/>
<path d="M7058 4623 c7 -3 16 -2 19 1 4 3 -2 6 -13 5 -11 0 -14 -3 -6 -6z"/>
<path d="M7110 4625 c0 -5 5 -17 10 -25 5 -8 10 -10 10 -5 0 6 -5 17 -10 25
-5 8 -10 11 -10 5z"/>
<path d="M351 4604 c0 -11 3 -14 6 -6 3 7 2 16 -1 19 -3 4 -6 -2 -5 -13z"/>
<path d="M6935 4609 c-4 -6 -5 -12 -2 -15 2 -3 7 2 10 11 7 17 1 20 -8 4z"/>
<path d="M7222 4595 c6 -14 13 -23 16 -21 7 7 -9 46 -18 46 -5 0 -4 -11 2 -25z"/>
<path d="M7246 4605 c4 -8 10 -15 15 -15 4 0 6 7 3 15 -4 8 -10 15 -15 15 -4
0 -6 -7 -3 -15z"/>
<path d="M7310 4609 c0 -5 5 -7 10 -4 6 3 10 8 10 11 0 2 -4 4 -10 4 -5 0 -10
-5 -10 -11z"/>
<path d="M221 4599 c-1 -9 9 -24 22 -35 22 -19 22 -19 6 1 -9 11 -19 27 -22
35 -5 13 -6 13 -6 -1z"/>
<path d="M245 4600 c-3 -6 1 -7 9 -4 11 4 16 0 16 -10 0 -9 4 -16 9 -16 5 0
11 -8 13 -17 3 -16 6 -15 16 4 11 19 10 22 -3 16 -11 -4 -18 1 -22 16 -6 22
-27 28 -38 11z"/>
<path d="M690 4606 c0 -2 8 -10 18 -17 15 -13 16 -12 3 4 -13 16 -21 21 -21
13z"/>
<path d="M6510 4600 c0 -5 5 -10 11 -10 5 0 7 5 4 10 -3 6 -8 10 -11 10 -2 0
-4 -4 -4 -10z"/>
<path d="M6954 4599 c-4 -7 -3 -9 4 -5 5 3 13 0 15 -6 4 -9 6 -10 6 -1 1 17
-16 25 -25 12z"/>
<path d="M411 4574 c0 -11 3 -14 6 -6 3 7 2 16 -1 19 -3 4 -6 -2 -5 -13z"/>
<path d="M482 4574 c10 -10 20 -16 22 -13 3 3 -5 11 -17 18 -21 13 -21 12 -5
-5z"/>
<path d="M370 4568 c0 -9 -6 -19 -12 -21 -10 -4 -10 -6 0 -6 14 -1 28 26 18
36 -3 4 -6 -1 -6 -9z"/>
<path d="M553 4568 c1 -6 -14 -17 -33 -24 l-35 -14 34 6 c42 8 68 29 46 38 -8
3 -14 0 -12 -6z"/>
<path d="M830 4569 c0 -6 -4 -8 -8 -5 -4 2 -13 -4 -19 -14 -11 -16 -9 -18 11
-16 43 5 61 28 31 40 -8 3 -15 1 -15 -5z m10 -19 c-8 -5 -19 -10 -25 -10 -5 0
-3 5 5 10 8 5 20 10 25 10 6 0 3 -5 -5 -10z"/>
<path d="M6990 4565 c-10 -12 -9 -15 4 -15 10 0 15 4 12 9 -4 5 0 12 6 14 8 4
9 6 2 6 -6 1 -17 -6 -24 -14z"/>
<path d="M648 4557 c11 -13 10 -16 -8 -22 -12 -4 -19 -9 -17 -12 3 -2 15 1 27
7 16 9 25 8 38 -2 15 -12 16 -11 3 5 -8 10 -24 23 -35 29 -19 10 -19 9 -8 -5z"/>
<path d="M6566 4558 c-9 -5 -16 -14 -16 -19 0 -6 7 -3 16 6 14 13 19 14 25 3
7 -11 11 -10 19 2 8 13 10 12 10 -2 0 -10 -7 -18 -15 -18 -8 0 -15 -4 -15 -10
0 -13 3 -13 37 2 15 6 35 10 43 9 12 -1 13 0 1 7 -7 6 -10 15 -7 21 4 6 3 11
-2 11 -5 0 -13 -10 -16 -22 -7 -22 -8 -22 -15 -4 -8 21 -40 28 -65 14z"/>
<path d="M6826 4545 c4 -8 8 -15 10 -15 2 0 4 7 4 15 0 8 -4 15 -10 15 -5 0
-7 -7 -4 -15z"/>
<path d="M7036 4548 c3 -4 11 -5 19 -1 21 7 19 12 -4 10 -11 0 -18 -5 -15 -9z"/>
<path d="M7105 4553 c-31 -7 -40 -21 -11 -16 15 3 29 9 32 14 3 5 4 8 2 8 -2
-1 -12 -3 -23 -6z"/>
<path d="M7220 4549 c0 -5 11 -9 25 -9 14 0 25 2 25 4 0 2 -11 6 -25 8 -14 3
-25 1 -25 -3z"/>
<path d="M6795 4540 c-4 -6 -16 -8 -27 -4 -14 4 -18 2 -14 -5 9 -14 43 -14 51
0 4 6 5 13 2 15 -3 3 -8 0 -12 -6z"/>
<path d="M7370 4540 c8 -5 20 -10 25 -10 6 0 3 5 -5 10 -8 5 -19 10 -25 10 -5
0 -3 -5 5 -10z"/>
<path d="M6870 4530 c-13 -8 -12 -10 3 -10 9 0 17 5 17 10 0 12 -1 12 -20 0z"/>
<path d="M7100 4520 c8 -5 20 -10 25 -10 6 0 3 5 -5 10 -8 5 -19 10 -25 10 -5
0 -3 -5 5 -10z"/>
<path d="M7181 4520 c10 -7 49 -2 49 5 0 2 -14 3 -31 3 -17 -1 -25 -4 -18 -8z"/>
<path d="M7285 4521 c3 -6 -2 -14 -12 -19 -13 -8 -10 -10 14 -8 18 1 35 5 40
9 4 5 -1 5 -11 1 -13 -5 -17 -4 -13 3 4 6 0 14 -9 17 -8 3 -12 2 -9 -3z"/>
<path d="M6518 4508 c7 -7 16 -7 28 0 14 8 13 10 -10 10 -18 0 -24 -4 -18 -10z"/>
<path d="M6601 4497 c-71 -8 -106 -16 -109 -26 -4 -10 6 -12 47 -6 42 6 52 4
57 -9 3 -9 10 -16 15 -16 6 0 5 9 -1 20 -10 19 -8 20 64 20 50 0 76 -4 79 -12
3 -8 6 -6 6 5 1 15 13 17 117 17 63 0 147 -5 185 -12 61 -10 70 -14 66 -30 -4
-13 0 -18 16 -17 12 0 16 3 10 6 -20 8 -15 23 7 23 11 0 20 -5 20 -11 0 -5 5
-7 12 -3 6 4 35 6 63 5 35 -1 54 2 57 11 4 10 -6 12 -40 9 -48 -4 -182 17
-182 29 0 11 -380 9 -489 -3z"/>
<path d="M7340 4480 c0 -6 7 -10 15 -10 8 0 15 -4 15 -10 0 -5 5 -10 10 -10
19 0 10 17 -15 28 -15 7 -25 8 -25 2z"/>
<path d="M6990 4464 c15 -18 27 -18 27 -1 0 7 -9 14 -19 14 -16 2 -17 -1 -8
-13z"/>
<path d="M6650 4459 c0 -5 -5 -7 -12 -3 -7 4 -8 3 -4 -4 10 -17 36 -15 36 3 0
8 -4 15 -10 15 -5 0 -10 -5 -10 -11z"/>
<path d="M6698 4463 c7 -3 16 -2 19 1 4 3 -2 6 -13 5 -11 0 -14 -3 -6 -6z"/>
<path d="M6771 4454 c0 -11 3 -14 6 -6 3 7 2 16 -1 19 -3 4 -6 -2 -5 -13z"/>
<path d="M6945 4445 c-18 -23 -21 -23 -32 -8 -8 10 -13 12 -13 4 0 -7 -4 -9
-10 -6 -6 4 -7 -1 -3 -10 3 -10 0 -21 -8 -26 -10 -6 -11 -9 -1 -9 7 0 16 10
21 22 7 19 8 19 14 4 6 -15 10 -14 32 10 14 15 25 31 25 35 0 13 -3 11 -25
-16z"/>
<path d="M6568 4443 c7 -3 16 -2 19 1 4 3 -2 6 -13 5 -11 0 -14 -3 -6 -6z"/>
<path d="M6712 4443 c9 -2 18 -12 20 -21 3 -14 5 -13 9 3 5 17 1 21 -20 22
-14 0 -18 -1 -9 -4z"/>
<path d="M6790 4439 c0 -5 5 -7 10 -4 6 3 10 8 10 11 0 2 -4 4 -10 4 -5 0 -10
-5 -10 -11z"/>
<path d="M6520 4430 c0 -5 5 -10 11 -10 5 0 7 5 4 10 -3 6 -8 10 -11 10 -2 0
-4 -4 -4 -10z"/>
<path d="M7050 4429 c0 -5 5 -7 10 -4 6 3 10 8 10 11 0 2 -4 4 -10 4 -5 0 -10
-5 -10 -11z"/>
<path d="M7340 4430 c-11 -8 -8 -9 14 -6 16 3 31 8 34 11 10 9 -33 5 -48 -5z"/>
<path d="M6590 4415 c0 -5 5 -17 10 -25 5 -8 10 -10 10 -5 0 6 -5 17 -10 25
-5 8 -10 11 -10 5z"/>
<path d="M7070 4409 c0 -6 -7 -8 -17 -4 -12 4 -14 3 -8 -3 6 -5 21 -12 35 -16
14 -3 19 -3 13 0 -18 8 -16 27 2 20 8 -3 15 -1 15 4 0 6 -9 10 -20 10 -11 0
-20 -5 -20 -11z"/>
<path d="M6666 4395 c-3 -8 -1 -15 4 -15 6 0 10 7 10 15 0 8 -2 15 -4 15 -2 0
-6 -7 -10 -15z"/>
<path d="M6701 4394 c0 -11 3 -14 6 -6 3 7 2 16 -1 19 -3 4 -6 -2 -5 -13z"/>
<path d="M6786 4398 c3 -4 9 -8 15 -8 5 0 9 4 9 8 0 5 -7 9 -15 9 -8 0 -12 -4
-9 -9z"/>
<path d="M6952 4399 c2 -7 10 -15 17 -17 8 -3 12 1 9 9 -2 7 -10 15 -17 17 -8
3 -12 -1 -9 -9z"/>
<path d="M7131 4394 c0 -11 3 -14 6 -6 3 7 2 16 -1 19 -3 4 -6 -2 -5 -13z"/>
<path d="M7190 4401 c0 -5 5 -13 10 -16 6 -3 10 -2 10 4 0 5 -4 13 -10 16 -5
3 -10 2 -10 -4z"/>
<path d="M6555 4390 c27 -12 43 -12 25 0 -8 5 -22 9 -30 9 -10 0 -8 -3 5 -9z"/>
<path d="M7240 4390 c8 -5 20 -10 25 -10 6 0 3 5 -5 10 -8 5 -19 10 -25 10 -5
0 -3 -5 5 -10z"/>
<path d="M6628 4383 c7 -3 16 -2 19 1 4 3 -2 6 -13 5 -11 0 -14 -3 -6 -6z"/>
<path d="M7320 4365 c-7 -9 -8 -15 -2 -15 5 0 12 7 16 15 3 8 4 15 2 15 -2 0
-9 -7 -16 -15z"/>
<path d="M7200 4366 c0 -2 7 -7 16 -10 8 -3 12 -2 9 4 -6 10 -25 14 -25 6z"/>
</g>
</svg>
