
<svg version="1.0" xmlns="http://www.w3.org/2000/svg"
 width="750.000000pt" height="1000.000000pt" viewBox="0 0 750.000000 1000.000000"
 preserveAspectRatio="xMidYMid meet">

<g transform="translate(0.000000,1000.000000) scale(0.100000,-0.100000)"
fill="#000000" stroke="none">
<path d="M3870 6299 c-23 -5 -10 -5 35 -2 39 3 72 7 74 9 7 7 -72 2 -109 -7z"/>
<path d="M4013 6293 c9 -2 23 -2 30 0 6 3 -1 5 -18 5 -16 0 -22 -2 -12 -5z"/>
<path d="M4080 6280 c14 -4 32 -8 40 -9 13 -1 13 0 0 9 -8 5 -26 9 -40 9 l-25
-1 25 -8z"/>
<path d="M3764 6270 c-23 -9 -42 -30 -27 -30 4 0 19 9 33 20 27 21 26 23 -6
10z"/>
<path d="M4145 6260 c4 -6 24 -19 45 -30 21 -11 44 -28 49 -37 9 -15 10 -16
11 -2 0 9 -8 23 -17 31 -22 20 -96 51 -88 38z"/>
<path d="M3650 6169 c0 -5 5 -7 10 -4 6 3 10 8 10 11 0 2 -4 4 -10 4 -5 0 -10
-5 -10 -11z"/>
<path d="M4262 6115 c0 -16 2 -22 5 -12 2 9 2 23 0 30 -3 6 -5 -1 -5 -18z"/>
<path d="M3870 6111 c-87 -7 -169 -30 -228 -63 -18 -10 -43 -19 -55 -19 -17
-1 -18 -2 -4 -6 9 -2 41 0 69 7 29 6 126 13 217 15 144 5 182 2 287 -18 111
-21 121 -21 116 -5 -18 69 -187 107 -402 89z"/>
<path d="M3830 6024 c-36 -7 -76 -19 -90 -26 -17 -9 -89 -13 -235 -15 -115 -1
-228 -6 -250 -11 -31 -8 -5 -10 120 -11 88 -1 165 -5 172 -9 7 -4 -19 -6 -58
-4 -60 4 -72 2 -84 -14 -14 -19 -11 -34 6 -34 5 0 9 9 9 20 0 24 16 26 36 6
12 -13 9 -17 -29 -34 -55 -24 -79 -49 -72 -73 9 -28 18 -116 19 -194 l1 -70
-31 -3 c-17 -2 -73 11 -125 27 -105 34 -160 77 -198 154 -13 25 -21 34 -21 23
0 -30 44 -97 88 -137 30 -26 68 -45 136 -68 53 -17 105 -31 116 -31 22 0 24
-8 11 -43 -9 -23 -11 -23 -71 -13 l-62 10 -32 -35 c-24 -25 -39 -59 -58 -129
-15 -52 -41 -125 -58 -162 -31 -66 -33 -67 -53 -53 -29 20 -50 19 -72 -5 -10
-11 -36 -31 -59 -44 -60 -35 -115 -146 -72 -146 8 0 14 6 13 13 0 6 1 21 2 32
3 17 4 17 10 -5 5 -17 16 -26 39 -31 21 -4 32 -3 32 5 0 6 18 21 40 33 39 21
42 21 72 5 17 -9 39 -25 50 -34 17 -17 48 -25 48 -12 0 3 -5 14 -10 24 -9 17
-6 22 22 33 31 13 33 17 33 63 l0 49 -43 3 c-43 3 -43 3 -36 35 3 18 13 44 20
59 7 14 25 64 38 110 33 112 40 130 64 151 18 17 23 17 89 2 52 -12 78 -24 98
-45 16 -17 32 -30 37 -30 20 0 5 35 -27 64 -41 38 -42 43 -14 90 15 26 20 49
17 80 l-3 45 21 -20 c27 -25 63 -24 104 4 57 38 75 72 73 133 -1 41 -9 67 -32
104 -29 47 -29 48 -9 53 29 8 79 -15 127 -58 l40 -37 88 7 c49 4 102 8 119 10
17 2 57 -4 88 -13 l57 -15 37 35 c62 59 83 65 165 42 16 -5 16 -7 -2 -30 -30
-38 -37 -106 -16 -162 20 -55 61 -102 87 -102 21 0 22 -6 7 -49 -9 -25 -8 -36
5 -56 18 -27 20 -44 7 -63 -6 -11 -27 -4 -92 32 -46 25 -133 61 -194 81 -99
33 -117 36 -183 31 -41 -3 -104 -14 -140 -25 -37 -10 -101 -25 -142 -32 -41
-7 -87 -18 -102 -26 -15 -7 -38 -13 -53 -13 -14 0 -25 -4 -25 -10 0 -15 36
-12 136 10 156 35 184 40 288 46 79 4 111 2 145 -10 24 -9 58 -16 75 -16 52 0
130 -28 185 -65 28 -19 55 -35 60 -35 5 0 12 -4 15 -9 8 -12 -89 -108 -117
-116 -12 -4 -37 -13 -55 -21 -18 -8 -64 -21 -103 -28 -39 -8 -73 -17 -76 -20
-12 -11 63 -6 120 9 32 8 70 15 85 15 15 0 45 9 66 19 l38 20 -15 -22 c-7 -12
-48 -40 -90 -62 -41 -22 -96 -55 -121 -73 -55 -40 -76 -41 -179 -12 -109 30
-107 19 3 -13 109 -33 131 -33 167 -3 36 30 160 98 181 100 30 2 59 30 67 66
11 54 22 69 47 65 32 -5 61 -7 77 -6 27 2 -10 31 -40 31 -26 0 -28 3 -26 33 3
47 18 57 86 57 34 0 61 3 61 8 0 4 -25 5 -55 4 -49 -3 -55 -2 -55 16 0 11 -8
30 -18 43 -16 19 -17 29 -9 63 6 23 18 51 27 63 10 12 23 42 30 67 7 25 21 53
31 62 26 23 24 59 -3 76 -47 29 -166 78 -248 101 -101 29 -140 36 -244 42 -56
3 -82 9 -90 20 -9 13 -17 14 -40 5 -16 -6 -31 -9 -33 -6 -12 11 81 30 149 31
43 0 78 3 78 6 0 23 -113 24 -210 3z m-284 -173 c34 -51 41 -108 20 -153 -17
-35 -61 -68 -92 -68 -31 0 -64 40 -64 79 0 27 3 32 12 23 17 -17 43 -15 88 8
68 35 44 74 -46 74 -30 1 -54 4 -54 7 0 20 65 69 92 69 10 0 29 -18 44 -39z
m824 4 c17 -9 30 -20 30 -24 0 -5 3 -16 6 -25 4 -11 -4 -15 -37 -18 -81 -6
-74 -68 8 -68 36 0 41 -12 22 -54 -23 -50 -58 -36 -99 41 -26 48 -22 95 11
137 24 31 22 30 59 11z m-883 -76 c26 -10 27 -12 8 -19 -28 -12 -57 -12 -75 0
-13 9 -13 11 0 20 19 13 33 12 67 -1z m906 -19 c16 0 18 -3 10 -11 -14 -14
-63 -4 -63 12 0 6 7 8 16 5 9 -3 25 -6 37 -6z m-1379 -691 c14 -11 26 -26 26
-34 0 -12 55 -44 82 -46 15 -2 -38 -16 -64 -18 -10 0 -39 18 -66 42 -40 36
-47 46 -38 60 14 22 28 21 60 -4z m126 -29 c-12 -23 -28 -25 -67 -7 l-27 12
44 6 c25 3 49 7 53 7 4 1 3 -7 -3 -18z m-240 -16 c-8 -8 -23 -20 -34 -25 -15
-7 -13 -3 7 15 31 29 47 35 27 10z m58 -26 c2 -11 -10 -24 -37 -37 -22 -12
-43 -21 -46 -21 -12 0 -3 20 21 50 28 33 57 36 62 8z"/>
<path d="M4345 5980 c3 -5 11 -10 16 -10 6 0 7 5 4 10 -3 6 -11 10 -16 10 -6
0 -7 -4 -4 -10z"/>
<path d="M4478 5933 c6 -2 18 -2 25 0 6 3 1 5 -13 5 -14 0 -19 -2 -12 -5z"/>
<path d="M4473 5733 c-7 -2 -13 -9 -13 -14 0 -6 5 -7 10 -4 6 4 17 2 24 -4 9
-7 17 -5 29 9 16 19 16 20 -11 19 -15 0 -33 -3 -39 -6z"/>
<path d="M3773 5709 c-28 -10 -30 -39 -3 -39 20 0 46 35 33 43 -5 3 -18 1 -30
-4z"/>
<path d="M3883 5707 c-18 -10 -7 -12 73 -12 90 0 113 6 78 19 -27 10 -128 6
-151 -7z"/>
<path d="M4100 5695 c0 -16 27 -32 37 -21 7 7 -16 36 -28 36 -5 0 -9 -7 -9
-15z"/>
<path d="M4772 5589 c-24 -27 -39 -49 -33 -49 11 0 86 88 80 94 -2 2 -23 -18
-47 -45z"/>
<path d="M4644 5484 c-18 -14 -18 -14 6 -3 31 14 36 19 24 19 -6 0 -19 -7 -30
-16z"/>
<path d="M3800 5459 c-48 -14 -54 -17 -25 -14 176 21 164 22 306 -35 72 -28
133 -49 136 -46 3 3 -3 9 -13 13 -10 3 -66 26 -123 50 -124 51 -186 58 -281
32z"/>
<path d="M3246 5363 c-3 -10 -8 -64 -12 -120 -6 -99 -6 -102 20 -136 l27 -35
-31 -7 c-16 -4 -30 -11 -30 -16 0 -13 56 -39 87 -39 33 -1 143 -58 153 -80 87
-178 94 -200 78 -253 -10 -34 -9 -40 12 -62 22 -23 23 -23 46 -7 13 9 24 26
24 36 0 16 -3 17 -12 8 -7 -7 -19 -12 -28 -12 -15 0 -16 7 -7 56 6 39 6 63 -2
80 -6 14 -11 35 -11 47 0 12 -7 40 -15 62 -23 66 -19 83 11 39 15 -21 44 -58
65 -81 22 -24 39 -50 39 -59 0 -8 13 -28 29 -44 18 -19 25 -33 20 -42 -14 -21
-10 -31 6 -18 21 17 19 28 -10 66 -14 18 -25 39 -25 46 0 7 -11 25 -25 40 -45
48 -36 55 78 63 57 4 112 6 122 4 25 -5 40 -68 18 -76 -24 -10 6 -23 53 -23
33 0 47 6 72 33 17 17 42 40 56 50 14 10 35 35 45 55 10 20 41 52 67 71 47 32
48 33 76 17 15 -10 52 -23 80 -31 29 -8 64 -18 77 -21 21 -6 22 -5 12 13 -6
13 -25 23 -51 27 -46 7 -46 5 -10 101 21 57 34 145 21 145 -10 0 -21 -34 -21
-65 0 -11 -13 -46 -28 -77 -22 -45 -30 -54 -38 -41 -6 9 -30 17 -62 21 -47 4
-58 1 -119 -35 -105 -62 -148 -82 -203 -94 -31 -6 -56 -19 -63 -30 -7 -12 -23
-19 -43 -19 -30 0 -31 2 -30 38 1 36 0 37 -37 37 -25 0 -36 4 -33 12 3 7 -15
34 -39 61 -51 56 -157 112 -263 139 -91 23 -122 53 -122 122 0 50 -14 69 -24
34z m74 -176 c0 -5 -4 -5 -10 -2 -5 3 -18 -8 -29 -25 -15 -25 -20 -28 -25 -15
-8 21 -8 70 0 77 7 8 64 -24 64 -35z m160 -47 c30 -12 84 -42 119 -68 63 -47
63 -47 33 -50 -37 -4 -102 22 -102 41 0 8 -9 22 -20 32 -18 17 -23 17 -84 1
-81 -20 -100 -20 -120 -1 -15 15 -12 38 7 63 13 17 97 8 167 -18z m33 -114
c10 -27 16 -51 13 -53 -2 -2 -39 12 -81 31 -50 23 -94 36 -124 37 -45 1 -45 2
16 10 34 5 72 14 85 19 48 20 71 9 91 -44z m675 29 c-28 -16 -72 -10 -46 6 7
5 27 9 43 8 l30 0 -27 -14z m-62 -38 c-97 -63 -124 -88 -130 -122 -11 -58 -42
-62 -93 -12 -23 22 -40 43 -38 47 3 4 24 10 47 14 24 4 68 21 98 38 30 17 71
35 90 39 48 9 47 9 26 -4z m-460 -35 c8 -11 20 -13 44 -9 32 7 32 7 26 -25 -8
-42 -14 -46 -31 -21 -10 15 -30 22 -76 27 -34 3 -63 7 -64 9 -2 1 -5 11 -9 22
-5 19 -2 20 46 16 32 -2 57 -9 64 -19z m-166 -31 c5 -11 10 -28 10 -38 0 -13
-6 -8 -20 15 -23 37 -24 42 -10 42 5 0 14 -9 20 -19z m571 -9 c-13 -25 -50
-56 -57 -49 -4 4 8 20 26 37 37 34 45 38 31 12z m-420 -22 c16 0 29 -3 29 -8
0 -11 -79 -2 -87 11 -4 7 0 8 11 4 10 -4 31 -7 47 -7z m-117 -76 c3 -8 2 -12
-4 -9 -6 3 -10 10 -10 16 0 14 7 11 14 -7z"/>
<path d="M3536 5309 c9 -14 159 -84 199 -92 17 -4 -19 18 -80 48 -114 57 -131
63 -119 44z"/>
<path d="M4460 5266 c0 -3 12 -52 26 -111 30 -126 31 -263 1 -328 l-18 -39 23
4 c18 2 26 14 36 48 7 25 18 53 23 63 6 10 7 28 3 39 -5 17 -3 20 11 15 9 -4
21 -7 26 -7 5 0 15 -12 21 -27 l11 -28 10 28 c11 28 41 36 75 18 9 -4 29 -11
44 -15 23 -5 25 -3 21 15 -3 11 0 45 7 74 7 29 10 62 6 72 -6 13 -14 0 -32
-52 -13 -38 -24 -71 -24 -73 0 -1 -9 2 -19 8 -26 13 -64 13 -79 -2 -6 -6 -15
-8 -19 -4 -4 4 -2 11 6 15 7 5 11 21 9 37 l-4 29 -18 -36 c-25 -49 -55 -43
-58 10 -2 53 -2 64 7 85 7 15 5 17 -13 12 -21 -7 -30 9 -62 117 -10 31 -20 48
-20 33z"/>
<path d="M3831 4993 c-24 -3 -30 -7 -21 -13 15 -9 80 -2 95 11 9 9 -10 9 -74
2z"/>
<path d="M4319 4941 c-56 -5 -76 -13 -125 -46 -33 -21 -82 -61 -111 -87 -28
-26 -56 -48 -61 -48 -12 0 -29 -42 -40 -95 l-8 -40 -31 45 c-17 25 -43 56 -57
69 -14 14 -26 30 -26 38 0 7 -4 13 -10 13 -18 0 -10 -39 17 -85 16 -25 31 -45
36 -45 4 0 19 -11 33 -25 14 -14 33 -25 42 -25 20 0 42 50 42 93 0 20 7 30 25
37 14 5 28 16 31 25 3 8 10 12 15 9 5 -3 9 2 9 10 0 9 5 16 10 16 6 0 10 6 10
13 0 7 18 23 40 35 22 11 40 19 40 17 0 -25 -47 -131 -68 -153 -109 -115 -106
-111 -94 -137 7 -15 20 -25 32 -25 11 0 20 -4 20 -10 0 -5 9 -10 21 -10 11 0
35 -11 53 -25 37 -28 54 -31 79 -12 14 10 16 24 11 94 -4 50 -11 80 -17 76 -6
-3 -7 -35 -4 -79 4 -60 3 -74 -9 -74 -8 0 -14 4 -14 8 0 13 -42 30 -94 37 -35
6 -50 13 -56 29 -6 17 3 32 55 86 40 42 67 80 73 104 6 20 25 60 42 87 30 46
34 49 76 49 50 0 134 20 134 32 0 8 -16 8 -121 -1z"/>
<path d="M3215 4923 c-42 -13 -47 -17 -30 -24 24 -9 140 -10 174 0 l24 7 -26
17 c-32 21 -75 21 -142 0z m115 -13 c0 -5 -15 -10 -32 -9 -28 0 -30 2 -13 9
28 12 45 12 45 0z"/>
<path d="M4665 4890 c11 -5 34 -8 50 -8 l30 0 -30 8 c-16 4 -39 8 -50 8 l-20
1 20 -9z"/>
<path d="M4780 4880 c-24 -8 -23 -8 8 -9 17 -1 32 4 32 9 0 11 -5 11 -40 0z"/>
<path d="M3396 4855 c4 -11 16 -32 26 -47 10 -14 18 -31 18 -36 0 -6 5 -12 11
-14 15 -5 25 -108 11 -108 -5 0 -12 -13 -14 -30 -3 -16 -4 -30 -3 -30 1 0 14
18 29 40 19 28 26 53 26 86 0 42 -4 50 -55 102 -31 32 -52 48 -49 37z"/>
<path d="M4297 4769 c-15 -9 -53 -69 -44 -69 2 0 18 18 36 40 17 22 31 40 29
40 -2 0 -11 -5 -21 -11z"/>
<path d="M3530 4580 c0 -5 7 -7 15 -4 8 4 15 8 15 10 0 2 -7 4 -15 4 -8 0 -15
-4 -15 -10z"/>
<path d="M3470 4544 l-25 -14 23 0 c13 0 30 7 38 15 20 19 0 19 -36 -1z"/>
<path d="M2858 4473 c17 -2 47 -2 65 0 17 2 3 4 -33 4 -36 0 -50 -2 -32 -4z"/>
<path d="M2998 4463 c7 -3 16 -2 19 1 4 3 -2 6 -13 5 -11 0 -14 -3 -6 -6z"/>
<path d="M3046 4451 c11 -5 45 -39 74 -75 53 -66 81 -86 59 -43 -6 12 -29 43
-51 70 l-39 47 28 0 c17 0 33 -8 41 -20 7 -11 17 -20 22 -20 7 0 7 7 0 20 -15
29 12 27 34 -2 13 -18 16 -19 12 -5 -5 15 -1 18 20 15 21 -2 30 -12 43 -47 9
-24 22 -46 29 -49 16 -5 15 11 -3 55 -8 19 -15 36 -15 37 0 1 18 0 39 -2 l39
-4 8 -71 c5 -40 7 -85 6 -102 -2 -22 10 -48 43 -95 25 -36 61 -89 81 -118 20
-30 38 -51 41 -48 3 3 -14 36 -38 73 -83 126 -101 166 -97 213 l3 35 35 -51
c19 -27 53 -77 75 -110 22 -32 53 -76 69 -97 24 -31 28 -43 23 -75 -4 -20 -12
-39 -18 -41 -6 -2 -26 -16 -44 -32 -38 -34 -45 -35 -45 -11 0 9 -15 25 -32 35
-32 18 -32 18 -17 0 9 -10 19 -30 23 -45 3 -16 12 -28 20 -28 22 0 124 83 142
117 15 26 16 36 6 58 -7 14 -12 28 -12 30 0 3 24 6 53 6 l52 1 -48 8 c-55 10
-101 41 -149 102 -19 24 -60 75 -91 114 -59 74 -68 102 -41 129 9 9 15 17 13
19 -2 2 -96 7 -209 10 -125 4 -197 3 -184 -3z"/>
<path d="M3535 4440 c-14 -6 -4 -9 38 -9 36 -1 56 3 52 9 -7 12 -62 12 -90 0z"/>
<path d="M3980 4440 l-195 -5 218 -8 c120 -4 222 -5 227 -2 19 12 9 -2 -41
-55 -28 -30 -65 -75 -81 -100 -69 -100 -141 -151 -259 -181 -27 -7 -49 -16
-49 -21 0 -11 7 -10 31 3 32 17 107 -16 154 -68 28 -31 50 -45 76 -49 31 -5
38 -2 61 28 l27 35 -24 -5 c-13 -2 -25 -13 -28 -23 -4 -13 -14 -19 -36 -19
-26 0 -33 6 -46 38 -9 20 -27 49 -41 63 l-25 26 41 18 c46 21 95 71 144 148
18 29 56 76 84 106 l51 54 78 -8 c43 -4 104 -7 136 -6 60 2 75 -12 42 -39 -8
-7 -29 -39 -47 -72 -17 -32 -49 -74 -72 -94 -23 -19 -48 -41 -56 -48 -27 -23
-108 -76 -117 -76 -5 0 -24 -14 -43 -31 -19 -17 -28 -27 -20 -23 20 10 162
105 296 198 16 11 52 83 91 182 3 9 -42 14 -157 19 -88 4 -163 11 -166 16 -3
5 -17 8 -32 7 -15 -1 -115 -5 -222 -8z"/>
<path d="M3478 4433 c6 -2 18 -2 25 0 6 3 1 5 -13 5 -14 0 -19 -2 -12 -5z"/>
<path d="M3678 4433 c12 -2 32 -2 45 0 12 2 2 4 -23 4 -25 0 -35 -2 -22 -4z"/>
<path d="M2990 4424 c0 -3 36 -42 81 -87 45 -45 85 -94 91 -108 5 -14 20 -31
34 -38 23 -10 24 -9 14 9 -5 10 -15 22 -20 25 -6 3 -10 17 -10 30 0 14 -7 26
-19 30 -10 3 -50 37 -90 75 -68 67 -81 77 -81 64z"/>
<path d="M4275 4308 c-22 -18 -72 -61 -110 -97 -39 -37 -92 -82 -117 -101 -26
-19 -48 -38 -48 -42 -1 -20 33 -2 114 62 48 39 91 70 95 70 13 0 131 115 131
128 0 21 -24 13 -65 -20z"/>
<path d="M3260 4122 c0 -5 12 -19 27 -33 l26 -24 -23 33 c-25 33 -30 38 -30
24z"/>
<path d="M3500 4125 c0 -3 18 -34 40 -67 22 -34 40 -54 40 -45 0 9 -16 39 -36
67 -34 47 -44 57 -44 45z"/>
<path d="M3367 4009 c12 -13 37 -33 55 -43 42 -24 36 -18 -27 29 -29 22 -41
28 -28 14z"/>
</g>
</svg>
