
<svg version="1.0" xmlns="http://www.w3.org/2000/svg"
 width="120pt" height="120pt" viewBox="0 0 750.000000 1000.000000"
 preserveAspectRatio="xMidYMid meet">

<g transform="translate(0.000000,1000.000000) scale(0.100000,-0.100000)"
fill="#000000" stroke="none">
<path d="M2005 6310 c-3 -6 -15 -10 -26 -10 -11 0 -18 -4 -14 -10 3 -6 15 -6
30 0 35 13 224 14 272 1 57 -16 141 -100 101 -101 -7 -1 -24 -9 -36 -20 -23
-19 -23 -21 -7 -37 13 -12 14 -18 5 -21 -9 -3 -9 -7 1 -14 9 -6 -3 -8 -36 -7
-27 1 -57 1 -66 0 -32 -2 -110 -64 -135 -107 -28 -47 -40 -56 -31 -24 4 14 -1
24 -15 31 -18 10 -20 9 -15 -5 4 -9 2 -16 -3 -16 -16 0 -11 30 5 36 21 8 20
54 -1 54 -13 0 -14 -3 -5 -14 10 -12 8 -17 -9 -26 -16 -9 -21 -8 -26 5 -3 8
-10 12 -16 9 -5 -3 -1 -12 9 -19 14 -11 16 -18 7 -32 -6 -10 -20 -23 -30 -28
-10 -6 -31 -18 -46 -28 -15 -11 -32 -16 -38 -12 -6 4 -17 2 -24 -5 -8 -6 -26
-8 -42 -4 l-27 7 21 18 c12 9 22 24 22 33 0 8 7 19 16 24 19 10 11 32 -12 32
-8 0 -14 4 -14 9 0 13 -46 1 -48 -12 -1 -7 -6 -32 -11 -57 l-10 -45 4 55 c5
79 35 163 73 206 18 20 30 39 27 42 -11 11 -55 -52 -96 -133 -33 -67 -40 -94
-46 -164 l-6 -83 -45 -29 c-25 -16 -60 -34 -79 -40 -19 -6 -32 -13 -30 -15 7
-7 105 34 137 58 24 18 50 22 162 29 73 5 150 13 171 18 35 8 37 8 43 -18 9
-35 51 -91 70 -91 13 0 12 4 -4 25 -26 33 -46 107 -38 147 8 42 39 93 69 112
34 23 115 36 165 26 42 -7 112 -60 112 -84 0 -5 -15 4 -32 21 -45 44 -82 56
-149 48 -94 -11 -153 -87 -134 -173 16 -74 99 -152 161 -152 41 0 127 32 148
55 15 16 41 27 81 34 58 10 119 4 238 -25 17 -4 27 -2 27 5 0 6 -8 11 -17 11
-10 1 -29 7 -42 14 -24 13 -24 14 -4 24 22 12 63 82 63 107 0 18 -22 19 -53 4
-21 -10 -21 -10 -3 5 11 9 26 16 33 16 7 0 13 5 13 11 0 24 -48 -6 -105 -66
-61 -64 -67 -67 -161 -78 l-30 -3 4 51 c3 31 -2 64 -11 87 -15 35 -14 36 9 49
25 13 31 33 14 44 -5 3 -23 31 -40 63 -16 31 -44 71 -60 89 -17 18 -30 36 -30
41 0 6 -19 20 -42 33 -37 20 -60 23 -175 26 -79 1 -134 -1 -138 -7z m440 -230
c9 -32 2 -25 -20 20 -13 27 -14 32 -2 20 8 -8 18 -26 22 -40z m-45 36 c0 -2
-7 -7 -16 -10 -8 -3 -12 -2 -9 4 6 10 25 14 25 6z m25 -64 c-3 -3 -11 0 -18 7
-9 10 -8 11 6 5 10 -3 15 -9 12 -12z m-64 -47 c28 -15 58 -40 69 -58 44 -72
10 -161 -70 -184 -113 -33 -210 41 -210 160 0 49 14 67 70 91 50 22 84 19 141
-9z m-551 -34 c0 -5 -9 -11 -20 -14 -22 -6 -29 18 -7 26 14 5 27 -1 27 -12z
m107 -77 c39 -11 14 -24 -43 -24 -31 0 -53 4 -50 9 4 5 25 8 49 5 31 -2 37 -1
22 6 -23 10 -10 12 22 4z m60 -10 c-3 -3 -12 -4 -19 -1 -8 3 -5 6 6 6 11 1 17
-2 13 -5z m683 -44 c0 -5 -9 -10 -21 -10 -11 0 -17 5 -14 10 3 6 13 10 21 10
8 0 14 -4 14 -10z"/>
<path d="M2273 5963 c-12 -2 -27 -11 -33 -19 -26 -31 46 -74 122 -74 81 0 88
30 18 78 -31 21 -57 25 -107 15z m76 -44 c61 -21 25 -30 -57 -13 -26 5 -20 24
7 24 10 0 32 -5 50 -11z"/>
<path d="M3865 6300 l-40 -7 37 -2 c20 0 40 4 43 9 3 6 5 9 3 9 -2 -1 -21 -5
-43 -9z"/>
<path d="M4013 6293 c9 -2 23 -2 30 0 6 3 -1 5 -18 5 -16 0 -22 -2 -12 -5z"/>
<path d="M4095 6276 c22 -6 56 -21 75 -34 19 -12 38 -22 43 -22 4 0 17 -15 28
-32 17 -28 19 -29 14 -8 -4 14 -12 31 -18 38 -16 20 -133 72 -159 71 -16 -1
-10 -5 17 -13z"/>
<path d="M2144 6265 c11 -8 23 -15 28 -15 4 0 21 -24 38 -52 25 -45 30 -49 30
-27 0 31 -68 109 -96 109 -19 -1 -19 -1 0 -15z"/>
<path d="M3766 6273 c-28 -7 -116 -93 -116 -112 1 -12 3 -11 12 4 16 29 60 75
72 75 6 0 22 9 36 20 14 11 23 19 20 19 -3 -1 -14 -4 -24 -6z"/>
<path d="M1971 6224 c-11 -14 -23 -40 -25 -58 -12 -80 -15 -132 -8 -144 5 -8
13 24 20 80 8 64 18 101 32 120 26 35 9 37 -19 2z"/>
<path d="M4262 6120 c0 -19 2 -27 5 -17 2 9 2 25 0 35 -3 9 -5 1 -5 -18z"/>
<path d="M2250 6130 c0 -5 -8 -10 -17 -10 -10 0 -24 -4 -31 -8 -7 -5 9 -8 40
-8 44 1 54 4 54 19 0 11 -8 17 -23 17 -13 0 -23 -4 -23 -10z"/>
<path d="M5623 6115 c-91 -35 -152 -73 -201 -124 -35 -38 -42 -50 -37 -73 6
-25 4 -28 -22 -29 -24 -1 -22 -3 17 -15 24 -8 54 -26 65 -41 13 -15 27 -23 33
-19 7 4 12 2 12 -4 0 -14 70 -9 140 10 28 7 73 9 120 5 l75 -6 20 43 c20 41
82 95 94 82 3 -4 0 -9 -7 -11 -21 -8 -52 -80 -52 -123 0 -114 106 -219 181
-180 13 7 36 23 50 37 l26 24 26 -78 c13 -43 35 -101 47 -129 31 -70 23 -89
-33 -80 -23 4 -67 15 -97 26 -166 56 -196 62 -355 71 -201 12 -337 11 -370 -1
-26 -10 -69 -85 -59 -102 7 -11 -4 -10 -27 2 -33 18 -23 54 29 102 27 25 58
51 70 57 27 14 84 12 137 -5 22 -7 117 -20 210 -28 184 -18 204 -22 310 -59
110 -39 115 -40 115 -24 0 19 -166 84 -246 97 -33 6 -126 16 -209 24 -82 8
-178 22 -213 31 -90 23 -115 15 -194 -67 -67 -68 -68 -68 -68 -38 0 16 -4 30
-10 30 -13 0 -13 -49 0 -86 10 -29 77 -74 110 -74 9 0 33 -9 54 -20 22 -10 43
-17 48 -14 11 7 66 -33 125 -89 55 -52 69 -40 17 14 -54 56 -161 126 -206 134
-36 7 -36 7 -26 38 19 58 27 61 150 61 168 0 386 -20 459 -43 263 -82 293 -85
451 -42 76 21 85 25 72 38 -12 13 -23 13 -67 3 -28 -7 -64 -19 -79 -26 l-26
-13 5 39 c5 35 1 44 -36 86 -23 26 -39 54 -37 61 3 8 -2 17 -12 20 -65 24 -28
109 46 105 21 -2 46 4 57 11 18 14 17 16 -21 63 -65 80 -124 132 -155 139 -16
4 -35 12 -42 19 -24 23 -109 66 -120 59 -6 -3 -7 -1 -3 5 4 6 -2 17 -13 24
-15 9 -19 19 -15 38 4 21 4 22 -6 8 -15 -25 -39 -22 -84 8 -34 23 -122 54
-151 53 -5 0 -38 -11 -72 -24z m217 -45 c-20 -13 -33 -13 -25 0 3 6 14 10 23
10 15 0 15 -2 2 -10z m-40 -14 c0 -3 -4 -8 -10 -11 -5 -3 -10 -1 -10 4 0 6 5
11 10 11 6 0 10 -2 10 -4z m263 -147 l31 -31 -52 -25 c-36 -17 -52 -30 -52
-43 0 -26 35 -43 81 -38 35 3 39 1 39 -20 0 -13 -13 -37 -29 -53 -77 -76 -171
10 -158 144 3 41 10 55 33 74 39 31 70 29 107 -8z m37 -89 c0 -5 -9 -10 -20
-10 -11 0 -20 5 -20 10 0 6 9 10 20 10 11 0 20 -4 20 -10z m201 -67 c13 -16
12 -17 -3 -4 -10 7 -18 15 -18 17 0 8 8 3 21 -13z"/>
<path d="M3870 6110 c-80 -6 -180 -31 -207 -52 -7 -5 -16 -7 -22 -4 -5 3 -11
-1 -15 -9 -3 -8 -18 -15 -33 -15 -15 0 -35 -5 -43 -10 -16 -10 5 -8 104 11 28
5 124 12 215 14 144 5 182 2 287 -18 l120 -23 -4 23 c-5 26 -59 55 -147 78
-61 15 -108 17 -255 5z"/>
<path d="M3830 6024 c-36 -7 -76 -19 -90 -26 -18 -9 -91 -14 -245 -15 -272 -3
-371 -20 -125 -22 91 -1 170 -5 177 -9 7 -4 -19 -6 -58 -4 -60 4 -72 2 -84
-14 -14 -19 -11 -34 6 -34 5 0 9 9 9 20 0 24 16 26 36 6 12 -13 9 -17 -29 -34
-55 -24 -79 -49 -72 -73 9 -28 18 -116 19 -194 l1 -70 -31 -3 c-17 -2 -73 11
-125 27 -105 34 -160 77 -198 154 -12 23 -21 34 -21 24 0 -27 44 -97 87 -139
29 -28 61 -43 136 -67 53 -17 106 -31 117 -31 22 0 24 -8 11 -43 -9 -23 -11
-23 -70 -13 -57 9 -62 8 -87 -15 -25 -24 -64 -96 -64 -120 0 -25 -34 -126 -62
-186 -29 -61 -29 -61 -56 -47 -35 18 -41 18 -61 -4 -9 -11 -36 -30 -61 -44
-27 -15 -54 -40 -67 -64 -26 -44 -30 -84 -9 -84 8 0 14 6 13 13 0 6 1 21 2 32
3 17 4 17 10 -5 5 -17 16 -26 39 -31 21 -4 32 -3 32 5 0 6 18 21 40 33 39 21
42 21 72 5 17 -9 39 -25 50 -34 17 -17 48 -25 48 -12 0 3 -5 14 -10 24 -9 17
-6 22 22 33 31 13 33 17 33 63 l0 49 -43 3 c-43 3 -43 3 -36 35 3 18 13 44 20
59 7 14 25 64 38 110 33 112 40 130 64 151 18 17 23 17 89 2 52 -12 78 -24 98
-45 16 -17 32 -30 37 -30 20 0 5 35 -27 64 -41 38 -42 43 -14 90 15 26 20 49
17 80 l-3 45 21 -20 c27 -25 63 -24 104 4 57 38 75 72 73 133 -1 41 -9 67 -32
104 -29 47 -29 48 -9 53 29 8 79 -15 127 -58 l40 -37 88 7 c49 4 102 8 119 10
17 2 57 -4 88 -13 l57 -15 37 35 c62 59 83 65 165 42 16 -5 16 -7 -2 -30 -30
-38 -37 -106 -16 -162 20 -55 61 -102 87 -102 21 0 22 -6 7 -49 -9 -25 -8 -36
5 -56 18 -27 20 -44 7 -63 -6 -11 -27 -4 -92 32 -46 25 -133 61 -194 81 -99
33 -117 36 -183 31 -41 -3 -104 -14 -140 -25 -37 -10 -101 -25 -142 -32 -41
-7 -87 -18 -102 -26 -15 -7 -38 -13 -53 -13 -14 0 -25 -4 -25 -10 0 -15 36
-12 136 10 156 35 184 40 288 46 79 4 111 2 145 -10 24 -9 58 -16 75 -16 52 0
130 -28 185 -65 28 -19 55 -35 60 -35 5 0 12 -4 15 -9 8 -12 -89 -108 -117
-116 -12 -4 -37 -13 -55 -21 -18 -8 -64 -21 -103 -28 -39 -8 -73 -17 -76 -20
-12 -11 63 -6 120 9 32 8 70 15 85 15 15 0 45 9 66 19 l38 20 -15 -22 c-7 -12
-48 -40 -90 -62 -41 -22 -96 -55 -121 -73 -55 -40 -76 -41 -179 -12 -109 30
-107 19 3 -13 109 -33 131 -33 167 -3 36 30 160 98 181 100 30 2 59 30 67 66
12 57 22 69 52 64 16 -2 38 -5 51 -7 12 -2 26 -7 31 -13 5 -5 21 -60 36 -122
31 -134 32 -269 2 -335 l-18 -39 23 4 c18 2 26 14 36 48 7 25 18 53 23 63 6
10 7 28 3 39 -5 17 -3 20 11 15 9 -4 21 -7 26 -7 5 0 15 -12 21 -27 l11 -28
10 28 c11 28 41 36 75 18 9 -4 29 -11 43 -14 24 -6 26 -4 21 18 -2 13 3 45 12
71 14 40 14 49 1 73 -12 22 -14 23 -15 6 0 -11 -9 -45 -20 -75 -11 -30 -20
-56 -20 -58 0 -1 -9 2 -19 8 -26 13 -64 13 -79 -2 -6 -6 -15 -8 -19 -4 -4 4
-2 11 6 15 7 5 11 21 9 37 l-4 29 -18 -36 c-25 -49 -55 -43 -58 10 -2 53 -2
64 7 85 7 15 5 17 -13 12 -21 -7 -31 11 -63 119 -21 72 -40 95 -76 95 -30 0
-32 2 -30 33 3 42 21 55 77 55 66 1 70 1 70 10 0 4 -25 5 -55 4 -49 -3 -55 -2
-55 16 0 11 -8 30 -18 43 -16 19 -17 29 -9 63 6 23 18 51 27 63 10 12 23 42
30 67 7 25 21 53 31 62 26 23 24 59 -3 76 -47 29 -166 78 -248 101 -101 29
-140 36 -244 42 -56 3 -82 9 -90 20 -9 13 -17 14 -40 5 -16 -6 -31 -9 -33 -6
-12 11 81 30 149 31 43 0 78 3 78 6 0 23 -113 24 -210 3z m-284 -173 c34 -51
41 -108 20 -153 -17 -35 -61 -68 -92 -68 -31 0 -64 40 -64 79 0 27 3 32 12 23
17 -17 43 -15 88 8 68 35 44 74 -46 74 -30 1 -54 4 -54 7 0 20 65 69 92 69 10
0 29 -18 44 -39z m824 4 c17 -9 30 -20 30 -24 0 -5 3 -16 6 -25 4 -11 -4 -15
-37 -18 -81 -6 -74 -68 8 -68 36 0 41 -12 22 -54 -23 -50 -58 -36 -99 41 -26
48 -22 95 11 137 24 31 22 30 59 11z m-883 -76 c26 -10 27 -12 8 -19 -28 -12
-57 -12 -75 0 -13 9 -13 11 0 20 19 13 33 12 67 -1z m906 -19 c16 0 18 -3 10
-11 -14 -14 -63 -4 -63 12 0 6 7 8 16 5 9 -3 25 -6 37 -6z m-1379 -691 c14
-11 26 -26 26 -34 0 -12 55 -44 82 -46 15 -2 -38 -16 -64 -18 -10 0 -39 18
-66 42 -40 36 -47 46 -38 60 14 22 28 21 60 -4z m126 -29 c-12 -23 -28 -25
-67 -7 l-27 12 44 6 c25 3 49 7 53 7 4 1 3 -7 -3 -18z m-240 -16 c-8 -8 -23
-20 -34 -25 -15 -7 -13 -3 7 15 31 29 47 35 27 10z m58 -26 c2 -11 -10 -24
-37 -37 -22 -12 -43 -21 -46 -21 -12 0 -3 20 21 50 28 33 57 36 62 8z"/>
<path d="M2640 6010 c34 -11 60 -11 35 0 -11 5 -29 8 -40 8 -16 0 -15 -2 5 -8z"/>
<path d="M3508 6013 c7 -3 16 -2 19 1 4 3 -2 6 -13 5 -11 0 -14 -3 -6 -6z"/>
<path d="M3458 6003 c7 -3 16 -2 19 1 4 3 -2 6 -13 5 -11 0 -14 -3 -6 -6z"/>
<path d="M4298 5993 c7 -3 16 -2 19 1 4 3 -2 6 -13 5 -11 0 -14 -3 -6 -6z"/>
<path d="M5399 5983 c-13 -16 -12 -17 4 -4 16 13 21 21 13 21 -2 0 -10 -8 -17
-17z"/>
<path d="M4340 5980 c8 -5 22 -10 30 -10 13 0 13 1 0 10 -8 5 -22 10 -30 10
-13 0 -13 -1 0 -10z"/>
<path d="M4460 5940 c8 -5 24 -10 34 -10 26 0 18 6 -19 14 -22 5 -26 4 -15 -4z"/>
<path d="M5250 5900 c14 -4 39 -8 55 -8 l30 0 -30 8 c-16 4 -41 8 -55 8 l-25
0 25 -8z"/>
<path d="M5202 5884 c-7 -13 -5 -23 9 -38 23 -25 25 -80 4 -160 -9 -32 -18
-63 -21 -67 -8 -14 -37 6 -56 39 l-18 30 31 12 c17 7 35 25 41 39 8 22 6 29
-16 48 -31 26 -31 30 -8 57 15 19 15 19 0 7 -29 -22 -68 -98 -68 -133 0 -42
32 -94 70 -116 17 -10 30 -25 30 -37 0 -16 2 -17 9 -5 6 8 8 17 6 20 -2 4 7
42 21 86 31 102 31 153 0 199 -21 31 -26 33 -34 19z m-62 -144 c0 -5 -4 -10
-10 -10 -5 0 -10 5 -10 10 0 6 5 10 10 10 6 0 10 -4 10 -10z"/>
<path d="M1914 5762 c-69 -65 -152 -178 -156 -212 -3 -26 7 -32 82 -55 30 -9
63 -24 72 -32 18 -16 43 -9 32 9 -3 5 -20 19 -38 30 -17 11 -22 17 -11 14 11
-3 27 -1 35 4 11 7 -3 10 -45 11 -33 0 -70 4 -82 7 -21 7 -21 8 17 72 21 36
68 97 104 135 36 39 66 71 66 73 0 11 -24 -7 -76 -56z"/>
<path d="M2665 5780 c-4 -7 -3 -16 2 -21 12 -12 45 0 40 15 -5 15 -34 19 -42
6z"/>
<path d="M2853 5735 c48 -52 56 -77 33 -107 -12 -17 -16 -16 -61 8 -78 41
-185 44 -305 9 -69 -20 -122 -28 -195 -30 -92 -3 -225 -18 -285 -33 -51 -13
63 -14 166 -2 68 8 113 8 136 2 26 -7 64 -4 144 9 172 30 288 36 319 15 14 -9
25 -22 25 -30 0 -21 -34 -46 -62 -46 -25 0 -131 -65 -253 -153 -78 -57 -131
-77 -205 -77 -33 0 -60 -3 -60 -6 0 -16 23 -44 36 -44 18 0 3 -21 -67 -97 -37
-40 -42 -43 -58 -29 -14 13 -86 35 -117 36 -7 0 -15 -7 -18 -16 -7 -19 30 -84
49 -84 7 0 -7 -20 -31 -44 -39 -40 -47 -44 -74 -36 -16 5 -35 12 -42 16 -7 4
-58 9 -114 10 -105 2 -159 19 -195 60 -24 28 -110 196 -104 202 3 3 91 11 195
16 112 7 194 16 201 23 6 6 7 13 2 15 -13 7 -323 -10 -375 -20 -38 -8 -48 -7
-48 4 0 20 -57 80 -66 71 -5 -4 0 -20 9 -35 9 -15 48 -90 86 -168 68 -138 111
-194 148 -194 13 0 13 -2 2 -16 -10 -12 -25 -15 -56 -11 -43 5 -54 -2 -30 -20
11 -9 52 -18 179 -38 27 -4 42 -14 55 -35 13 -22 25 -30 45 -30 l29 0 -42 55
c-42 56 -53 61 -136 58 -27 -1 -11 14 25 26 51 17 77 4 162 -85 48 -50 66 -63
68 -50 3 13 10 16 33 11 45 -10 34 4 -23 30 -49 21 -145 105 -121 105 6 0 39
-9 73 -20 34 -11 89 -20 121 -20 33 0 59 -3 59 -7 0 -4 -9 -17 -21 -29 -12
-13 -19 -32 -17 -46 3 -22 4 -21 21 10 15 27 23 32 52 32 42 0 47 -22 14 -64
-13 -16 -15 -24 -6 -20 20 7 57 77 57 109 0 15 5 45 12 67 9 31 9 47 -1 75
-11 30 -11 37 2 50 20 21 53 2 61 -34 14 -63 14 -72 1 -109 -18 -49 -19 -172
-3 -224 10 -31 18 -40 35 -40 42 0 55 118 22 195 -12 28 -13 29 -16 8 -3 -13
-9 -23 -15 -23 -6 0 -8 13 -4 33 3 17 9 51 12 74 7 49 21 63 67 72 30 6 33 4
51 -34 11 -22 22 -62 25 -88 3 -26 11 -49 16 -50 19 -4 16 62 -4 107 -12 25
-21 49 -21 55 0 5 -7 16 -15 25 -15 15 -30 15 -103 0 -15 -3 -24 1 -29 13 -3
10 -14 27 -25 39 -18 20 -18 21 17 67 21 27 47 50 63 53 60 15 137 58 176 99
55 57 202 155 233 155 18 0 43 19 89 68 74 77 82 110 37 139 -16 9 -41 28 -58
42 -16 14 -9 3 18 -24z m-690 -648 c25 -29 26 -33 10 -44 -24 -18 -34 -16 -40
7 -3 10 -13 22 -22 25 -10 3 -28 16 -40 29 l-23 24 44 -5 c32 -4 50 -13 71
-36z m3 -72 c36 6 36 6 30 -20 -4 -15 -10 -40 -13 -56 -7 -34 -43 -42 -43 -9
0 19 -32 44 -43 33 -3 -3 -19 -2 -34 2 l-28 7 33 29 c27 24 36 28 48 18 9 -7
27 -9 50 -4z m171 -212 c-11 -64 -27 -58 -35 13 -5 45 -4 46 18 34 19 -10 21
-18 17 -47z"/>
<path d="M5600 5748 c0 -22 17 -41 29 -34 17 11 13 24 -9 36 -15 8 -20 8 -20
-2z"/>
<path d="M5840 5750 c0 -21 45 -76 53 -63 3 5 -7 25 -23 44 -18 21 -29 28 -30
19z"/>
<path d="M1428 5684 c-35 -31 -88 -75 -118 -97 -63 -47 -173 -145 -179 -161
-4 -9 131 104 154 130 5 7 28 23 50 37 22 13 58 44 80 67 22 23 54 50 70 61
17 10 25 19 18 19 -7 0 -41 -25 -75 -56z"/>
<path d="M4473 5733 c-7 -2 -13 -9 -13 -14 0 -6 5 -7 10 -4 6 4 17 2 24 -4 9
-7 17 -5 29 9 16 19 16 20 -11 19 -15 0 -33 -3 -39 -6z"/>
<path d="M3773 5709 c-28 -10 -30 -39 -3 -39 20 0 46 35 33 43 -5 3 -18 1 -30
-4z"/>
<path d="M3883 5707 c-18 -10 -7 -12 73 -12 90 0 113 6 78 19 -27 10 -128 6
-151 -7z"/>
<path d="M4100 5695 c0 -16 27 -32 37 -21 7 7 -16 36 -28 36 -5 0 -9 -7 -9
-15z"/>
<path d="M5323 5636 c-21 -19 -35 -38 -31 -42 4 -4 17 5 29 20 12 15 31 31 42
35 13 5 16 10 9 15 -6 4 -28 -8 -49 -28z"/>
<path d="M4782 5601 c-54 -61 -70 -92 -28 -52 23 21 91 111 84 111 -2 0 -27
-27 -56 -59z"/>
<path d="M5490 5637 c7 -7 181 -39 187 -34 8 8 -60 25 -127 32 -36 4 -63 5
-60 2z"/>
<path d="M2635 5593 c-11 -2 -71 -20 -133 -40 -104 -33 -123 -35 -247 -37 -73
-1 -137 -5 -141 -9 -4 -4 53 -7 127 -6 111 0 150 4 224 25 182 50 211 55 272
52 39 -2 62 1 60 7 -4 10 -126 17 -162 8z"/>
<path d="M1570 5553 c-36 -19 -54 -23 -88 -19 -24 3 -75 1 -114 -4 -60 -9 -81
-17 -124 -50 -63 -47 -68 -65 -68 -220 0 -71 7 -134 22 -195 12 -49 20 -91 18
-93 -2 -1 -41 -2 -86 0 l-83 3 48 53 c26 29 45 55 42 58 -6 7 -78 -70 -91 -97
-5 -10 -12 -19 -16 -19 -17 0 -38 38 -45 79 -4 25 -15 68 -25 95 -23 69 -16
86 81 188 31 32 52 58 48 58 -4 0 -41 -37 -83 -81 -80 -87 -96 -91 -111 -32
-7 31 -68 128 -87 139 -9 5 -8 2 2 -11 33 -40 105 -260 116 -353 5 -51 4 -60
-11 -66 -12 -4 -26 1 -40 14 -27 26 -55 25 -89 -1 -24 -19 -27 -19 -48 -5 -33
23 -73 20 -91 -6 -15 -21 -16 -12 -16 133 -1 204 4 238 40 267 16 13 51 27 77
32 l47 8 -41 1 c-31 1 -50 -6 -81 -30 -36 -28 -42 -39 -53 -91 -6 -34 -10
-125 -9 -212 l2 -151 39 0 c31 0 35 2 23 11 -14 10 -14 13 1 25 13 11 23 9 61
-12 25 -13 54 -37 63 -52 10 -16 20 -23 22 -16 7 20 48 0 48 -23 0 -19 33
-101 60 -150 6 -10 10 -33 10 -52 0 -19 4 -37 9 -40 5 -3 12 -22 15 -41 6 -33
16 -41 41 -35 6 1 32 5 60 9 66 8 68 27 12 86 -32 33 -46 57 -50 83 -5 46 -3
48 26 29 22 -14 29 -14 68 -1 24 9 48 19 53 24 5 5 -10 27 -36 53 -50 48 -84
95 -75 103 3 3 44 8 91 10 83 5 85 5 91 -19 4 -13 5 -27 3 -33 -5 -17 34 -64
54 -64 10 0 31 -6 46 -14 15 -7 78 -17 142 -21 102 -6 145 -12 227 -30 12 -3
25 -14 28 -26 4 -11 9 -19 11 -16 10 9 -10 39 -35 51 -14 8 -62 17 -106 21
-78 6 -100 12 -158 41 -16 8 -40 14 -53 14 -29 0 -94 26 -94 37 0 4 -18 97
-40 206 -22 109 -40 219 -40 244 0 44 22 107 42 119 34 21 110 30 203 23 274
-21 357 -29 375 -39 27 -15 47 -2 23 15 -23 16 -105 32 -208 41 -103 8 -117
16 -76 40 17 10 31 22 31 26 0 10 3 11 -50 -19z m-721 -562 c36 -20 102 -121
141 -216 22 -54 52 -113 66 -132 14 -19 24 -35 23 -37 -7 -4 -83 -25 -84 -23
-1 1 -14 46 -29 101 -15 54 -36 117 -46 139 -11 23 -20 51 -20 64 0 26 -55 93
-77 93 -8 0 -11 5 -8 10 8 12 12 12 34 1z m220 -100 c50 -49 91 -91 91 -94 0
-2 -18 -7 -41 -11 -31 -5 -46 -2 -63 12 -28 21 -140 152 -135 156 9 7 45 25
50 26 4 0 48 -40 98 -89z"/>
<path d="M5830 5570 c0 -5 5 -10 11 -10 5 0 7 5 4 10 -3 6 -8 10 -11 10 -2 0
-4 -4 -4 -10z"/>
<path d="M6250 5576 c0 -3 14 -12 30 -21 17 -9 30 -13 30 -11 0 3 -13 12 -30
21 -16 9 -30 13 -30 11z"/>
<path d="M6321 5536 c10 -9 69 -36 69 -32 0 6 -55 36 -66 36 -4 0 -5 -2 -3 -4z"/>
<path d="M4635 5480 c-27 -16 -46 -30 -42 -30 10 0 97 50 97 56 0 6 -2 5 -55
-26z"/>
<path d="M6414 5481 c20 -22 26 -25 26 -13 0 4 -10 13 -22 21 -23 14 -23 14
-4 -8z"/>
<path d="M3800 5459 c-48 -14 -54 -17 -25 -14 176 21 164 22 306 -35 72 -28
133 -49 136 -46 3 3 -3 9 -13 13 -10 3 -66 26 -123 50 -124 51 -186 58 -281
32z"/>
<path d="M2060 5440 c0 -5 7 -10 15 -10 23 0 76 -29 107 -58 33 -30 48 -23 25
12 -27 41 -147 87 -147 56z"/>
<path d="M6510 5440 c-11 -7 -7 -10 18 -11 17 -1 35 -3 40 -4 4 -2 17 -6 29
-10 19 -6 22 -16 28 -98 12 -175 9 -447 -5 -492 -7 -21 -30 -44 -76 -75 -58
-39 -84 -65 -84 -84 0 -14 59 23 100 63 25 23 54 47 66 51 25 10 527 5 597 -5
32 -5 47 -4 47 4 0 7 -20 11 -49 11 -26 0 -69 3 -95 6 -37 5 -46 11 -46 26 0
22 116 158 135 158 7 0 18 6 24 14 10 12 3 19 -44 42 -53 24 -63 26 -136 19
l-80 -6 7 28 c3 15 12 48 19 73 22 72 38 156 33 171 -2 7 -16 -35 -30 -94 -32
-131 -77 -217 -115 -217 -13 0 -23 3 -21 8 2 4 22 47 46 96 24 48 41 90 39 93
-5 5 -47 -51 -47 -63 0 -4 -19 -36 -41 -71 -36 -55 -46 -64 -79 -69 -43 -7
-74 -33 -98 -83 -29 -59 -39 -49 -31 31 4 40 12 86 19 102 6 16 11 59 12 95 0
36 7 78 14 92 21 41 85 105 129 128 22 12 34 21 27 21 -16 0 -85 -43 -140 -87
-24 -20 -45 -33 -48 -31 -2 3 -6 27 -10 54 -9 83 -13 93 -44 109 -33 17 -88
20 -110 5z m677 -421 c24 -11 43 -23 43 -26 0 -3 -24 -3 -52 -1 -51 6 -111 -9
-215 -53 -29 -12 -37 -11 -80 11 l-48 25 50 5 c50 6 88 21 113 47 22 21 138
17 189 -8z m-23 -48 c16 -6 13 -11 -22 -33 -22 -15 -60 -50 -83 -77 -34 -40
-50 -51 -74 -51 l-29 0 39 40 c27 28 34 40 23 40 -9 0 -32 -18 -51 -40 -28
-34 -40 -40 -72 -40 -29 0 -36 3 -31 15 17 43 15 47 -11 17 -34 -39 -80 -46
-69 -9 20 64 20 63 1 46 -9 -9 -18 -28 -18 -43 -2 -25 -5 -26 -55 -26 -58 0
-59 3 -13 54 90 100 96 102 173 61 55 -29 75 -31 108 -8 25 17 137 62 155 62
6 0 18 -4 29 -8z"/>
<path d="M6880 5392 c0 -4 17 -6 38 -4 58 5 62 10 10 11 -27 1 -48 -3 -48 -7z"/>
<path d="M7009 5373 c12 -24 31 -39 31 -25 0 5 -10 17 -21 28 -22 19 -22 19
-10 -3z"/>
<path d="M3246 5363 c-3 -10 -8 -64 -12 -120 -6 -99 -6 -102 20 -136 l27 -35
-31 -7 c-16 -4 -30 -11 -30 -16 0 -13 56 -39 87 -39 33 -1 143 -58 153 -80 87
-178 94 -200 78 -253 -10 -34 -9 -40 12 -62 22 -23 23 -23 46 -7 13 9 24 26
24 36 0 16 -3 17 -12 8 -7 -7 -19 -12 -28 -12 -15 0 -16 7 -7 56 6 39 6 63 -2
80 -6 14 -11 35 -11 47 0 12 -7 40 -15 62 -23 66 -19 83 11 39 15 -21 44 -58
65 -81 22 -24 39 -50 39 -59 0 -8 13 -28 29 -44 18 -19 25 -33 20 -42 -14 -21
-10 -31 6 -18 21 17 19 28 -10 66 -14 18 -25 39 -25 46 0 7 -11 25 -25 40 -45
48 -36 55 78 63 57 4 112 6 122 4 25 -5 40 -68 18 -76 -24 -10 6 -23 53 -23
33 0 47 6 72 33 17 17 42 40 56 50 14 10 35 35 45 55 10 20 41 52 67 71 47 32
48 33 76 17 15 -10 52 -23 80 -31 29 -8 64 -18 77 -21 21 -6 22 -5 12 13 -6
13 -25 23 -51 27 -46 7 -46 5 -10 101 21 57 34 145 21 145 -10 0 -21 -34 -21
-65 0 -11 -13 -46 -28 -77 -22 -45 -30 -54 -38 -41 -6 9 -30 17 -62 21 -47 4
-58 1 -119 -35 -105 -62 -148 -82 -203 -94 -31 -6 -56 -19 -63 -30 -7 -12 -23
-19 -43 -19 -30 0 -31 2 -30 38 1 36 0 37 -37 37 -25 0 -36 4 -33 12 3 7 -15
34 -39 61 -51 56 -157 112 -263 139 -91 23 -122 53 -122 122 0 50 -14 69 -24
34z m74 -176 c0 -5 -4 -5 -10 -2 -5 3 -18 -8 -29 -25 -15 -25 -20 -28 -25 -15
-8 21 -8 70 0 77 7 8 64 -24 64 -35z m160 -47 c30 -12 84 -42 119 -68 63 -47
63 -47 33 -50 -37 -4 -102 22 -102 41 0 8 -9 22 -20 32 -18 17 -23 17 -84 1
-81 -20 -100 -20 -120 -1 -15 15 -12 38 7 63 13 17 97 8 167 -18z m33 -114
c10 -27 16 -51 13 -53 -2 -2 -39 12 -81 31 -50 23 -94 36 -124 37 -45 1 -45 2
16 10 34 5 72 14 85 19 48 20 71 9 91 -44z m675 29 c-28 -16 -72 -10 -46 6 7
5 27 9 43 8 l30 0 -27 -14z m-62 -38 c-97 -63 -124 -88 -130 -122 -11 -58 -42
-62 -93 -12 -23 22 -40 43 -38 47 3 4 24 10 47 14 24 4 68 21 98 38 30 17 71
35 90 39 48 9 47 9 26 -4z m-460 -35 c8 -11 20 -13 44 -9 32 7 32 7 26 -25 -8
-42 -14 -46 -31 -21 -10 15 -30 22 -76 27 -34 3 -63 7 -64 9 -2 1 -5 11 -9 22
-5 19 -2 20 46 16 32 -2 57 -9 64 -19z m-166 -31 c5 -11 10 -28 10 -38 0 -13
-6 -8 -20 15 -23 37 -24 42 -10 42 5 0 14 -9 20 -19z m571 -9 c-13 -25 -50
-56 -57 -49 -4 4 8 20 26 37 37 34 45 38 31 12z m-420 -22 c16 0 29 -3 29 -8
0 -11 -79 -2 -87 11 -4 7 0 8 11 4 10 -4 31 -7 47 -7z m-117 -76 c3 -8 2 -12
-4 -9 -6 3 -10 10 -10 16 0 14 7 11 14 -7z"/>
<path d="M6045 5334 c-34 -27 -176 -89 -260 -113 -77 -23 -115 -41 -84 -41 63
0 296 95 354 144 32 27 23 36 -10 10z"/>
<path d="M3536 5309 c9 -14 159 -84 199 -92 17 -4 -19 18 -80 48 -114 57 -131
63 -119 44z"/>
<path d="M6474 5304 c-14 -11 -16 -17 -6 -21 9 -3 3 -16 -20 -41 -18 -21 -43
-50 -55 -67 -18 -25 -25 -28 -40 -19 -10 6 -23 29 -29 50 -6 21 -16 39 -22 39
-7 0 -28 13 -48 29 -30 24 -34 25 -25 7 9 -16 46 -46 67 -55 1 -1 5 -12 9 -26
7 -22 6 -23 -9 -11 -9 7 -16 10 -16 5 0 -4 12 -18 28 -30 l27 -23 -75 6 c-68
5 -87 2 -195 -32 -144 -45 -138 -59 8 -17 108 31 167 44 167 37 0 -6 -149 -93
-240 -139 -89 -46 -84 -43 -72 -50 11 -6 168 68 256 122 63 38 136 55 173 41
20 -7 22 -15 22 -69 -1 -33 -5 -63 -10 -65 -4 -3 -7 10 -5 30 4 50 -18 39 -25
-14 -4 -33 -16 -52 -54 -91 l-49 -50 -192 0 c-249 0 -275 6 -353 82 -34 32
-61 60 -61 63 0 2 12 0 26 -5 14 -6 45 -10 69 -10 38 0 50 6 86 39 22 22 39
46 36 53 -6 17 -106 13 -154 -7 -44 -19 -126 -11 -163 15 -31 22 -54 25 -103
15 -25 -5 -42 -3 -52 5 -12 10 -15 10 -16 -1 0 -8 -5 -3 -10 11 -12 30 -4 90
17 131 13 26 4 43 -11 19 -4 -6 -24 -19 -46 -31 -22 -11 -43 -28 -46 -37 -3
-9 -17 -29 -31 -44 -14 -16 -21 -28 -15 -28 6 0 13 7 17 15 3 8 12 15 19 15 8
0 17 14 21 30 10 54 31 36 31 -27 0 -32 3 -67 8 -79 6 -16 2 -23 -18 -32 -14
-6 -25 -18 -25 -27 0 -20 -3 -20 87 19 79 35 95 39 124 37 9 0 74 -55 145
-121 128 -119 161 -139 231 -144 13 0 25 -7 28 -13 9 -25 -8 -45 -54 -65 -53
-23 -42 -34 18 -18 47 12 76 48 66 80 -6 19 -2 20 59 20 38 0 68 -5 72 -11 8
-13 -33 -48 -57 -49 -8 0 -26 -11 -38 -24 -13 -13 -38 -27 -57 -30 -29 -6 -34
-11 -34 -36 0 -29 39 -70 67 -70 18 0 35 -47 27 -74 -3 -11 -8 -30 -11 -41 -9
-32 92 60 120 109 13 24 27 67 31 96 15 116 46 138 199 141 82 2 107 6 107 16
0 7 -7 13 -15 13 -27 0 -16 40 40 145 43 81 55 112 55 147 0 25 11 75 25 112
23 61 23 66 7 66 -10 0 -27 -7 -38 -16z m-36 -218 l-13 -31 -6 50 c-4 37 -2
57 10 75 l16 24 3 -43 c2 -24 -3 -58 -10 -75z m-628 -22 c0 -3 -28 -18 -63
-34 l-63 -28 -55 18 -54 19 43 -6 c24 -3 53 -1 65 5 12 5 45 14 72 20 28 5 51
10 53 11 1 0 2 -2 2 -5z m520 -204 c0 -5 -5 -10 -11 -10 -5 0 -7 5 -4 10 3 6
8 10 11 10 2 0 4 -4 4 -10z m-229 -66 c-12 -15 -21 -32 -21 -38 0 -7 -14 -31
-31 -54 -17 -24 -37 -62 -44 -85 -14 -48 -35 -58 -50 -25 -6 14 -24 26 -48 31
-50 12 -47 39 4 48 38 6 95 46 161 112 44 43 59 49 29 11z m-43 -151 c-12 -46
-26 -73 -37 -73 -12 0 0 62 17 88 22 34 32 26 20 -15z"/>
<path d="M5370 5292 c0 -11 22 -32 32 -32 5 0 4 9 -2 20 -11 20 -30 28 -30 12z"/>
<path d="M1070 5243 c-64 -45 -80 -60 -80 -77 0 -4 17 7 38 25 20 19 54 45 75
59 20 14 37 28 37 33 0 10 2 11 -70 -40z"/>
<path d="M2105 5251 c-6 -5 -48 -23 -95 -41 -95 -37 -125 -56 -70 -45 51 10
183 68 188 83 4 14 -10 16 -23 3z"/>
<path d="M711 5164 c-1 -31 37 -152 51 -160 7 -5 9 1 5 17 -7 29 -36 117 -47
144 -8 19 -9 19 -9 -1z"/>
<path d="M4608 5153 c7 -3 16 -2 19 1 4 3 -2 6 -13 5 -11 0 -14 -3 -6 -6z"/>
<path d="M5186 5098 c-4 -12 -13 -64 -20 -116 -4 -27 -4 -27 -35 -37 -21 -6
-23 -5 -18 17 5 19 1 27 -21 40 -25 15 -32 15 -91 0 -81 -21 -96 -42 -58 -77
15 -15 32 -23 37 -20 16 10 12 21 -12 33 -22 10 -22 11 7 11 17 1 43 10 59 20
37 25 46 19 46 -28 0 -51 7 -55 43 -25 l30 26 12 -29 12 -28 -71 -3 c-154 -5
-111 -17 80 -22 173 -4 203 -7 218 -22 20 -20 26 -22 26 -8 0 5 -18 22 -40 36
-35 23 -47 26 -100 22 -36 -3 -64 0 -69 6 -17 23 -31 104 -27 159 4 54 0 72
-8 45z"/>
<path d="M5393 5003 c9 -2 23 -2 30 0 6 3 -1 5 -18 5 -16 0 -22 -2 -12 -5z"/>
<path d="M3831 4993 c-24 -3 -30 -7 -21 -13 15 -9 80 -2 95 11 9 9 -10 9 -74
2z"/>
<path d="M5500 4952 c0 -4 10 -13 23 -21 22 -14 22 -14 3 8 -20 22 -26 25 -26
13z"/>
<path d="M4319 4941 c-56 -5 -76 -13 -125 -46 -33 -21 -82 -61 -111 -87 -28
-26 -56 -48 -61 -48 -12 0 -29 -42 -40 -95 l-8 -40 -31 45 c-17 25 -43 56 -57
69 -14 14 -26 30 -26 38 0 7 -4 13 -10 13 -18 0 -10 -39 17 -85 16 -25 31 -45
36 -45 4 0 19 -11 33 -25 14 -14 33 -25 42 -25 20 0 42 50 42 93 0 20 7 30 25
37 14 5 28 16 31 25 3 8 10 12 15 9 5 -3 9 2 9 10 0 9 5 16 10 16 6 0 10 6 10
13 0 7 18 23 40 35 22 11 40 19 40 17 0 -25 -47 -131 -68 -153 -109 -115 -106
-111 -94 -137 7 -15 20 -25 32 -25 11 0 20 -4 20 -10 0 -5 9 -10 21 -10 11 0
35 -11 53 -25 37 -28 54 -31 79 -12 14 10 16 24 11 94 -4 50 -11 80 -17 76 -6
-3 -7 -35 -4 -79 4 -60 3 -74 -9 -74 -8 0 -14 4 -14 8 0 13 -42 30 -94 37 -35
6 -50 13 -56 29 -6 17 3 32 55 86 40 42 67 80 73 104 6 20 25 60 42 87 30 46
34 49 76 49 50 0 134 20 134 32 0 8 -16 8 -121 -1z"/>
<path d="M3215 4923 c-42 -13 -47 -17 -30 -24 24 -9 140 -10 174 0 l24 7 -26
17 c-32 21 -75 21 -142 0z m115 -13 c0 -5 -15 -10 -32 -9 -28 0 -30 2 -13 9
28 12 45 12 45 0z"/>
<path d="M722 4880 c5 -25 7 -83 4 -131 -8 -103 1 -119 55 -95 19 8 52 18 74
23 39 8 60 37 37 52 -5 3 -19 26 -30 51 -24 50 -28 39 -10 -22 9 -32 9 -41 -2
-48 -8 -5 -17 -7 -21 -4 -4 2 -24 -5 -44 -16 -19 -11 -38 -20 -40 -20 -3 0 -5
49 -5 108 0 78 -4 114 -14 128 -13 17 -14 14 -4 -26z"/>
<path d="M4796 4897 c4 -11 -2 -17 -18 -20 -17 -3 -15 -5 10 -6 35 -1 41 9 17
29 -13 11 -14 10 -9 -3z"/>
<path d="M5480 4902 c0 -22 161 -181 196 -194 22 -8 34 -19 34 -30 0 -11 7
-18 20 -18 11 0 20 6 20 14 0 29 -20 66 -35 66 -8 0 -15 9 -15 19 0 20 -15 36
-99 108 -27 23 -42 31 -38 21 9 -26 -31 -23 -60 4 -13 12 -23 16 -23 10z m149
-84 c22 -24 41 -46 41 -50 0 -18 -29 -5 -73 34 -35 30 -45 43 -35 49 20 13 23
12 67 -33z"/>
<path d="M4665 4890 c11 -5 34 -8 50 -8 l30 0 -30 8 c-16 4 -39 8 -50 8 l-20
1 20 -9z"/>
<path d="M821 4864 c0 -11 3 -14 6 -6 3 7 2 16 -1 19 -3 4 -6 -2 -5 -13z"/>
<path d="M3396 4855 c4 -11 16 -32 26 -47 10 -14 18 -31 18 -36 0 -6 5 -12 11
-14 15 -5 25 -108 11 -108 -5 0 -12 -13 -14 -30 -3 -16 -4 -30 -3 -30 1 0 14
18 29 40 19 28 26 53 26 86 0 42 -4 50 -55 102 -31 32 -52 48 -49 37z"/>
<path d="M1900 4805 c-1 -11 -2 -24 -1 -29 1 -6 5 -23 8 -39 6 -27 4 -30 -15
-25 -27 7 -27 3 -3 -30 11 -16 20 -51 23 -86 3 -40 10 -61 21 -68 23 -12 21
-28 -2 -28 -10 0 -30 -9 -45 -21 l-26 -20 0 49 c0 40 -8 64 -41 121 -22 39
-42 71 -44 71 -2 0 1 -15 7 -32 5 -18 12 -42 15 -53 4 -11 14 -31 25 -44 21
-27 24 -61 6 -62 -7 0 -240 -3 -518 -5 -278 -2 -563 -5 -635 -6 -71 -2 -186 0
-255 4 -177 10 -134 -1 62 -15 l163 -12 47 -90 c30 -59 50 -114 59 -160 16
-94 24 -101 80 -76 24 12 61 21 81 21 44 0 145 -25 164 -41 22 -18 133 -42
190 -42 29 1 73 10 100 22 l49 21 -46 -43 c-50 -45 -82 -100 -37 -62 13 11 49
43 80 72 36 34 65 53 81 53 40 0 135 37 210 83 106 64 109 64 101 19 -8 -49
-32 -68 -161 -126 -141 -64 -302 -184 -291 -216 2 -7 22 3 48 25 111 93 186
138 330 198 47 19 100 70 100 96 0 12 8 33 17 47 15 24 15 29 0 72 -24 66 -22
80 7 75 13 -3 34 2 47 10 13 8 35 18 48 22 23 7 23 6 17 -29 -9 -46 9 -48 24
-2 9 30 31 45 62 46 4 0 -9 -34 -28 -76 -25 -53 -32 -80 -25 -87 7 -7 21 13
44 64 19 41 37 81 40 89 5 16 67 27 67 13 0 -5 -14 -32 -30 -62 -35 -63 -35
-62 -16 -55 8 3 29 30 47 60 l33 54 51 0 50 -1 -30 -16 c-42 -22 -69 -48 -131
-125 -66 -82 -75 -126 -11 -57 23 26 60 68 81 94 21 26 55 54 75 62 20 9 44
19 53 24 10 5 37 10 60 10 24 1 57 5 73 9 24 6 15 8 -40 10 -38 2 -142 5 -230
9 l-160 6 0 25 c0 22 -5 25 -37 28 -34 3 -38 6 -44 38 -3 19 -4 58 -1 87 5 42
2 62 -18 102 -16 34 -24 44 -25 30z m-281 -335 c96 -5 176 -12 178 -14 3 -2 6
-27 8 -55 l4 -50 -72 -35 c-40 -19 -92 -49 -117 -66 -28 -18 -58 -30 -80 -30
-19 -1 -53 -7 -75 -15 -22 -8 -50 -15 -63 -15 -29 0 -78 -25 -120 -61 -32 -28
-75 -38 -86 -20 -3 4 -28 11 -56 14 -28 3 -57 13 -65 21 -8 8 -39 20 -69 26
l-53 11 -27 107 c-14 59 -26 124 -26 145 0 37 0 37 43 37 103 0 402 13 407 17
3 3 25 2 50 -1 25 -3 123 -10 219 -16z m-746 -82 c4 -46 10 -102 13 -125 6
-39 5 -42 -19 -48 -15 -4 -31 -13 -38 -21 -19 -23 -39 -17 -39 12 0 15 -27 76
-60 136 -33 60 -60 111 -60 113 0 2 39 6 88 8 48 1 92 4 98 5 7 1 13 -29 17
-80z"/>
<path d="M6359 4788 c-29 -21 -65 -35 -104 -42 -58 -11 -61 -12 -87 -61 -14
-27 -32 -74 -38 -104 -9 -40 -21 -62 -47 -86 -25 -23 -36 -42 -40 -73 -7 -54
-21 -65 -57 -47 -16 8 -36 15 -46 15 -9 0 -34 11 -55 25 -35 25 -38 25 -56 9
-17 -16 -53 -17 -371 -18 -193 -1 -339 -3 -325 -6 30 -6 71 -57 88 -109 25
-79 87 -176 136 -212 26 -20 56 -39 66 -42 25 -9 -34 61 -78 93 -25 18 -49 53
-81 120 -26 52 -51 103 -56 113 -8 15 -4 17 29 16 38 -1 38 -1 89 -102 27 -55
56 -103 62 -105 22 -7 12 20 -39 109 -29 49 -49 92 -47 95 3 3 27 1 54 -3 l48
-8 14 -55 c13 -54 42 -102 42 -70 0 8 -7 40 -15 70 -8 30 -15 56 -15 58 0 1
18 2 39 2 44 0 42 3 61 -103 16 -90 36 -102 26 -16 -13 122 -15 114 22 117 32
3 34 2 32 -30 -4 -71 0 -119 10 -113 6 3 10 37 10 76 l0 69 41 0 40 0 -7 -129
c-5 -101 -4 -130 7 -136 8 -5 14 -4 17 3 2 7 27 -8 60 -36 32 -27 77 -61 102
-77 25 -15 64 -46 87 -68 24 -22 45 -38 48 -35 10 10 -52 74 -112 114 -32 21
-86 63 -120 93 -62 52 -63 55 -63 103 l0 50 101 -92 c55 -50 124 -106 154
-125 29 -19 75 -53 101 -76 27 -23 72 -57 101 -77 57 -38 63 -53 43 -122 -17
-60 -22 -63 -71 -52 -255 62 -435 135 -606 246 -39 25 -77 46 -85 46 -24 0
156 -113 273 -171 76 -38 156 -69 230 -88 63 -17 134 -37 158 -45 74 -27 89
-22 112 32 32 72 35 122 10 153 -11 15 -32 30 -46 33 -22 6 -119 69 -161 105
-7 5 -29 17 -49 25 -36 15 -93 69 -136 129 l-20 27 34 -4 c19 -3 52 -12 72
-21 21 -8 67 -22 102 -30 34 -8 97 -31 139 -51 87 -41 98 -40 186 27 28 20 69
42 93 48 32 8 53 23 89 66 26 30 53 55 61 55 7 0 19 7 26 17 34 41 -50 -18
-92 -65 -33 -36 -57 -53 -97 -66 -29 -9 -71 -30 -92 -45 -77 -56 -90 -57 -172
-17 -40 19 -104 43 -143 52 -38 9 -81 23 -95 29 -14 7 -56 20 -95 30 -83 20
-115 50 -115 106 l0 37 63 4 c55 5 64 3 82 -17 42 -49 111 -59 155 -25 26 21
70 27 70 10 0 -5 11 -17 25 -26 20 -13 31 -14 56 -5 21 7 36 8 43 1 7 -5 30
-12 52 -16 31 -4 45 -2 57 11 10 9 15 20 13 24 -2 3 165 8 372 9 207 1 378 5
381 7 2 3 -97 5 -220 6 -123 1 -253 4 -289 7 -36 3 -109 4 -162 3 -95 -2 -98
-1 -103 22 -4 13 -2 59 4 101 6 43 11 82 11 88 0 6 9 8 20 5 14 -3 26 3 40 20
21 27 19 46 -2 25 -7 -7 -22 -12 -34 -12 -12 0 -26 -6 -32 -13 -18 -21 -33
-105 -33 -183 l0 -74 -32 14 c-19 7 -40 10 -52 5 -25 -10 -95 -11 -95 -2 0 4
22 41 50 83 37 56 53 92 60 136 6 32 14 66 17 74 3 8 6 18 5 22 -1 4 34 33 78
64 44 32 80 61 80 65 0 20 -21 16 -61 -13z m-134 -185 c-12 -62 -26 -93 -63
-148 -53 -77 -92 -99 -92 -50 0 28 24 81 39 87 12 4 71 123 71 143 0 21 52 73
57 58 2 -6 -3 -47 -12 -90z"/>
<path d="M4297 4769 c-15 -9 -53 -69 -44 -69 2 0 18 18 36 40 17 22 31 40 29
40 -2 0 -11 -5 -21 -11z"/>
<path d="M2190 4735 c46 -18 50 -18 44 0 -4 10 -19 15 -43 14 l-36 -1 35 -13z"/>
<path d="M2250 4710 c0 -5 5 -10 10 -10 6 0 10 5 10 10 0 6 -4 10 -10 10 -5 0
-10 -4 -10 -10z"/>
<path d="M5490 4697 c0 -8 19 -33 85 -110 19 -22 40 -13 22 9 -30 38 -107 111
-107 101z"/>
<path d="M2370 4697 c13 -13 90 -33 101 -26 8 4 11 10 9 12 -7 7 -116 20 -110
14z"/>
<path d="M5669 4639 l-24 -20 28 17 c15 9 27 18 27 20 0 8 -8 4 -31 -17z"/>
<path d="M2066 4575 c-3 -8 -1 -15 3 -15 5 0 11 7 15 15 3 8 1 15 -3 15 -5 0
-11 -7 -15 -15z"/>
<path d="M3530 4580 c0 -5 7 -7 15 -4 8 4 15 8 15 10 0 2 -7 4 -15 4 -8 0 -15
-4 -15 -10z"/>
<path d="M3470 4544 l-25 -14 23 0 c13 0 30 7 38 15 20 19 0 19 -36 -1z"/>
<path d="M2858 4473 c17 -2 47 -2 65 0 17 2 3 4 -33 4 -36 0 -50 -2 -32 -4z"/>
<path d="M2998 4463 c7 -3 16 -2 19 1 4 3 -2 6 -13 5 -11 0 -14 -3 -6 -6z"/>
<path d="M2985 4431 c8 -17 50 -64 91 -104 42 -39 81 -86 89 -103 7 -17 22
-34 34 -37 18 -4 19 -2 11 13 -6 11 -15 22 -20 25 -6 3 -10 17 -10 30 0 15 -7
26 -19 30 -11 3 -58 44 -106 91 -61 60 -82 77 -70 55z"/>
<path d="M3046 4451 c11 -5 45 -39 74 -75 53 -66 81 -86 59 -43 -6 12 -29 43
-51 70 l-39 47 28 0 c17 0 33 -8 41 -20 7 -11 17 -20 22 -20 7 0 7 7 0 20 -15
29 12 27 34 -2 13 -18 16 -19 12 -5 -5 15 -1 18 20 15 21 -2 30 -12 43 -47 9
-24 22 -46 29 -49 16 -5 15 11 -3 55 -8 19 -15 36 -15 37 0 1 18 0 39 -2 l39
-4 8 -71 c5 -40 7 -85 6 -102 -2 -22 10 -48 43 -95 25 -36 61 -89 81 -118 20
-30 38 -51 41 -48 3 3 -14 36 -38 73 -83 126 -101 166 -97 213 l3 35 35 -51
c19 -27 53 -77 75 -110 22 -32 53 -76 69 -97 24 -31 28 -43 23 -75 -4 -20 -12
-39 -18 -41 -6 -2 -26 -16 -44 -32 -38 -34 -45 -35 -45 -11 -1 10 -26 33 -66
57 -36 22 -95 70 -130 108 -35 37 -64 64 -64 59 0 -14 144 -149 188 -176 29
-18 42 -33 42 -49 0 -48 15 -53 61 -21 80 54 119 98 119 132 0 17 -4 34 -10
37 -17 11 -11 28 8 22 11 -2 37 -1 58 3 l39 8 -38 1 c-79 2 -115 32 -249 203
-70 89 -79 115 -52 143 9 9 15 17 13 19 -2 2 -96 7 -209 10 -125 4 -197 3
-184 -3z"/>
<path d="M3535 4440 c-14 -6 -4 -9 38 -9 36 -1 56 3 52 9 -7 12 -62 12 -90 0z"/>
<path d="M3980 4440 l-195 -5 218 -8 c120 -4 222 -5 227 -2 19 12 9 -2 -41
-55 -28 -30 -65 -75 -81 -100 -69 -100 -141 -151 -259 -181 -27 -7 -49 -16
-49 -21 0 -11 4 -10 34 3 17 8 29 9 38 2 7 -6 30 -16 51 -23 25 -8 46 -24 63
-50 26 -39 47 -50 96 -50 20 0 31 8 42 28 8 16 47 46 94 74 44 27 104 68 134
93 30 24 71 52 92 60 27 12 42 26 52 53 9 20 24 55 34 77 41 89 51 82 -130 90
-88 4 -163 11 -166 16 -3 5 -17 8 -32 7 -15 -1 -115 -5 -222 -8z m503 -31 c60
2 75 -12 42 -39 -8 -7 -29 -39 -47 -71 -26 -50 -51 -78 -124 -138 -32 -26
-112 -81 -119 -81 -4 0 -30 -16 -56 -35 -27 -19 -55 -35 -63 -35 -7 0 -16 -9
-19 -20 -4 -15 -14 -20 -36 -20 -26 0 -33 6 -46 38 -9 20 -27 49 -41 63 l-25
26 41 18 c46 21 95 71 144 148 18 29 56 76 84 106 l51 54 78 -8 c43 -4 104 -7
136 -6z"/>
<path d="M4275 4308 c-22 -18 -72 -61 -110 -97 -39 -37 -92 -82 -117 -101 -26
-19 -48 -38 -48 -42 -1 -20 33 -2 114 62 48 39 91 70 95 70 13 0 131 115 131
128 0 21 -24 13 -65 -20z"/>
<path d="M3478 4433 c6 -2 18 -2 25 0 6 3 1 5 -13 5 -14 0 -19 -2 -12 -5z"/>
<path d="M3678 4433 c12 -2 32 -2 45 0 12 2 2 4 -23 4 -25 0 -35 -2 -22 -4z"/>
<path d="M2376 4422 c-2 -4 11 -6 30 -4 19 2 34 6 34 8 0 8 -59 4 -64 -4z"/>
<path d="M2181 4271 c-132 -134 -211 -193 -338 -251 -40 -18 -73 -37 -73 -41
0 -5 -5 -9 -11 -9 -6 0 -16 -6 -23 -12 -8 -7 -24 -20 -36 -28 -12 -8 -28 -20
-34 -26 -19 -18 -53 -34 -73 -34 -33 0 -147 -60 -173 -91 l-25 -30 -43 28
c-38 25 -42 30 -36 59 5 26 2 34 -16 44 -36 19 -44 57 -19 99 l21 36 -31 -29
c-42 -40 -47 -63 -22 -96 11 -16 23 -47 27 -69 7 -44 40 -80 101 -109 40 -19
59 -6 69 44 6 30 14 38 73 68 36 18 78 36 92 39 15 4 53 26 86 50 32 24 106
70 163 101 58 32 119 68 135 81 17 12 39 25 50 28 11 4 70 61 130 128 61 66
121 127 135 134 14 8 19 14 11 15 -8 0 -71 -58 -140 -129z"/>
<path d="M7148 4333 c7 -3 16 -2 19 1 4 3 -2 6 -13 5 -11 0 -14 -3 -6 -6z"/>
<path d="M7233 4323 c9 -2 25 -2 35 0 9 3 1 5 -18 5 -19 0 -27 -2 -17 -5z"/>
<path d="M3500 4125 c0 -3 18 -34 40 -67 22 -34 40 -54 40 -45 0 9 -16 39 -36
67 -34 47 -44 57 -44 45z"/>
</g>
</svg>
