<svg version="1.0" xmlns="http://www.w3.org/2000/svg"
 width="30pt" height="30pt" viewBox="0 0 900 460"
 preserveAspectRatio="xMidYMid meet">

<g transform="translate(0.000000,460.000000) scale(0.100000,-0.100000)"
fill="#000000" stroke="none">
<path d="M3785 4420 c3 -5 10 -10 16 -10 5 0 9 5 9 10 0 6 -7 10 -16 10 -8 0
-12 -4 -9 -10z"/>
<path d="M3830 4375 c36 -12 38 -14 12 -10 -37 5 -54 -17 -31 -40 14 -14 128
-37 142 -28 4 2 7 12 7 23 0 12 -12 21 -37 29 -36 10 -36 10 17 6 l55 -4 -55
14 c-30 8 -77 17 -105 20 l-50 5 45 -15z"/>
<path d="M3620 4291 c-37 -15 -60 -38 -60 -58 0 -28 13 -29 56 -2 44 27 47 78
4 60z"/>
<path d="M5082 3778 c-7 -7 -12 -22 -12 -34 0 -18 -13 -26 -86 -49 -47 -16
-88 -33 -91 -39 -4 -5 0 -7 8 -4 50 18 153 51 207 66 l64 17 -22 28 c-23 29
-48 35 -68 15z"/>
<path d="M5958 3733 c6 -2 18 -2 25 0 6 3 1 5 -13 5 -14 0 -19 -2 -12 -5z"/>
<path d="M6178 3703 c7 -3 16 -2 19 1 4 3 -2 6 -13 5 -11 0 -14 -3 -6 -6z"/>
<path d="M5375 3683 c-63 -8 -113 -33 -125 -64 -16 -38 -10 -79 50 -364 27
-126 61 -293 75 -370 21 -117 30 -144 52 -167 27 -28 105 -62 228 -98 39 -12
79 -25 90 -30 11 -5 54 -17 95 -27 63 -15 70 -18 45 -23 -36 -6 -44 -33 -19
-61 22 -25 34 -24 62 5 16 17 19 26 10 29 -7 3 -1 4 15 3 15 -2 30 -6 34 -9
11 -12 23 -8 23 8 0 8 -8 15 -17 15 -10 0 -13 3 -7 9 9 8 923 -65 954 -77 12
-4 12 -6 -3 -9 -13 -3 -17 -12 -15 -30 4 -35 30 -50 60 -35 13 6 35 16 51 22
15 5 27 14 27 20 0 6 -4 8 -10 5 -5 -3 -10 -1 -10 6 0 9 27 10 113 5 360 -21
367 -21 425 8 46 23 52 30 52 57 0 52 -65 275 -140 480 -38 106 -70 198 -70
205 0 6 11 21 25 34 13 12 22 27 19 31 -9 15 12 10 113 -26 110 -39 143 -66
143 -120 0 -34 0 -34 -27 -19 -16 7 -38 14 -50 14 -22 0 -23 -4 -23 -77 0 -82
24 -399 36 -470 9 -56 25 -69 69 -56 l33 11 6 -59 c16 -158 16 -175 4 -199 -9
-16 -24 -26 -41 -28 -40 -5 -27 -27 14 -25 22 1 40 10 52 25 21 25 21 22 -3
373 -30 428 -43 546 -64 578 -39 58 -157 103 -287 112 -30 2 -59 4 -64 4 -6 1
-30 25 -53 55 -24 30 -56 59 -70 65 -86 33 -352 88 -672 136 -583 89 -1087
142 -1205 128z m-21 -114 c-4 -8 0 -9 15 -4 14 4 21 2 21 -7 0 -10 2 -10 9 1
6 9 10 10 16 2 5 -9 10 -9 21 0 11 9 14 8 14 -2 0 -11 2 -11 10 1 5 8 10 11
10 5 0 -5 24 -10 53 -11 28 0 70 -4 92 -8 22 -3 64 -7 93 -8 28 -1 52 -4 52
-7 0 -4 17 -7 37 -9 38 -2 59 -6 103 -17 14 -4 35 -7 47 -8 12 -1 20 -3 18 -6
-3 -2 3 -14 12 -25 18 -21 18 -21 -3 -4 -26 22 -52 5 -31 -21 11 -14 10 -14
-6 -2 -16 13 -18 12 -13 -13 3 -17 1 -24 -6 -20 -7 5 -9 -1 -5 -16 4 -17 3
-20 -6 -11 -9 9 -9 16 0 30 6 10 8 23 4 30 -5 7 -12 -2 -18 -23 -8 -25 -8 -38
1 -47 8 -9 8 -10 -3 -4 -11 6 -13 4 -8 -7 3 -9 -2 -23 -13 -33 -11 -10 -17
-21 -15 -26 7 -10 -15 -23 -42 -25 -23 -1 -31 10 -14 20 5 4 12 0 14 -6 3 -8
6 -6 6 5 1 9 -3 17 -7 17 -5 0 -7 13 -4 30 2 16 8 28 12 25 4 -2 5 -17 2 -32
-2 -16 -2 -25 2 -22 3 3 7 17 8 32 1 14 6 23 12 20 5 -4 6 -1 1 7 -6 9 -4 11
5 5 9 -6 11 -4 5 5 -5 8 -4 11 3 7 6 -5 9 1 6 15 -4 22 -4 22 6 3 9 -18 10
-17 5 5 -4 14 -7 42 -7 62 -1 21 -4 35 -8 33 -4 -3 -5 -17 -2 -31 3 -19 1 -25
-7 -20 -6 4 -11 4 -10 -1 3 -14 -23 -73 -30 -69 -4 3 -8 -10 -9 -27 -2 -17 -8
-38 -16 -47 -19 -22 -8 -50 20 -51 13 -1 27 -2 32 -3 4 -2 28 -6 55 -10 26 -5
47 -12 47 -17 0 -5 -7 -5 -17 -2 -12 5 -14 3 -8 -8 7 -11 5 -11 -10 1 -17 14
-18 13 -12 -5 6 -17 5 -18 -5 -5 -12 14 -25 17 -45 10 -5 -1 -12 -2 -16 -1 -5
1 -6 -3 -3 -7 3 -5 -3 -17 -14 -27 -11 -10 -20 -25 -19 -34 0 -12 2 -11 8 3 7
18 8 18 14 3 3 -9 12 -17 18 -17 7 0 4 9 -7 22 -10 12 -13 18 -5 13 10 -6 12
-4 6 5 -6 9 -4 11 5 5 9 -6 11 -4 5 5 -6 9 -4 11 5 5 9 -6 11 -4 5 5 -6 9 -4
11 5 5 9 -5 11 -4 6 3 -10 17 -1 15 14 -4 11 -12 11 -15 -1 -12 -8 2 -13 -3
-11 -10 1 -6 -1 -11 -5 -11 -18 3 -24 -2 -16 -13 14 -23 12 -37 -5 -31 -8 4
-13 2 -9 -3 3 -6 -4 -11 -15 -11 -20 -2 -20 -1 -2 13 18 14 17 14 -6 3 -14 -7
-26 -12 -27 -11 -2 1 -2 -1 0 -5 1 -5 5 -7 10 -5 4 1 7 -6 7 -15 0 -15 2 -16
10 -3 6 9 10 10 10 3 0 -6 -5 -15 -10 -18 -6 -4 -8 -10 -5 -15 3 -5 1 -12 -5
-15 -8 -5 -7 -12 2 -23 7 -10 8 -14 4 -10 -12 11 -37 -12 -29 -26 4 -7 1 -6
-7 1 -10 9 -17 10 -27 2 -20 -17 -16 -34 5 -18 15 13 16 12 3 -4 -18 -23 -37
-7 -22 20 8 15 7 20 -4 20 -8 0 -12 -4 -9 -9 11 -17 -7 -27 -31 -18 -32 12
-31 8 1 -27 25 -27 26 -31 20 -106 -4 -43 -12 -88 -19 -99 -9 -16 -9 -22 1
-25 6 -3 12 -13 12 -24 0 -10 4 -19 8 -19 5 0 17 -6 28 -14 17 -13 15 -14 -21
-6 -52 12 -68 12 -60 0 18 -29 -119 21 -168 61 -51 42 -82 151 -122 435 -3 22
-10 55 -15 73 -5 17 -5 29 0 26 4 -2 11 -21 15 -41 3 -20 8 -34 11 -32 5 5
-43 255 -51 269 -3 4 -8 32 -11 63 -6 52 -5 55 15 51 11 -2 23 0 26 6 4 5 8 9
11 9 3 0 2 -5 -2 -11z m497 -162 c-5 -14 -15 -28 -22 -33 -7 -4 -10 -3 -6 3 4
6 11 23 17 38 6 15 13 26 16 23 2 -3 0 -17 -5 -31z m1313 -73 c9 -3 16 -10 16
-15 0 -13 -23 -10 -44 6 -16 12 -17 15 -4 15 9 0 23 -3 32 -6z m87 -30 c8 -10
8 -14 1 -14 -20 0 -62 23 -57 31 7 10 42 0 56 -17z m79 -25 c0 -6 -7 -8 -16
-5 -9 3 -18 6 -20 6 -2 0 -4 7 -4 15 0 13 4 14 20 5 11 -6 20 -16 20 -21z
m-110 -58 c20 -14 100 -151 100 -172 0 -3 -11 -12 -25 -19 -37 -20 -40 -48
-14 -156 25 -102 41 -130 68 -118 47 19 49 18 59 -38 25 -128 27 -116 -26
-123 -26 -3 -95 -21 -154 -40 -123 -40 -230 -47 -296 -19 -20 9 -71 20 -112
25 -41 4 -112 16 -157 26 -67 14 -83 20 -83 35 0 21 -7 21 105 3 106 -17 133
-19 120 -6 -6 5 -59 20 -120 32 -60 12 -111 23 -112 24 -2 1 -14 82 -28 180
-30 213 -28 219 55 247 113 39 546 147 570 142 14 -3 36 -13 50 -23z m158 -29
c2 -7 -3 -12 -10 -12 -15 0 -38 19 -38 32 0 11 43 -7 48 -20z m40 -95 c3 -16
1 -17 -17 -7 -25 13 -28 33 -4 28 10 -2 19 -11 21 -21z m-53 -191 c25 -83 27
-99 15 -106 -35 -23 -47 -11 -68 69 -25 89 -28 127 -9 134 25 10 33 -2 62 -97z
m-1911 -186 c11 -14 6 -11 -11 7 -18 18 -33 38 -33 45 0 7 6 4 12 -7 6 -11 20
-31 32 -45z m1972 -227 c-7 -8 -246 9 -246 17 0 4 55 18 123 32 l122 24 3 -34
c2 -19 1 -36 -2 -39z m-411 -73 c-3 -5 -14 -10 -23 -10 -15 0 -15 2 -2 10 20
13 33 13 25 0z"/>
<path d="M5823 3495 c0 -8 4 -12 9 -9 5 3 6 10 3 15 -9 13 -12 11 -12 -6z"/>
<path d="M5882 3458 c-1 -36 1 -39 9 -20 5 13 13 21 18 18 4 -3 16 3 26 13 16
19 16 19 -2 17 -10 -2 -21 2 -25 8 -5 7 -8 6 -8 -4 0 -12 -2 -12 -8 -2 -6 8
-9 -4 -10 -30z m43 13 c-9 -8 -36 -10 -30 -2 2 4 11 8 20 8 8 0 13 -3 10 -6z"/>
<path d="M5819 3468 c-5 -18 -6 -38 -1 -34 7 8 12 36 6 36 -2 0 -4 -1 -5 -2z"/>
<path d="M5858 3363 c-15 -18 -37 -95 -23 -81 4 3 7 10 7 15 -1 4 7 16 16 26
8 10 16 27 17 37 2 24 2 24 -17 3z"/>
<path d="M5766 3322 l-19 -27 24 22 c12 12 21 24 18 27 -2 2 -13 -8 -23 -22z"/>
<path d="M5746 3282 c-3 -5 1 -9 9 -9 8 0 12 4 9 9 -3 4 -7 8 -9 8 -2 0 -6 -4
-9 -8z"/>
<path d="M5756 3093 l20 -18 -22 -25 c-18 -18 -21 -27 -12 -37 11 -14 31 -4
34 17 1 6 2 11 4 13 12 15 3 39 -18 52 -26 16 -27 16 -6 -2z m11 -57 c-7 -13
-15 -22 -20 -19 -5 3 -1 14 9 24 22 25 24 24 11 -5z"/>
<path d="M5040 3641 c0 -5 -44 -11 -97 -15 -54 -3 -116 -8 -138 -12 -44 -7
-99 -50 -90 -72 2 -7 0 -10 -5 -7 -6 3 -10 2 -10 -3 0 -13 -56 -35 -69 -28 -6
4 -27 -2 -48 -13 -28 -14 -39 -26 -41 -45 -1 -14 3 -28 9 -32 6 -3 -17 -21
-52 -38 -102 -50 -99 -39 -99 -441 0 -196 4 -346 10 -355 7 -12 31 -15 107
-15 109 -1 211 -25 219 -53 15 -47 36 -83 57 -96 13 -9 83 -27 156 -41 82 -15
141 -31 152 -41 23 -20 25 -60 4 -68 -12 -4 -14 -19 -9 -83 4 -45 13 -85 21
-94 14 -16 72 -36 123 -41 l25 -3 0 132 c0 72 -3 134 -6 137 -3 3 -28 9 -55
12 -31 4 -58 15 -74 30 -33 30 -61 39 -190 60 -58 9 -113 20 -122 25 -20 11
-53 69 -40 69 5 0 107 -34 227 -75 120 -42 225 -73 233 -70 13 5 14 27 8 148
-13 290 -51 641 -88 825 -20 100 -20 104 -2 117 18 12 18 15 1 68 -17 55 -58
107 -84 107 -8 0 -11 5 -8 10 3 6 -1 10 -9 10 -9 0 -16 -4 -16 -9z m-160 -55
c0 -3 -24 -12 -52 -22 -29 -9 -59 -19 -67 -22 -9 -3 -12 -1 -7 6 10 17 126 51
126 38z m135 -24 c-22 -5 -230 -67 -257 -77 -10 -4 -18 -3 -18 3 0 14 165 73
219 78 24 2 46 6 49 9 3 2 10 1 16 -3 7 -4 3 -8 -9 -10z m-325 -92 c0 -5 -5
-10 -11 -10 -5 0 -7 5 -4 10 3 6 8 10 11 10 2 0 4 -4 4 -10z"/>
<path d="M5102 3634 c37 -20 55 -58 89 -188 15 -61 28 -103 29 -94 0 24 -37
180 -51 214 -17 39 -59 84 -78 84 -10 -1 -5 -7 11 -16z"/>
<path d="M5222 3320 c-1 -20 46 -279 47 -262 1 8 10 21 21 30 19 17 19 18 -1
112 -26 124 -26 125 -43 111 -11 -10 -15 -8 -19 6 -3 12 -5 13 -5 3z"/>
<path d="M3558 3089 c-16 -9 -18 -29 -18 -189 0 -189 2 -198 44 -167 14 10 16
22 12 57 -2 25 -5 105 -5 178 -1 72 -4 132 -8 132 -5 0 -16 -5 -25 -11z"/>
<path d="M3390 3017 c-72 -31 -75 -33 -78 -69 l-3 -37 56 24 c30 14 60 25 65
25 22 0 7 -30 -41 -85 -72 -82 -79 -96 -81 -153 -3 -78 9 -85 90 -57 106 37
102 33 102 76 l0 38 -65 -24 c-36 -14 -68 -25 -70 -25 -15 0 2 27 55 89 33 39
65 82 70 96 15 40 12 101 -6 119 -8 9 -16 16 -17 16 -1 0 -36 -15 -77 -33z"/>
<path d="M5272 3010 c0 -14 2 -19 5 -12 2 6 2 18 0 25 -3 6 -5 1 -5 -13z"/>
<path d="M1525 3004 c-11 -11 -13 -20 -6 -27 15 -15 41 0 41 23 0 24 -13 26
-35 4z"/>
<path d="M3231 2946 c-7 -9 -11 -57 -10 -134 0 -67 -2 -126 -6 -132 -4 -6 -17
-15 -29 -20 -39 -15 -46 4 -46 132 0 105 -2 119 -16 114 -9 -3 -18 -6 -20 -6
-2 0 -4 -67 -4 -149 0 -192 4 -198 108 -155 51 21 62 60 62 224 0 112 -3 140
-14 140 -7 0 -19 -6 -25 -14z"/>
<path d="M5281 2944 c0 -11 3 -14 6 -6 3 7 2 16 -1 19 -3 4 -6 -2 -5 -13z"/>
<path d="M2984 2846 c-74 -35 -93 -59 -88 -113 1 -13 2 -32 3 -43 1 -14 18
-29 58 -48 31 -15 57 -31 58 -36 0 -6 -25 -20 -55 -32 -48 -19 -55 -26 -58
-53 -2 -17 0 -31 5 -31 4 0 36 10 70 21 69 25 83 44 83 114 0 51 -13 67 -75
91 -60 22 -56 42 15 70 39 16 56 28 58 43 8 49 0 51 -74 17z"/>
<path d="M2539 2781 c-20 -9 -97 -43 -172 -76 l-137 -59 0 -59 c0 -69 -14 -69
158 4 63 27 116 49 118 49 2 0 4 -26 4 -57 l0 -58 -131 -50 c-72 -27 -133 -55
-136 -62 -2 -6 -3 -24 -1 -41 l3 -29 125 48 c69 27 128 48 133 49 4 0 7 -27 7
-59 l0 -59 -140 -47 -140 -48 0 -64 c0 -57 2 -64 17 -59 9 4 85 30 169 58
l153 51 26 66 c23 62 25 78 25 246 0 166 -2 184 -23 226 l-22 46 -36 -16z"/>
<path d="M2837 2783 c-4 -3 -7 -58 -7 -120 0 -126 -8 -153 -45 -153 l-25 0 0
120 c0 119 0 121 -21 110 -19 -11 -20 -18 -17 -150 2 -86 7 -143 14 -150 18
-18 93 9 113 39 23 35 31 311 9 311 -8 0 -18 -3 -21 -7z"/>
<path d="M2133 2604 l-33 -14 0 -198 c0 -108 -4 -202 -8 -207 -4 -6 -56 -29
-117 -51 l-110 -41 -3 -60 -3 -60 160 56 161 56 0 268 c0 147 -3 267 -7 266
-5 0 -23 -7 -40 -15z"/>
<path d="M1683 2397 l-132 -62 -1 -52 c0 -29 2 -53 4 -53 3 0 39 15 80 34 120
55 116 55 116 3 l0 -44 -95 -37 -95 -38 0 -38 0 -38 85 34 c47 19 89 34 95 34
6 0 10 -39 10 -101 0 -92 2 -101 18 -94 9 4 25 10 35 12 14 4 17 17 17 72 0
36 3 148 7 249 3 106 2 182 -3 182 -5 -1 -68 -29 -141 -63z"/>
<path d="M5938 2443 c12 -2 30 -2 40 0 9 3 -1 5 -23 4 -22 0 -30 -2 -17 -4z"/>
<path d="M6038 2433 c12 -2 32 -2 45 0 12 2 2 4 -23 4 -25 0 -35 -2 -22 -4z"/>
<path d="M6168 2423 c12 -2 30 -2 40 0 9 3 -1 5 -23 4 -22 0 -30 -2 -17 -4z"/>
<path d="M6308 2413 c12 -2 30 -2 40 0 9 3 -1 5 -23 4 -22 0 -30 -2 -17 -4z"/>
<path d="M6438 2403 c12 -2 30 -2 40 0 9 3 -1 5 -23 4 -22 0 -30 -2 -17 -4z"/>
<path d="M6573 2393 c15 -2 37 -2 50 0 12 2 0 4 -28 4 -27 0 -38 -2 -22 -4z"/>
<path d="M6728 2383 c6 -2 18 -2 25 0 6 3 1 5 -13 5 -14 0 -19 -2 -12 -5z"/>
<path d="M6823 2373 c15 -2 39 -2 55 0 15 2 2 4 -28 4 -30 0 -43 -2 -27 -4z"/>
<path d="M6990 2360 c36 -4 90 -7 120 -7 54 0 53 0 -15 7 -38 4 -92 7 -120 7
-47 0 -46 0 15 -7z"/>
<path d="M7207 2343 c18 -2 50 -2 70 0 21 2 7 4 -32 4 -38 0 -55 -2 -38 -4z"/>
<path d="M7520 2335 c-14 -8 -20 -14 -14 -15 5 0 19 7 30 15 24 18 16 19 -16
0z"/>
<path d="M7321 2336 c2 -2 42 -6 89 -8 47 -3 74 -2 60 2 -25 8 -157 13 -149 6z"/>
<path d="M4415 2153 c-47 -12 -48 -18 -40 -177 3 -82 9 -155 12 -163 4 -11 15
-14 40 -10 65 11 66 15 58 177 -3 80 -9 153 -11 163 -5 17 -20 19 -59 10z"/>
<path d="M5513 2043 c4 -54 7 -115 7 -135 0 -34 3 -38 25 -38 30 0 29 -2 9 39
-9 18 -14 41 -11 52 3 10 1 19 -4 19 -6 0 -6 7 0 19 6 10 8 21 5 23 -2 3 7 13
22 22 18 12 24 24 21 37 -3 10 -2 17 3 14 4 -3 10 1 13 9 6 15 -38 36 -76 36
-19 0 -20 -4 -14 -97z"/>
<path d="M5628 2079 c-10 -5 -23 -20 -29 -32 -10 -18 -6 -17 22 8 19 17 36 31
38 33 2 1 0 2 -5 2 -5 0 -17 -5 -26 -11z"/>
<path d="M5554 1983 c-1 -25 2 -40 6 -33 4 7 9 1 13 -17 3 -15 13 -37 21 -48
14 -18 15 -17 1 17 -8 21 -15 55 -15 77 0 57 -25 61 -26 4z"/>
<path d="M7705 2000 c-3 -6 -32 -32 -64 -58 -49 -41 -56 -51 -50 -72 l7 -25 1
25 c1 17 11 31 29 42 35 21 97 86 90 94 -3 3 -9 0 -13 -6z"/>
<path d="M5959 1970 c-4 -28 3 -95 10 -103 5 -5 6 16 4 45 -5 58 -10 81 -14
58z"/>
<path d="M6605 1963 c15 -76 13 -73 56 -73 l40 0 -3 42 c-2 23 -9 43 -16 46
-9 3 -11 -6 -6 -38 7 -40 6 -42 -17 -38 -20 2 -25 10 -27 41 -2 23 -8 37 -17
37 -7 0 -12 -8 -10 -17z"/>
<path d="M6724 1968 c-4 -7 1 -17 12 -24 10 -7 28 -20 39 -28 19 -15 18 -15
-17 -16 -21 0 -38 -4 -38 -10 0 -5 20 -10 45 -10 55 0 58 14 13 52 l-33 27 28
1 c15 0 27 5 27 10 0 14 -67 13 -76 -2z"/>
<path d="M6829 1975 c-2 -15 1 -48 7 -72 3 -18 11 -23 39 -23 41 0 49 11 41
56 -9 46 -28 44 -24 -3 2 -32 0 -38 -17 -38 -16 0 -21 8 -23 35 -3 33 -21 66
-23 45z"/>
<path d="M6935 1961 c6 -5 24 -11 40 -13 l30 -3 -32 -18 c-51 -27 -39 -57 23
-57 36 0 29 18 -8 22 l-33 3 33 18 c48 26 40 51 -18 55 -30 2 -42 0 -35 -7z"/>
<path d="M7040 1921 c0 -28 5 -51 10 -51 6 0 10 20 10 44 0 25 -4 48 -10 51
-6 4 -10 -13 -10 -44z"/>
<path d="M5673 1953 c9 -2 23 -2 30 0 6 3 -1 5 -18 5 -16 0 -22 -2 -12 -5z"/>
<path d="M5528 1828 c-9 -27 5 -66 26 -72 33 -9 110 -7 126 4 8 5 11 10 6 10
-5 0 -4 6 1 13 8 11 9 18 4 45 -1 4 -6 0 -11 -8 -8 -13 -10 -12 -10 3 0 10 -4
16 -9 12 -5 -3 -8 -21 -6 -40 2 -29 0 -35 -16 -35 -10 0 -19 5 -19 10 0 6 5
10 10 10 6 0 10 13 10 29 0 28 -1 29 -54 30 -32 0 -56 -4 -58 -11z"/>
<path d="M5730 1805 c0 -14 4 -25 9 -25 4 0 6 11 3 25 -2 14 -6 25 -8 25 -2 0
-4 -11 -4 -25z"/>
<path d="M6036 1803 c4 -16 8 -31 10 -34 4 -8 114 -18 219 -20 l80 -2 0 34 0
34 -85 7 c-47 3 -118 6 -158 7 l-72 1 6 -27z"/>
<path d="M6520 1781 c0 -19 7 -34 18 -39 9 -6 138 -13 285 -17 l268 -7 -3 33
-3 34 -160 7 c-88 3 -215 9 -282 12 l-123 6 0 -29z"/>
<path d="M7585 1778 c-3 -18 -2 -55 3 -83 7 -49 8 -50 49 -56 78 -10 108 -6
111 16 3 19 -2 20 -73 17 l-75 -4 -1 49 c-1 26 0 58 1 71 2 34 -8 26 -15 -10z"/>
<path d="M7741 1774 c0 -11 3 -14 6 -6 3 7 2 16 -1 19 -3 4 -6 -2 -5 -13z"/>
<path d="M7244 1758 c3 -13 6 -29 6 -35 0 -10 31 -13 119 -13 l119 0 4 30 c3
17 2 32 0 35 -3 3 -61 5 -130 5 -124 0 -124 0 -118 -22z"/>
<path d="M5371 1754 c0 -11 3 -14 6 -6 3 7 2 16 -1 19 -3 4 -6 -2 -5 -13z"/>
<path d="M7621 1724 c0 -11 3 -14 6 -6 3 7 2 16 -1 19 -3 4 -6 -2 -5 -13z"/>
<path d="M5503 1723 c9 -2 17 -13 17 -24 0 -20 15 -26 24 -10 4 5 0 11 -6 14
-7 2 9 8 36 12 29 5 51 4 55 -2 3 -6 24 -10 46 -11 22 -1 52 -4 67 -8 15 -3
38 -2 50 3 19 6 15 9 -27 14 -29 4 5 6 83 5 72 -2 132 1 132 6 0 4 -111 7
-247 7 -137 -1 -240 -3 -230 -6z"/>
<path d="M5594 1702 c-6 -4 -12 -14 -12 -22 -10 -119 -13 -204 -8 -199 4 4 8
38 10 75 1 38 8 86 15 107 14 40 12 50 -5 39z"/>
<path d="M5913 1693 c9 -2 23 -2 30 0 6 3 -1 5 -18 5 -16 0 -22 -2 -12 -5z"/>
<path d="M5669 1626 c-29 -59 -21 -130 15 -132 32 -2 31 40 -1 44 -28 4 -29
17 -4 82 23 62 18 65 -10 6z"/>
<path d="M5627 1627 c-9 -23 0 -151 13 -182 18 -43 23 -18 7 35 -13 45 -14
120 -3 139 4 5 2 12 -3 15 -5 3 -11 0 -14 -7z"/>
<path d="M4402 1616 c-41 -6 -71 -14 -67 -17 9 -9 -22 -79 -35 -79 -9 0 -7 27
6 68 2 8 -3 12 -14 10 -12 -2 -18 -15 -20 -46 -3 -37 0 -44 17 -49 32 -8 25
-23 -11 -24 -103 -3 -160 -18 -80 -20 23 -1 47 -3 52 -4 6 -1 22 -3 37 -4 l27
-1 -22 -20 c-21 -20 -32 -21 -237 -18 -229 3 -291 -6 -99 -14 65 -3 120 -10
127 -17 8 -8 5 -29 -12 -82 l-23 -72 -126 6 c-85 3 -160 0 -226 -10 -113 -16
-111 -17 -121 59 -4 26 -8 48 -10 48 -2 0 -149 -23 -327 -51 -445 -69 -989
-149 -1007 -148 -9 1 -5 5 9 9 l25 8 -25 0 c-14 0 -38 -4 -55 -8 l-30 -8 30
-2 c22 -2 16 -5 -24 -11 -30 -5 -60 -7 -65 -5 -6 2 2 5 18 5 16 1 27 4 24 7
-4 3 -90 -7 -192 -22 -110 -16 -181 -31 -174 -36 8 -4 0 -6 -17 -2 -16 3 -81
-2 -143 -10 -62 -9 -115 -16 -117 -16 -3 0 -5 -3 -5 -8 0 -4 19 -6 41 -4 41 4
42 4 36 -24 -3 -16 -11 -66 -18 -111 l-12 -83 -34 0 c-29 0 -33 3 -33 26 0 22
-4 25 -27 22 -17 -2 -28 -9 -28 -18 0 -8 6 -14 13 -12 9 1 12 -20 12 -83 0
-69 -3 -85 -15 -85 -8 0 -15 -7 -15 -16 0 -16 27 -17 321 -12 l321 6 -7 -148
c-4 -81 -4 -157 0 -169 6 -19 14 -21 83 -21 l77 -1 22 -45 c13 -25 19 -43 15
-40 -4 2 -14 1 -21 -3 -31 -20 59 -27 314 -26 149 1 344 5 435 9 170 7 537 15
975 22 215 3 337 8 483 17 38 2 42 13 7 19 -15 3 -22 1 -18 -5 3 -6 1 -7 -6
-3 -6 4 -9 16 -6 27 4 13 2 19 -9 19 -13 0 -11 10 12 49 15 28 30 47 33 43 3
-4 21 -33 39 -65 31 -57 32 -58 11 -64 -12 -3 -21 -10 -21 -15 0 -5 4 -7 9 -4
5 4 12 0 14 -6 4 -10 6 -9 6 1 1 10 4 11 15 2 25 -21 99 -26 319 -24 157 2
233 7 270 18 32 9 94 15 157 14 102 0 257 5 503 16 67 3 169 7 227 9 58 3 164
7 235 10 72 4 243 9 380 11 359 8 425 14 425 40 0 7 -6 15 -12 18 -8 2 8 26
40 60 58 62 92 127 118 227 19 70 24 215 11 294 l-9 48 -331 -6 c-183 -4 -371
-9 -419 -12 -66 -4 -88 -3 -88 6 0 9 -4 9 -16 -1 -12 -10 -86 -13 -307 -16
-161 -2 -328 -8 -372 -13 -126 -16 -192 -13 -200 8 -10 26 -29 381 -21 390 9
8 502 9 1584 3 l723 -4 16 22 c8 12 12 25 8 29 -3 3 -9 2 -13 -4 -4 -6 -33 -8
-76 -4 -51 4 -70 2 -73 -7 -3 -8 -23 -13 -53 -13 l-49 0 6 35 6 35 -49 1 c-27
0 -280 1 -561 2 -386 2 -516 6 -525 15 -13 13 -80 15 -216 6 -79 -6 -92 -10
-92 -25 0 -33 -12 -49 -36 -49 -13 0 -24 6 -24 13 0 9 -40 12 -173 11 -196 -2
-199 -2 -172 -14 17 -7 -184 -17 -247 -12 -10 1 -15 -4 -13 -11 2 -6 6 -64 10
-127 l6 -115 -221 -23 c-122 -13 -223 -22 -225 -20 -2 2 -27 69 -56 148 -83
232 -139 332 -217 381 -42 27 -53 29 -131 28 -48 -1 -119 -7 -159 -13z m-17
-126 c3 -5 -3 -10 -15 -10 -12 0 -18 5 -15 10 3 6 10 10 15 10 5 0 12 -4 15
-10z m3 -52 c-3 -7 -17 -14 -31 -16 -21 -3 -26 0 -21 12 7 19 58 22 52 4z
m340 -252 c152 -79 212 -426 114 -649 -20 -45 -91 -132 -100 -123 -3 3 -17 -2
-33 -11 -61 -37 -160 28 -212 139 -38 82 -52 154 -52 268 1 261 142 449 283
376z m-2671 -82 c-3 -3 -12 -4 -19 -1 -8 3 -5 6 6 6 11 1 17 -2 13 -5z m308
-228 c37 -37 58 -126 58 -243 -1 -273 -111 -400 -189 -218 -27 61 -31 254 -9
346 19 77 62 139 96 139 11 0 31 -11 44 -24z m-291 -82 c19 -18 20 -30 4 -40
-8 -5 -9 -1 -4 12 6 15 5 16 -5 7 -7 -7 -12 -35 -11 -65 1 -39 -1 -48 -8 -33
-12 27 -12 135 -1 135 5 0 17 -7 25 -16z m1455 2 c-9 -8 -258 -13 -253 -5 3 5
62 9 131 9 70 0 124 -2 122 -4z m-1404 -106 c3 -6 -1 -7 -9 -4 -18 7 -21 14
-7 14 6 0 13 -4 16 -10z m1170 0 c3 -5 -1 -10 -9 -10 -9 0 -16 5 -16 10 0 6 4
10 9 10 6 0 13 -4 16 -10z m30 0 c3 -5 1 -10 -4 -10 -6 0 -11 5 -11 10 0 6 2
10 4 10 3 0 8 -4 11 -10z m-1230 -9 c3 -5 2 -12 -3 -15 -5 -3 -9 1 -9 9 0 17
3 19 12 6z m1220 -31 c3 -5 -1 -11 -9 -11 -9 -1 -23 -2 -33 -3 -9 0 -18 5 -20
12 -6 15 53 17 62 2z m5 -39 c0 -10 -55 -18 -85 -12 l-20 4 20 8 c28 11 85 11
85 0z m697 -66 c-8 -53 -29 -99 -65 -137 -24 -26 -72 -39 -72 -19 0 5 8 7 19
4 32 -8 78 53 98 129 10 38 19 68 22 68 2 0 1 -20 -2 -45z m1756 -23 l-5 -48
183 12 c101 7 228 13 282 15 l98 3 26 -40 c14 -21 42 -56 61 -76 l36 -38 -29
-1 c-17 -1 -52 -3 -80 -5 -57 -5 -329 -15 -785 -29 -148 -4 -235 -11 -258 -20
-7 -3 -10 0 -7 5 4 7 -3 7 -19 0 -18 -7 -26 -6 -26 1 0 8 -21 10 -64 7 l-64
-5 38 71 c21 39 44 91 51 116 7 25 16 50 21 55 5 6 108 12 246 16 130 3 251 6
269 7 l32 2 -6 -48z m-2781 16 c13 -19 26 -23 94 -26 73 -4 84 -8 134 -43 47
-33 64 -39 105 -39 71 0 116 15 166 55 34 27 53 35 84 35 l40 0 0 -77 0 -78
76 -3 c74 -3 76 -3 91 -35 l15 -32 -51 -1 c-28 0 -106 -4 -173 -7 -162 -9
-357 -20 -413 -22 -25 -2 -105 -6 -178 -10 l-134 -8 25 50 c26 50 57 178 57
233 0 25 4 30 24 30 13 0 30 -10 38 -22z m3778 -2 c0 -2 -8 -10 -17 -17 -16
-13 -17 -12 -4 4 13 16 21 21 21 13z m-4641 -90 c-3 -3 -11 5 -18 17 -13 21
-12 21 5 5 10 -10 16 -20 13 -22z m-28 3 c9 -17 8 -20 -2 -14 -9 6 -11 2 -7
-12 4 -16 2 -19 -13 -16 -14 4 -17 9 -9 18 5 6 7 15 3 18 -3 4 0 7 8 7 11 0
11 2 -1 10 -9 6 -10 10 -3 10 7 0 17 -10 24 -21z m1747 -15 c-4 -3 -12 5 -18
18 -12 22 -12 22 6 6 10 -10 15 -20 12 -24z m-1770 -62 c-7 -10 -14 -19 -15
-21 -3 -4 2 28 6 47 1 2 6 0 11 -3 8 -5 7 -12 -2 -23z"/>
<path d="M4704 1131 c3 -5 -1 -11 -9 -15 -18 -6 -20 -32 -3 -42 12 -7 98 -7
106 1 2 2 -6 18 -18 34 -16 23 -29 31 -51 31 -17 0 -28 -4 -25 -9z"/>
<path d="M4583 1094 l-28 -25 33 22 c17 13 32 24 32 26 0 8 -11 1 -37 -23z"/>
<path d="M4564 989 c-3 -5 2 -9 10 -9 9 0 16 -7 16 -16 0 -9 -5 -12 -12 -8 -7
4 -8 3 -4 -4 10 -16 33 -15 39 1 10 28 -34 60 -49 36z"/>
<path d="M4657 929 c-9 -5 -22 -7 -28 -4 -18 11 -57 -23 -69 -61 -25 -74 6
-183 54 -192 26 -5 57 27 50 53 -3 12 1 26 9 33 10 8 12 27 9 67 -3 37 -1 55
7 55 6 0 11 12 11 26 0 14 -4 23 -10 19 -5 -3 -10 -15 -10 -26 0 -10 -7 -19
-15 -19 -21 0 -19 30 3 46 20 16 14 18 -11 3z m13 -99 c0 -5 -5 -10 -11 -10
-5 0 -7 5 -4 10 3 6 8 10 11 10 2 0 4 -4 4 -10z"/>
<path d="M4817 902 c-34 -37 -10 -122 34 -122 21 0 25 30 13 103 -7 41 -22 47
-47 19z"/>
<path d="M4520 864 c0 -24 -2 -25 -17 -13 -16 13 -17 12 -4 -3 25 -33 54 -16
43 25 -7 26 -22 20 -22 -9z"/>
<path d="M4711 733 c-1 -12 -7 -24 -13 -26 -10 -4 -10 -6 0 -6 15 -1 26 23 19
41 -3 7 -6 3 -6 -9z"/>
<path d="M4534 690 c1 -30 10 -38 21 -20 8 12 -3 50 -14 50 -5 0 -8 -13 -7
-30z"/>
<path d="M4630 615 c-7 -9 -11 -18 -8 -20 3 -3 11 1 18 10 7 9 11 18 8 20 -3
3 -11 -1 -18 -10z"/>
<path d="M4745 566 c-18 -27 -11 -53 16 -61 26 -8 14 -25 -17 -25 -13 0 -24
-4 -24 -10 0 -5 11 -10 24 -10 24 0 65 51 86 105 9 24 8 25 -30 25 -31 0 -43
-5 -55 -24z"/>
<path d="M4610 481 c0 -13 64 -51 86 -51 11 0 0 12 -29 30 -52 33 -57 35 -57
21z"/>
<path d="M2371 728 c-10 -27 3 -58 26 -58 11 0 14 6 9 23 -3 12 -6 30 -6 40 0
24 -19 21 -29 -5z"/>
<path d="M2383 533 c-15 -5 -17 -49 -3 -58 5 -3 12 5 16 19 7 31 3 44 -13 39z"/>
<path d="M7670 1612 c0 -5 7 -9 15 -9 8 0 12 4 9 9 -3 4 -9 8 -15 8 -5 0 -9
-4 -9 -8z"/>
<path d="M6058 1604 c-12 -12 -9 -40 5 -51 6 -6 76 -14 155 -17 l142 -7 0 35
0 36 -58 0 c-33 0 -99 3 -148 6 -49 4 -92 3 -96 -2z"/>
<path d="M5381 1574 c0 -11 3 -14 6 -6 3 7 2 16 -1 19 -3 4 -6 -2 -5 -13z"/>
<path d="M6542 1558 l3 -33 150 -5 c83 -3 206 -5 275 -5 l125 0 3 28 c2 16 -2
29 -10 31 -7 2 -134 7 -281 10 l-268 6 3 -32z"/>
<path d="M7253 1567 c-3 -5 -2 -19 1 -33 6 -24 7 -24 126 -24 l120 0 0 29 0
30 -121 3 c-67 2 -123 -1 -126 -5z"/>
<path d="M5745 1530 c3 -5 8 -10 11 -10 2 0 4 5 4 10 0 6 -5 10 -11 10 -5 0
-7 -4 -4 -10z"/>
<path d="M5830 1520 c0 -16 6 -19 45 -17 35 2 45 6 45 20 0 14 -9 17 -45 17
-38 0 -45 -3 -45 -20z"/>
<path d="M7737 1483 c8 -50 13 -55 13 -10 0 20 -4 38 -9 42 -6 3 -7 -10 -4
-32z"/>
<path d="M7640 1485 c0 -9 9 -15 25 -15 14 0 25 5 25 11 0 5 4 8 9 4 5 -3 12
-1 16 5 4 6 -9 10 -34 10 -30 0 -41 -4 -41 -15z"/>
<path d="M5742 1472 c-11 -19 -10 -23 3 -28 8 -3 22 -4 29 -1 11 4 13 1 9 -10
-4 -10 -2 -14 6 -12 19 7 16 23 -7 34 -12 5 -23 16 -25 25 -2 11 -6 9 -15 -8z"/>
<path d="M3693 1440 c0 -25 2 -35 4 -22 2 12 2 32 0 45 -2 12 -4 2 -4 -23z"/>
<path d="M3840 1469 c0 -5 5 -7 10 -4 6 3 10 8 10 11 0 2 -4 4 -10 4 -5 0 -10
-5 -10 -11z"/>
<path d="M3880 1470 c0 -5 7 -10 16 -10 8 0 12 5 9 10 -3 6 -10 10 -16 10 -5
0 -9 -4 -9 -10z"/>
<path d="M5710 1465 c0 -8 2 -15 4 -15 2 0 6 7 10 15 3 8 1 15 -4 15 -6 0 -10
-7 -10 -15z"/>
<path d="M5800 1471 c0 -12 29 -23 41 -15 5 3 7 10 4 15 -8 12 -45 12 -45 0z"/>
<path d="M5138 1436 c-55 -12 -87 -26 -58 -26 19 0 39 -31 40 -62 0 -21 -5
-28 -19 -28 -11 0 -23 -4 -26 -10 -3 -6 5 -10 19 -10 13 0 26 -4 28 -9 4 -10
154 5 187 19 22 10 23 14 17 67 -4 31 -9 60 -12 64 -7 13 -109 10 -176 -5z
m139 -44 c2 -26 -1 -32 -17 -32 -11 0 -20 5 -20 10 0 11 -53 14 -63 4 -15 -15
25 -36 63 -32 22 2 40 0 40 -4 0 -5 -8 -8 -17 -8 -10 0 -42 -3 -70 -6 l-53 -7
0 46 c0 45 0 46 38 52 20 4 44 8 52 10 33 7 45 -1 47 -33z"/>
<path d="M5391 1414 c0 -11 3 -14 6 -6 3 7 2 16 -1 19 -3 4 -6 -2 -5 -13z"/>
<path d="M7612 1408 c3 -7 17 -14 32 -15 23 -2 26 0 16 13 -15 17 -53 19 -48
2z"/>
<path d="M7685 1390 c3 -5 8 -10 11 -10 2 0 4 5 4 10 0 6 -5 10 -11 10 -5 0
-7 -4 -4 -10z"/>
<path d="M3675 1380 c-16 -7 -17 -9 -3 -9 9 -1 20 4 23 9 7 11 7 11 -20 0z"/>
<path d="M3608 1363 c6 -2 18 -2 25 0 6 3 1 5 -13 5 -14 0 -19 -2 -12 -5z"/>
<path d="M3568 1353 c7 -3 16 -2 19 1 4 3 -2 6 -13 5 -11 0 -14 -3 -6 -6z"/>
<path d="M6873 1284 c-9 -24 2 -233 13 -244 7 -7 80 -9 190 -8 l179 3 -1 117
c-1 64 -4 124 -7 133 -9 23 -365 23 -374 -1z m127 -102 l0 -37 45 3 c44 4 45
5 45 38 0 24 5 34 15 34 11 0 15 -12 15 -45 l0 -45 -75 0 c-60 0 -75 3 -75 15
0 11 -11 15 -40 15 -54 0 -51 20 3 22 39 1 40 1 7 5 -81 9 -77 33 6 33 l54 0
0 -38z m238 -9 l3 -43 -55 0 c-65 0 -77 19 -13 21 32 2 35 3 12 6 -55 7 -61
17 -15 23 l45 7 -42 1 c-32 2 -43 6 -43 18 0 12 10 14 53 12 l52 -3 3 -42z"/>
<path d="M6338 1252 l-48 -3 0 -77 c0 -42 4 -83 8 -90 6 -9 38 -12 123 -10
l114 3 7 75 c5 41 10 81 13 88 3 9 -12 12 -58 13 -34 0 -73 1 -87 2 -14 1 -46
1 -72 -1z"/>
<path d="M7457 1253 c-2 -4 -6 -46 -8 -92 l-4 -84 90 2 c101 2 115 11 115 67
0 18 5 36 11 40 6 3 9 15 6 25 -3 10 0 20 7 22 25 9 -4 15 -105 22 -59 4 -109
3 -112 -2z"/>
<path d="M1485 1080 c-3 -5 1 -10 10 -10 9 0 13 5 10 10 -3 6 -8 10 -10 10 -2
0 -7 -4 -10 -10z"/>
<path d="M7548 983 c7 -3 16 -2 19 1 4 3 -2 6 -13 5 -11 0 -14 -3 -6 -6z"/>
</g>
</svg>
